<?xml version="1.0" encoding="utf-8"?>
<!-- Generator: Adobe Illustrator 15.0.2, SVG Export Plug-In . SVG Version: 6.00 Build 0)  -->
<!DOCTYPE svg PUBLIC "-//W3C//DTD SVG 1.1//EN" "http://www.w3.org/Graphics/SVG/1.1/DTD/svg11.dtd">
<svg version="1.1" id="Layer_1" xmlns="http://www.w3.org/2000/svg" xmlns:xlink="http://www.w3.org/1999/xlink" x="0px" y="0px"
	 width="150.688px" height="200px" viewBox="0 0 150.688 200" enable-background="new 0 0 150.688 200" xml:space="preserve">
<g>
	<g>
		<g>
			<path fill="#FFFFFF" d="M0.913,19.356c0.19,0.159,0.218,0.34,0.083,0.544c0.306-0.26,0.612-0.521,0.923-0.782
				c-0.083,0.047-0.163,0.095-0.246,0.143c0.942-0.204,1.874-0.409,2.816-0.616c-0.093-0.002-0.19-0.005-0.283-0.007
				c0.232,0.069,0.459,0.14,0.688,0.208c-0.312-0.084-0.38-0.256-0.219-0.508c-0.306,0.259-0.611,0.521-0.918,0.782
				c0.079-0.048,0.158-0.093,0.241-0.138c-0.941,0.204-1.874,0.409-2.815,0.616c0.097,0.002,0.189,0.005,0.288,0.007
				c-0.229-0.069-0.459-0.14-0.688-0.208c0.088,0.052,0.181,0.104,0.273,0.157c0.849,0.492,2.119,0.147,2.979-0.174
				c0.204-0.078,2.125-0.993,1.327-1.453c-1.085-0.62-2.408-0.421-3.54,0.009c-0.854,0.323-2.338,1.093-1.642,2.19
				c1.029,1.627,6.513-0.1,5.324-2C4.722,16.877,0.44,18.593,0.913,19.356z"/>
		</g>
	</g>
	<g>
		<g>
			<path fill="#FFFFFF" d="M26.39,17.848c0.004,0.052,0.004,0.104,0.004,0.16c0.032-0.305,0.061-0.607,0.093-0.911
				c-0.046,0.09-0.088,0.179-0.134,0.268c0.39-0.373,0.778-0.742,1.169-1.121c-0.088,0.048-0.172,0.095-0.255,0.141
				c0.403-0.11,0.812-0.219,1.22-0.328c-0.103-0.002-0.204-0.005-0.302-0.007c0.523,0.128,1.044,0.256,1.572,0.385
				c0.02,0.002,0.037,0.004,0.052,0.007c-0.028,0.302-0.062,0.605-0.094,0.909c0.047-0.088,0.089-0.175,0.135-0.263
				c-0.391,0.373-0.779,0.746-1.169,1.122c0.083-0.051,0.171-0.098,0.255-0.147c-0.607,0.102-1.21,0.207-1.813,0.309
				c0.103,0.002,0.199,0.007,0.301,0.012c-0.324-0.121-0.648-0.245-0.979-0.365c0.093,0.052,0.186,0.106,0.278,0.161
				c1.043,0.594,2.342,0.482,3.298-0.254c0.719-0.553,1.248-1.872,0.227-2.461c-1.169-0.667-2.426-0.772-3.632-0.086
				c-1.285,0.732-1.809,1.998-0.997,3.283c1.54,2.432,6.8-0.048,4.963-2.867C29.4,13.981,25.044,15.783,26.39,17.848z"/>
		</g>
	</g>
	<g>
		<g>
			<path fill="#FFFFFF" d="M14.412,27.405c-0.584-0.93-1.661-0.71-2.621-0.569c-0.719,0.106-3.214,0.719-3.062,1.881
				c0.167,1.273,1.703,1.067,2.644,0.891C12.473,29.405,14.607,28.877,14.412,27.405c-0.111-0.836-4.741,0.1-4.592,1.23
				c-0.023,0.124-0.046,0.247-0.074,0.371c1.025-0.359,2.045-0.718,3.075-1.079c-0.097,0.007-0.195,0.014-0.288,0.023
				c0.385,0.038,0.771,0.074,1.155,0.112c-0.343-0.108-0.433-0.316-0.26-0.625c-0.841,0.333-1.676,0.666-2.515,0.997
				c0.074-0.011,0.148-0.021,0.224-0.032c-0.482,0.021-0.971,0.042-1.452,0.063c0.046,0.055,0.093,0.112,0.139,0.168
				C10.511,29.728,14.737,27.928,14.412,27.405z"/>
		</g>
	</g>
	<g>
		<g>
			<path fill="#FFFFFF" d="M25.675,4.472c-1.211-1.751-5.757-0.395-5.418,1.869c0.19,1.294,2.491,0.991,3.285,0.779
				c1.15-0.307,2.486-1.046,2.292-2.392c-0.204-1.403-4.814-0.358-4.588,1.23c-0.019,0.091-0.033,0.181-0.051,0.268
				c0.158-0.204,0.311-0.411,0.469-0.617c-0.074,0.057-0.147,0.113-0.218,0.17c0.719-0.29,1.438-0.577,2.157-0.866
				c-0.094,0.009-0.187,0.019-0.278,0.028c0.501,0.036,0.998,0.074,1.499,0.11c0.023-0.072,0.046-0.145,0.065-0.217
				c-0.153,0.208-0.312,0.412-0.465,0.618c0.074-0.061,0.145-0.117,0.224-0.176c-0.914,0.301-1.823,0.605-2.737,0.907
				c-0.162,0.011-0.338,0.02-0.51,0.029C22.205,7.376,26.654,5.89,25.675,4.472z"/>
		</g>
	</g>
	<g>
		<path fill="#FFFFFF" d="M132.605,191.467c-4.031,2.584-8.514,4.696-13.161,5.995c-4.657,1.313-9.542,1.835-14.348,1.435
			c-9.625-0.733-18.797-5.457-24.837-12.797c6.352,7.082,15.573,11.295,24.911,11.61c4.667,0.192,9.344-0.513,13.754-1.955
			c4.439-1.452,8.546-3.595,12.392-6.284L132.605,191.467z"/>
	</g>
	<g>
		<path fill="#FFFFFF" d="M45.26,124.201c-1.901-3.004-2.834-6.684-2.736-10.191c0.079-3.535,1.03-6.953,2.496-10.066
			c2.955-6.243,7.886-11.304,13.572-14.92c-5.464,3.936-10.006,9.236-12.487,15.394c-1.229,3.065-1.916,6.347-1.8,9.577
			c0.12,3.242,1.095,6.332,2.969,8.945L45.26,124.201z"/>
	</g>
	<g>
		<g>
			<path fill="#FFFFFF" d="M44.913,123.67c3.623,5.583,8.902,7.889,14.747,10.576c7.724,3.552,10.136,10.156,9.38,18.271
				c-0.492,5.265-1.442,10.183-0.538,15.479c1.322,7.688,6.675,14.236,11.76,19.822c1.034,1.136,2.714-0.549,1.679-1.68
				c-5.919-6.5-11.207-13.703-11.561-22.783c-0.204-5.301,1.374-10.494,1.202-15.809c-0.52-15.837-17.558-14.193-24.618-25.074
				C46.132,121.189,44.073,122.38,44.913,123.67L44.913,123.67z"/>
		</g>
	</g>
	<g>
		<path fill="#FFFFFF" d="M130.452,190.049c3.938-2.553,7.464-5.562,10.466-9.134c2.992-3.548,5.399-7.616,6.969-12.021
			c3.204-8.774,2.755-18.9-1.435-27.445c4.541,8.353,5.487,18.625,2.562,27.818c-1.435,4.606-3.744,8.938-6.703,12.762
			c-2.946,3.822-6.583,7.186-10.488,9.955L130.452,190.049z"/>
	</g>
	<g>
		<path fill="#FFFFFF" d="M100.245,87.211c-1.666-2.642-4.027-4.692-6.829-6.098c-2.797-1.403-5.961-2.104-9.147-2.238
			c-6.411-0.265-12.887,1.756-18.397,5.226c5.293-3.792,11.713-6.279,18.412-6.413c3.321-0.061,6.731,0.464,9.876,1.809
			c3.122,1.313,6.007,3.54,8.002,6.323L100.245,87.211z"/>
	</g>
	<g>
		<g>
			<path fill="#FFFFFF" d="M99.841,86.617c4.49,6.499,3.137,13.661,4.439,20.986c1.002,5.621,5.622,9.787,10.734,11.818
				c4.848,1.926,10.08,2.564,14.849,4.704c7.896,3.549,12.479,11.578,16.063,19.03c0.663,1.381,2.715,0.175,2.052-1.199
				c-5.785-12.014-12.822-19.489-25.766-22.781c-7.97-2.029-14.923-5.486-15.999-14.596c-0.83-6.988-0.115-13.072-4.322-19.166
				C101.028,84.168,98.964,85.355,99.841,86.617L99.841,86.617z"/>
		</g>
	</g>
	<g>
		<polygon fill="#FFFFFF" points="18.184,26.562 59.566,90.041 16.217,27.89 		"/>
	</g>
	<g>
		<polygon fill="#FFFFFF" points="26.088,21.227 67.253,84.376 24.121,22.555 		"/>
	</g>
	<g>
		<polygon fill="#FFFFFF" points="18.75,2.942 1.344,13.235 17.423,0.973 		"/>
	</g>
	<g>
		<polygon fill="#FFFFFF" points="3.284,11.25 17.683,27.949 1.572,12.893 		"/>
	</g>
	<g>
		<polygon fill="#FFFFFF" points="18.146,2.767 25.74,22.833 15.976,3.73 		"/>
	</g>
</g>
</svg>
