<?xml version="1.0" encoding="utf-8"?>
<!-- Generator: Adobe Illustrator 23.0.6, SVG Export Plug-In . SVG Version: 6.00 Build 0)  -->
<svg version="1.1" id="Layer_1" xmlns="http://www.w3.org/2000/svg" xmlns:xlink="http://www.w3.org/1999/xlink" x="0px" y="0px"
	 viewBox="0 0 612 79" style="enable-background:new 0 0 612 79;" xml:space="preserve">
<style type="text/css">
	.st0{fill:#FFFFFF;}
	.st1{fill:#F29A2F;}
</style>
<g>
	<path class="st0" d="M104.24,2.54c0,4.43,0,8.93,0,13.74c-1.07,0.06-2.22,0.13-3.29,0.13c-8.23,0-16.46,0.06-24.7,0
		c-2.03,0-2.79,0.57-2.72,2.66c0.13,4.43,0.06,8.8,0.06,13.68c7.78,0,15.32,0,22.98,0c0,4.94,0,9.43,0,14.37
		c-7.47,0-15.01,0-22.98,0c0,5.32-0.06,10.26,0.12,15.2c0,0.57,1.78,1.45,2.72,1.45c8.04,0.13,16.02,0.06,24.06,0.06
		c1.14,0,2.28,0,3.67,0c0,4.75,0,9.31,0,13.93c-0.51,0.12-0.89,0.26-1.33,0.26c-13.8,0-27.6,0-41.47,0.06
		c-1.78,0-2.41-0.57-2.41-2.4c0.06-23.75,0.06-47.49,0-71.24c0-1.46,0.19-2.4,2.03-2.4C75.12,2.1,89.24,2.1,103.42,2.16
		C103.67,2.23,103.86,2.42,104.24,2.54z"/>
	<path class="st0" d="M549.39,2.35c0,4.69,0,9.18,0,13.99c-1.14,0.07-2.22,0.13-3.36,0.13c-8.23,0-16.46,0.06-24.69,0
		c-2.09,0-2.78,0.63-2.72,2.72c0.13,4.43,0.06,8.8,0.06,13.67c7.79,0,15.33,0,22.99,0c0,4.94,0,9.44,0,14.37
		c-7.54,0-15.01,0-22.99,0c0,5.32-0.06,10.26,0.13,15.2c0,0.51,1.78,1.39,2.79,1.39c8.04,0.13,16.03,0.06,24.06,0.06
		c1.14,0,2.28,0,3.67,0c0,4.75,0,9.31,0,14.06c-1.08,0.07-1.96,0.19-2.92,0.19c-12.98,0-25.95-0.06-38.94,0.07
		c-2.66,0-3.36-0.82-3.36-3.42c0.06-23.11,0.06-46.22,0-69.34c0-2.59,0.69-3.41,3.36-3.35c12.98,0.13,25.96,0.06,38.94,0.06
		C547.36,2.16,548.25,2.23,549.39,2.35z"/>
	<path class="st0" d="M165.66,2.48c4.75,0,9.25,0,14.25,0c0,1.27,0,2.47,0,3.74c0,18.05,0.06,36.1-0.06,54.14
		c0,2.85,0.83,3.61,3.55,3.54c8.93-0.19,17.92-0.06,27.1-0.06c0,4.63,0,9.12,0,13.87c-14.82,0-29.76,0-44.89,0
		C165.66,52.76,165.66,27.81,165.66,2.48z"/>
	<path class="st0" d="M317.06,63.77c0,4.88,0,9.25,0,13.93c-15.01,0-29.95,0-45.02,0c0-25.01,0-49.96,0-75.1c4.69,0,9.24,0,14.25,0
		c0,1.27,0,2.46,0,3.74c0,17.92,0.06,35.84-0.07,53.82c0,2.85,0.64,3.87,3.67,3.8C298.83,63.65,307.76,63.77,317.06,63.77z"/>
	<path class="st1" d="M366.46,3.24v11.59c2.09,0.44,4.11,1.33,5.76,2.79c2.48,2.22,4.31,5.82,4.25,9.56
		c-0.06,3.99-2.4,7.47-2.66,11.4c-0.37,6.71-0.37,7.6,1.97,12.35c1.77,3.61,5,6.27,8.35,4.43c-1.84,2.28-8.23,4.75-10.89,3.54
		c-1.84-0.82-2.92-2.03-3.93-4.18c-1.08,0.95-1.84,2.35-2.73,3.55c-0.88,1.2-1.89,1.2-3.23,1.14c-1.32,0.06-2.08,0.06-2.97-1.14
		c-0.88-1.2-1.71-2.53-2.72-3.55c-0.95,2.09-2.34,3.36-4.17,4.18c-2.66,1.21-8.8-1.27-10.64-3.54c3.29,1.84,6.52-0.82,8.35-4.43
		c2.35-4.75,2.35-5.63,1.96-12.35c-0.26-3.99-2.53-7.47-2.66-11.4c-0.06-3.8,1.77-7.34,4.24-9.56c1.77-1.58,3.93-2.47,6.08-2.91
		V3.24c-19.44,1.33-34.83,17.47-34.83,37.23c0,20.64,16.72,37.36,37.36,37.36c20.64,0,37.36-16.72,37.36-37.36
		C400.65,20.91,385.58,4.89,366.46,3.24z"/>
	<path class="st0" d="M41.62,35.47c-2.28-1.39-2.65-2.4-1.58-4.88c5.7-13.36-3.36-27.48-17.98-28.12C15.34,2.23,8.57,2.42,1.79,2.42
		c-0.51,0-0.95,0.19-1.46,0.31c0,9.56,0,19.07,0,28.62h23.55v3.17H0.33c0,1.71,0,3.36,0,5.07h23.55v3.17H0.33
		c0,11.65,0,23.36,0,35.14c10.07,0,19.76,0.07,29.44,0c5.51-0.06,10.13-2.4,14.25-6.02C55.11,61.94,53.9,42.75,41.62,35.47z"/>
	<g>
		<path class="st0" d="M140.4,77.64c1.71,0,3.35,0,5.06,0V63.71c-1.71,0-3.36,0-5.06,0V77.64z"/>
		<path class="st0" d="M137.23,63.77c-2.34,0-4.68,0.06-7.03,0.06c-2.79,0.06-3.61-0.7-3.54-3.54c0.13-18.05,0.06-36.09,0.06-54.14
			c0-1.21,0-2.41,0-3.74c-5.01,0-9.5,0-14.25,0c0,25.33,0,50.27,0,75.16c8.3,0,16.59,0,24.76,0V63.77z"/>
		<path class="st0" d="M148.63,63.77v13.87c2.92,0,5.82,0,8.74,0c0-4.75,0-9.25,0-13.87C154.39,63.77,151.55,63.77,148.63,63.77z"/>
	</g>
	<g>
		<path class="st0" d="M218.85,27.17h14.31c0.07-1.71,0.07-3.35,0-5.07h-14.31C218.85,23.82,218.85,25.46,218.85,27.17z"/>
		<path class="st0" d="M236.01,33c-2.09,0.06-2.97-0.51-2.97-2.66h-14.25c0,15.83,0,31.66,0,47.55c4.75,0,9.31,0,14.31,0
			c0-10.19,0-20.26,0-30.71c7.98,0,15.51,0,23.05,0c0-4.87,0-9.25,0-14.25C249.25,32.94,242.6,32.87,236.01,33z"/>
		<path class="st0" d="M218.85,2.29c0,5.58,0,11.08,0,16.66h14.19c0-2.09,1.01-2.53,3.1-2.47c8.11,0.13,16.27,0.06,24.38,0.06
			c1.08,0,2.22-0.13,3.23-0.13c0-4.88,0-9.37,0-13.99C248.74,2.29,233.86,2.29,218.85,2.29z"/>
	</g>
	<g>
		<path class="st0" d="M421.42,36.55c1.71,4.31,3.36,8.61,5.07,12.92V10.02c-0.7-1.71-1.39-3.49-2.09-5.19
			c-0.38-0.95-1.45-2.28-2.28-2.35c-0.25,0-0.44,0-0.7,0V36.55L421.42,36.55z"/>
		<path class="st0" d="M418.25,2.35c-3.29-0.06-6.58,0-10.26,0c3.43,8.74,6.84,17.42,10.26,26.09V2.35z"/>
		<path class="st0" d="M483.53,2.29c-2.02-0.06-2.97,0.63-3.67,2.47c-3.49,9.24-7.16,18.49-10.76,27.67c-0.77,1.9-1.59,3.8-2.35,5.7
			c-0.25,0-0.57,0.06-0.82,0.06c-4.5-11.46-8.99-22.86-13.74-35.02c-4.69,12.16-9.24,23.68-14.12,36.03
			c-0.88-2.03-1.39-3.04-1.77-4.12c-2.22-5.69-4.43-11.4-6.65-17.1v39.58c2.79,7.03,5.51,14.12,8.37,21.27
			c4.75-12.79,9.18-24.88,13.67-36.98c0.25,0,0.57,0,0.82,0c4.56,12.1,9.18,24.26,13.99,37.04c10.13-25.77,20.01-50.97,30.08-76.49
			C491.89,2.35,487.72,2.48,483.53,2.29z"/>
	</g>
	<path class="st0" d="M595.17,51.17c2.92-2.34,5.83-3.99,7.85-6.39c3.8-4.56,5.83-9.5,6.21-14.69H582.7v-3.17h26.6
		c-0.07-1.65-0.38-3.36-0.77-5.06h-25.77v-3.17h24.82c-0.07-0.13-0.07-0.19-0.13-0.31c-3.54-9.31-11.27-14.69-21.02-15.52
		c-9.37-0.82-18.93-0.19-28.62-0.19c0,25.2,0,50.09,0,75.1c4.81,0,9.37,0,14.37,0c0-11.21,0-22.1,0-33.05
		c1.4,0.88,2.09,1.9,2.79,2.91c6.08,9.37,12.16,18.75,18.3,28.06c0.57,0.82,1.34,2.15,2.03,2.15c5.51,0.19,10.96,0.13,17.04,0.13
		C606.25,68.4,600.62,59.6,595.17,51.17z"/>
</g>
</svg>
