<?xml version="1.0" encoding="utf-8"?>
<!-- Generator: Adobe Illustrator 15.0.2, SVG Export Plug-In . SVG Version: 6.00 Build 0)  -->
<!DOCTYPE svg PUBLIC "-//W3C//DTD SVG 1.1//EN" "http://www.w3.org/Graphics/SVG/1.1/DTD/svg11.dtd">
<svg version="1.1" id="Layer_1" xmlns="http://www.w3.org/2000/svg" xmlns:xlink="http://www.w3.org/1999/xlink" x="0px" y="0px"
	 width="305.316px" height="200px" viewBox="0 0 305.316 200" enable-background="new 0 0 305.316 200" xml:space="preserve">
<g>
	<g>
		<g>
			<path fill="#FFFFFF" d="M150.031,25.417l-0.064,0.292c-0.052,0.189-0.126,0.408-0.205,0.598
				c-0.147,0.321-0.316,0.593-0.505,0.834c-0.381,0.477-0.793,0.839-1.204,1.128c-0.83,0.584-1.654,0.95-2.479,1.273
				c-1.639,0.621-3.266,1.002-4.883,1.315c-3.246,0.618-6.48,0.929-9.708,1.15c-6.456,0.418-12.892,0.406-19.312,0.225
				c-12.845-0.396-25.632-1.541-38.354-3.148c-12.719-1.626-25.38-3.715-37.9-6.536c-6.255-1.422-12.479-3.019-18.598-5.028
				c-3.057-1.016-6.092-2.118-9.039-3.506c-1.469-0.703-2.92-1.463-4.293-2.434c-0.684-0.492-1.351-1.026-1.943-1.718
				C0.984,9.19,0.389,8.251,0.518,7.083c0.154-1.157,0.97-1.932,1.675-2.437c0.739-0.522,1.521-0.872,2.301-1.177
				c1.568-0.595,3.157-0.972,4.754-1.28c3.191-0.607,6.399-0.917,9.607-1.138c6.419-0.412,12.835-0.403,19.236-0.22
				c12.812,0.397,25.579,1.537,38.28,3.139c12.697,1.622,25.338,3.708,37.826,6.522c6.238,1.424,12.445,3.013,18.526,5.01
				c3.037,1.01,6.05,2.106,8.948,3.473c1.444,0.686,2.868,1.438,4.173,2.361c1.217,0.916,2.729,2.067,2.638,3.761L150.031,25.417z
				 M148.488,25.105c0.074-1.691-1.445-2.821-2.669-3.72c-1.311-0.91-2.742-1.642-4.188-2.312c-2.901-1.331-5.928-2.395-8.968-3.371
				c-6.097-1.931-12.307-3.457-18.554-4.81c-12.493-2.681-25.14-4.637-37.832-6.126c-12.694-1.47-25.446-2.475-38.212-2.739
				C31.688,1.907,25.3,1.964,18.953,2.44c-3.167,0.25-6.333,0.589-9.421,1.208c-1.54,0.315-3.066,0.696-4.487,1.253
				C3.683,5.421,2.181,6.31,2.08,7.281c-0.114,0.97,1.138,2.167,2.34,2.985c1.25,0.865,2.645,1.586,4.067,2.244
				c2.854,1.312,5.852,2.367,8.874,3.337c6.058,1.917,12.253,3.442,18.479,4.789c12.467,2.676,25.095,4.624,37.763,6.113
				c12.671,1.467,25.402,2.475,38.131,2.736c6.363,0.117,12.732,0.059,19.035-0.412c3.147-0.249,6.29-0.587,9.328-1.202
				c1.513-0.308,3.007-0.684,4.35-1.213c1.335-0.501,2.567-1.337,2.493-1.868L148.488,25.105z"/>
		</g>
		<g>
			<polygon fill="#FFFFFF" points="76.468,18.269 74.895,158.273 73.32,18.269 			"/>
		</g>
		<g>
			<polygon fill="#FFFFFF" points="75.959,159.434 41.985,188.404 73.831,157.111 			"/>
		</g>
		<g>
			<polygon fill="#FFFFFF" points="75.959,157.111 107.803,188.404 73.831,159.434 			"/>
		</g>
	</g>
	<g>
		<path fill="#FFFFFF" d="M304.816,9.302c-0.025,0.029-0.043,0.075-0.068,0.104c-0.577,0.683-1.187,1.177-1.801,1.631
			c-1.236,0.884-2.503,1.562-3.775,2.181c-2.558,1.228-5.161,2.197-7.78,3.091c-5.245,1.766-10.562,3.173-15.903,4.436
			c-10.692,2.497-21.495,4.366-32.348,5.84c-10.854,1.451-21.761,2.508-32.718,2.933c-5.479,0.191-10.963,0.246-16.46-0.067
			c-2.748-0.172-5.503-0.412-8.244-0.91c-1.371-0.255-2.742-0.565-4.096-1.07c-0.68-0.26-1.354-0.555-2.008-1.005
			c-0.624-0.469-1.34-1.045-1.509-2.213c-0.123-0.919,0.394-1.848,0.879-2.406c0.504-0.604,1.076-1.066,1.657-1.494
			c1.171-0.841,2.406-1.505,3.657-2.109c2.507-1.207,5.089-2.167,7.688-3.054c5.205-1.751,10.502-3.151,15.83-4.407
			c10.658-2.49,21.443-4.354,32.271-5.824c10.834-1.451,21.724-2.505,32.644-2.931c5.46-0.198,10.933-0.249,16.387,0.063
			c2.725,0.167,5.453,0.411,8.145,0.901c1.34,0.249,2.678,0.558,3.963,1.033c1.205,0.487,2.705,1.111,3.003,2.524L304.816,9.302z
			 M300.506,3.895c-1.069-0.331-2.151-0.615-3.256-0.807c-2.688-0.458-5.414-0.664-8.135-0.799
			c-5.45-0.246-10.91-0.129-16.358,0.135c-10.895,0.552-21.753,1.739-32.547,3.316c-10.788,1.595-21.525,3.589-32.107,6.188
			c-5.281,1.312-10.535,2.771-15.657,4.565c-2.552,0.907-5.088,1.886-7.485,3.076c-1.195,0.598-2.371,1.247-3.405,2.014
			c-1.007,0.747-2.021,1.729-1.873,2.573c0.073,0.601,1.344,1.418,2.509,1.788c1.208,0.435,2.515,0.721,3.828,0.944
			c2.634,0.449,5.34,0.655,8.039,0.787c5.409,0.243,10.854,0.129,16.28-0.132c10.864-0.55,21.704-1.731,32.475-3.305
			c10.767-1.593,21.479-3.583,32.027-6.18c5.267-1.31,10.498-2.764,15.586-4.547c2.534-0.899,5.046-1.869,7.397-3.037
			c1.171-0.586,2.312-1.222,3.286-1.941c0.987-0.69,1.74-1.648,1.553-1.893L300.506,3.895z"/>
	</g>
	<g>
		<polygon fill="#FFFFFF" points="243.14,15.378 241.565,160.854 239.991,15.378 		"/>
	</g>
	<g>
		<path fill="#FFFFFF" d="M194.099,75.215c8.012-1.639,15.965-3.713,23.732-6.302c3.861-1.316,7.747-2.711,11.255-4.624
			c0.853-0.486,1.713-1.033,2.304-1.642c0.308-0.277,0.394-0.67,0.381-0.547c0.16,0.123-0.332-0.221-0.75-0.283
			c-1.832-0.418-3.941-0.412-5.964-0.406c-8.182,0.166-16.387,1.168-24.521,2.392c-8.122,1.291-16.251,2.794-24.107,5.306
			c7.789-2.73,15.891-4.458,23.997-5.977c8.129-1.445,16.301-2.678,24.601-3.08c2.091-0.049,4.145-0.148,6.357,0.28
			c0.528,0.206,1.205,0.11,1.852,1.184c0.332,1.156-0.289,1.758-0.627,2.216c-0.818,0.907-1.722,1.485-2.629,2.057
			c-3.661,2.177-7.522,3.714-11.399,5.208c-7.774,2.92-15.722,5.315-23.792,7.289L194.099,75.215z"/>
	</g>
	<g>
		<path fill="#FFFFFF" d="M225.432,37.137c0.265-0.181-1.168-0.873-2.396-1.058c-1.288-0.258-2.685-0.375-4.08-0.437
			c-2.804-0.114-5.652,0.006-8.5,0.222c-5.692,0.446-11.391,1.31-17.017,2.419c-5.646,1.128-11.236,2.499-16.715,4.27
			c-2.733,0.897-5.444,1.881-8.053,3.083c-1.304,0.605-2.588,1.257-3.783,2.057c-0.601,0.394-1.172,0.836-1.669,1.35
			c-0.486,0.504-0.947,1.153-0.838,1.897c-0.146-0.738,0.292-1.433,0.764-1.961c0.479-0.547,1.039-1.021,1.626-1.445
			c1.175-0.858,2.438-1.574,3.724-2.244c2.576-1.334,5.257-2.447,7.965-3.474c5.428-2.035,11.003-3.674,16.623-5.066
			c5.646-1.377,11.341-2.515,17.137-3.234c2.896-0.35,5.811-0.612,8.786-0.624c1.487,0,2.987,0.046,4.54,0.283
			c0.778,0.117,1.571,0.292,2.42,0.615c0.418,0.157,0.87,0.394,1.321,0.729c0.253,0.243,0.428,0.32,0.72,0.774
			c0.313,0.495,0.313,0.621,0.389,0.778L225.432,37.137z"/>
	</g>
	<g>
		<polygon fill="#FFFFFF" points="163.645,67.326 162.384,50.934 166.746,66.785 		"/>
	</g>
	<g>
		<polygon fill="#FFFFFF" points="230.99,62.223 226.913,36.602 234.067,61.541 		"/>
	</g>
	<g>
		<path fill="#FFFFFF" d="M132.413,74.563c-7.462-1.792-15.03-3.253-22.624-4.529c-7.587-1.211-15.254-2.432-22.859-2.622
			c-0.939-0.003-1.886,0.018-2.77,0.135c-0.435,0.055-0.876,0.153-1.159,0.283c-0.139,0.055-0.168,0.135-0.113,0.019
			c0.009-0.006-0.02-0.037,0.037,0.092c0.262,0.507,1.124,1.106,1.887,1.555c0.796,0.474,1.646,0.892,2.51,1.285
			c3.477,1.562,7.145,2.789,10.818,3.935c7.368,2.257,14.876,4.114,22.461,5.595c-7.638-1.193-15.219-2.761-22.707-4.747
			c-3.74-1.013-7.463-2.095-11.096-3.564c-0.906-0.375-1.811-0.775-2.693-1.254c-0.872-0.529-1.785-0.917-2.544-2.078
			c-0.174-0.289-0.328-0.83-0.171-1.304c0.209-0.584,0.614-0.806,0.895-0.965c0.592-0.289,1.111-0.387,1.628-0.479
			c1.027-0.166,2.02-0.215,3.005-0.243c7.864-0.04,15.546,0.956,23.235,1.94c7.684,1.052,15.341,2.284,22.959,3.871L132.413,74.563z
			"/>
	</g>
	<g>
		<path fill="#FFFFFF" d="M147.56,53.91c0.305-0.009-0.7-1.156-1.723-1.771c-1.051-0.701-2.25-1.315-3.471-1.881
			c-2.45-1.131-5.032-2.072-7.646-2.923c-5.235-1.697-10.619-3.016-16.049-4.098c-5.433-1.07-10.92-1.9-16.446-2.333
			c-2.762-0.206-5.534-0.329-8.305-0.212c-1.384,0.061-2.77,0.172-4.123,0.437c-0.682,0.135-1.35,0.316-1.982,0.596
			c-0.618,0.265-1.269,0.676-1.438,1.377c0.136-0.713,0.782-1.168,1.395-1.47c0.63-0.307,1.304-0.522,1.979-0.688
			c1.362-0.332,2.751-0.51,4.142-0.64c2.785-0.24,5.58-0.258,8.369-0.178c5.582,0.172,11.146,0.753,16.675,1.568
			c5.526,0.836,11.023,1.906,16.456,3.388c2.715,0.75,5.407,1.586,8.063,2.66c1.328,0.55,2.649,1.137,3.947,1.915
			c0.651,0.394,1.304,0.836,1.942,1.439c0.313,0.298,0.637,0.676,0.923,1.149c0.135,0.314,0.265,0.443,0.361,0.969
			c0.103,0.575,0.057,0.682,0.062,0.852L147.56,53.91z"/>
	</g>
	<g>
		<polygon fill="#FFFFFF" points="80.565,67.409 86.383,43.089 83.665,67.947 		"/>
	</g>
	<g>
		<polygon fill="#FFFFFF" points="145.069,68.181 149.128,53.978 148.175,68.719 		"/>
	</g>
	<g>
		<polygon fill="#FFFFFF" points="242.629,159.434 208.658,188.404 240.502,157.111 		"/>
	</g>
	<g>
		<path fill="#FFFFFF" d="M227.221,132.598c0.027,17.553-7.286,35-19.786,47.285c-12.391,12.42-29.814,19.564-47.308,19.404
			c-17.493,0.031-34.805-7.236-47.03-19.669c-12.341-12.322-19.448-29.644-19.288-47.024c-0.025-17.382,7.196-34.598,19.562-46.748
			c12.244-12.272,29.461-19.34,46.744-19.177c17.29-0.024,34.389,7.151,46.471,19.442c12.199,12.174,19.233,29.282,19.064,46.468
			L227.221,132.598z M225.646,132.578c0.03-17.188-7.12-34.183-19.343-46.188c-12.096-12.122-29.114-19.095-46.188-18.941
			c-17.09-0.024-33.978,7.083-45.911,19.227c-12.058,12.027-18.975,28.936-18.821,45.912c-0.023,16.98,7.034,33.773,19.104,45.639
			c11.969,11.974,28.764,18.854,45.642,18.699c16.881,0.02,33.564-6.996,45.357-18.992c11.904-11.9,18.744-28.562,18.588-45.383
			L225.646,132.578z"/>
	</g>
	<g>
		<polygon fill="#FFFFFF" points="242.629,157.111 274.479,188.404 240.502,159.434 		"/>
	</g>
	<g>
		<polygon fill="#FFFFFF" points="106.641,168.956 94.596,191.945 103.772,167.665 		"/>
	</g>
	<g>
		<polygon fill="#FFFFFF" points="216.477,167.665 225.646,191.945 213.604,168.956 		"/>
	</g>
	<g>
		<path fill="#FFFFFF" d="M155.986,67.677c-0.654-0.24-1.122-0.479-1.589-0.726c0.029-0.24,0.006-0.482,0.015-0.722v-1.448v-1.448
			V62.61c0.478-0.246,0.941-0.482,1.574-0.726c0.63,0.243,1.098,0.479,1.574,0.726v0.723v1.448v1.448
			c0.006,0.243-0.017,0.482,0.016,0.722C157.108,67.197,156.645,67.437,155.986,67.677z"/>
	</g>
	<g>
		<path fill="#FFFFFF" d="M147.953,61.882c0.67-0.655,1.344-1.122,2.018-1.589c0.671,0.031,1.347,0.006,2.017,0.015h4.034h4.033
			h2.017c0.67,0.477,1.347,0.941,2.017,1.574c-0.67,0.633-1.34,1.098-2.017,1.574h-2.017h-4.033h-4.034
			c-0.67,0.006-1.343-0.016-2.017,0.015C149.3,63.004,148.627,62.537,147.953,61.882z"/>
	</g>
</g>
</svg>
