<?xml version="1.0" encoding="utf-8"?>
<!-- Generator: Adobe Illustrator 15.0.2, SVG Export Plug-In . SVG Version: 6.00 Build 0)  -->
<!DOCTYPE svg PUBLIC "-//W3C//DTD SVG 1.1//EN" "http://www.w3.org/Graphics/SVG/1.1/DTD/svg11.dtd">
<svg version="1.1" id="Layer_1" xmlns="http://www.w3.org/2000/svg" xmlns:xlink="http://www.w3.org/1999/xlink" x="0px" y="0px"
	 width="154.667px" height="200px" viewBox="0 0 154.667 200" enable-background="new 0 0 154.667 200" xml:space="preserve">
<g>
	<g>
		<g>
			<path fill="#FFFFFF" d="M1.7,18.292c0.011,0.08,0.027,0.163,0.038,0.245c0.046-0.207,0.084-0.415,0.125-0.622
				c0.092-0.069,0.179-0.139,0.272-0.208c0.675-0.183,1.354-0.363,2.035-0.547c0.177-0.003,0.354-0.005,0.531-0.008
				c-0.046,0.207-0.087,0.412-0.128,0.622c-0.09,0.07-0.179,0.139-0.271,0.208c-0.681,0.181-1.358,0.365-2.036,0.547
				c-0.098-0.012-0.196-0.023-0.293-0.034c1.216,0.713,4.919-1.011,3.194-2.028c-1.562-0.919-5.675,0.33-4.163,2.546
				c1.175,1.722,5.917-0.119,4.435-2.342C4.638,15.47,0.726,16.829,1.7,18.292z"/>
		</g>
	</g>
	<g>
		<g>
			<path fill="#FFFFFF" d="M7.829,24.099c0.011,0.085,0.024,0.171,0.038,0.261c0.046-0.194,0.093-0.393,0.139-0.588
				c0.087-0.061,0.18-0.122,0.267-0.186c0.681-0.181,1.361-0.363,2.038-0.547c0.171-0.022,0.348-0.045,0.52-0.067
				c-0.043,0.196-0.087,0.394-0.136,0.588c-0.093,0.064-0.177,0.128-0.272,0.193c-0.68,0.181-1.355,0.364-2.035,0.545
				c-0.095-0.002-0.19-0.008-0.289-0.011c1.148,0.676,4.873-0.986,3.21-1.965c-1.556-0.914-5.561,0.298-4.185,2.51
				c0.653,1.056,2.905,0.39,3.662-0.03c0.941-0.524,1.437-1.34,0.789-2.291C10.797,21.379,6.885,22.724,7.829,24.099z"/>
		</g>
	</g>
	<g>
		<g>
			<path fill="#FFFFFF" d="M13.858,29.884c0.051,0.081,0.106,0.164,0.158,0.246c-0.068-0.249-0.133-0.5-0.199-0.747
				c0,0.041,0.005,0.08,0.005,0.12c0.348-0.323,0.691-0.646,1.034-0.97c-0.076,0.042-0.155,0.087-0.229,0.127
				c0.527-0.091,1.061-0.18,1.591-0.276c0.205,0.093,0.411,0.185,0.618,0.276c-0.03,0.263-0.057,0.524-0.087,0.784
				c0.043-0.082,0.082-0.162,0.128-0.242c-0.346,0.323-0.691,0.646-1.034,0.969c0.073-0.045,0.155-0.089,0.234-0.131
				c-0.525,0.092-1.062,0.184-1.594,0.276c-0.112-0.05-0.221-0.101-0.33-0.151c0.9,0.524,2.068,0.39,2.9-0.236
				c0.634-0.479,1.099-1.597,0.204-2.117c-1.021-0.597-2.147-0.658-3.208-0.062c-1.126,0.633-1.627,1.741-0.892,2.868
				c1.36,2.098,5.996-0.051,4.396-2.525C16.543,26.536,12.702,28.092,13.858,29.884z"/>
		</g>
	</g>
	<g>
		<g>
			<path fill="#FFFFFF" d="M33.76,17.206c-1.328-1.973-5.161-0.608-4.807,1.78c0.188,1.276,2.135,1.346,3.044,1.102
				c1.224-0.328,2.122-1.264,1.926-2.555c-0.261-1.769-4.309-0.769-4.035,1.084c0.014,0.098,0.03,0.195,0.046,0.293
				c0.033-0.245,0.065-0.487,0.098-0.732c0.098-0.084,0.196-0.167,0.294-0.249c0.506-0.184,1.012-0.365,1.519-0.548
				c-0.09,0.008-0.174,0.017-0.267,0.024c0.457,0.093,0.915,0.184,1.366,0.279c0-0.021,0-0.048,0-0.069
				c-0.033,0.245-0.065,0.49-0.098,0.735c-0.098,0.082-0.196,0.162-0.291,0.244c-0.509,0.183-1.015,0.364-1.521,0.548
				c0.092-0.009,0.18-0.017,0.272-0.025c-0.457-0.093-0.908-0.185-1.366-0.279c0.038,0.037,0.076,0.073,0.114,0.112
				C31.023,20.382,34.89,18.882,33.76,17.206z"/>
		</g>
	</g>
	<g>
		<g>
			<path fill="#FFFFFF" d="M30.688,9.387c-1.273-1.747-5.14-0.513-4.843,1.736c0.161,1.223,2.198,1.122,2.993,0.909
				c1.156-0.31,2.152-1.103,2.002-2.368c-0.177-1.496-4.236-0.561-4.034,1.084c-0.025,0.078-0.046,0.155-0.071,0.234
				c0.256-0.305,0.506-0.611,0.753-0.914c-0.068,0.056-0.147,0.108-0.22,0.162c0.512-0.176,1.015-0.353,1.523-0.527
				c-0.086,0.006-0.174,0.014-0.264,0.022c0.449,0.062,0.895,0.125,1.341,0.189c-0.033,0.117-0.065,0.233-0.098,0.354
				c-0.631,0.271-1.26,0.542-1.889,0.813c0.087-0.005,0.177-0.014,0.272-0.021c-0.449-0.062-0.895-0.125-1.338-0.187
				c0.049,0.053,0.092,0.104,0.147,0.155C27.834,12.232,31.73,10.823,30.688,9.387z"/>
		</g>
	</g>
	<g>
		<g>
			<path fill="#FFFFFF" d="M27.623,1.606c-1.417-2.065-5.197-0.702-4.797,1.816c0.207,1.307,2.101,1.504,3.077,1.243
				c1.29-0.345,2.089-1.385,1.896-2.695c-0.291-1.941-4.333-0.919-4.037,1.084c0.014,0.098,0.03,0.195,0.046,0.292
				c0.03-0.266,0.057-0.535,0.079-0.802c0.093-0.098,0.188-0.195,0.281-0.29c0.511-0.187,1.012-0.375,1.518-0.562
				c0.378,0.12,0.756,0.239,1.132,0.359c-0.028,0.267-0.055,0.532-0.077,0.803c-0.095,0.097-0.188,0.194-0.283,0.292
				c-0.506,0.187-1.012,0.375-1.513,0.562c-0.337-0.097-0.669-0.194-1.007-0.289C25.019,4.988,28.85,3.392,27.623,1.606z"/>
		</g>
	</g>
	<g>
		<path fill="#FFFFFF" d="M135.214,191.573c-4.207,2.683-8.895,4.881-13.748,6.22c-4.865,1.359-9.959,1.896-14.967,1.458
			c-10.037-0.784-19.576-5.746-25.84-13.407c6.627,7.365,16.225,11.709,25.924,12.014c4.85,0.191,9.699-0.553,14.278-2.066
			c4.599-1.523,8.854-3.754,12.837-6.561L135.214,191.573z"/>
	</g>
	<g>
		<path fill="#FFFFFF" d="M44.121,121.542c-1.981-3.146-2.952-7.021-2.838-10.683c0.095-3.696,1.102-7.264,2.636-10.506
			c3.113-6.505,8.268-11.756,14.197-15.501c-5.673,4.121-10.372,9.655-12.916,16.059c-1.265,3.187-1.964,6.592-1.828,9.933
			c0.144,3.354,1.162,6.524,3.112,9.221L44.121,121.542z"/>
	</g>
	<g>
		<g>
			<path fill="#FFFFFF" d="M43.762,120.984c3.678,5.611,8.88,8.115,14.833,10.798c8.178,3.685,11.008,10.165,10.262,18.876
				c-0.452,5.328-1.447,10.302-0.702,15.672c1.153,8.314,6.96,15.422,12.401,21.418c1.208,1.333,3.172-0.637,1.969-1.971
				c-6.132-6.762-11.59-14.176-11.977-23.596c-0.223-5.422,1.372-10.746,1.254-16.182c-0.359-16.768-18.167-15.037-25.64-26.436
				C45.182,118.084,42.771,119.477,43.762,120.984L43.762,120.984z"/>
		</g>
	</g>
	<g>
		<path fill="#FFFFFF" d="M132.791,189.846c4.103-2.643,7.758-5.748,10.894-9.449c3.118-3.676,5.626-7.896,7.271-12.461
			c3.352-9.105,2.92-19.633-1.422-28.528c4.758,8.674,5.774,19.377,2.738,28.968c-1.475,4.807-3.887,9.329-6.963,13.328
			c-3.061,3.999-6.854,7.516-10.915,10.415L132.791,189.846z"/>
	</g>
	<g>
		<path fill="#FFFFFF" d="M101.332,83.067c-3.356-5.5-9.881-8.458-16.487-8.687c-6.649-0.301-13.383,1.769-19.132,5.363
			c5.496-3.973,12.163-6.585,19.148-6.753c3.478-0.079,7.031,0.458,10.323,1.854c3.275,1.361,6.312,3.69,8.413,6.595L101.332,83.067
			z"/>
	</g>
	<g>
		<g>
			<path fill="#FFFFFF" d="M100.902,82.432c4.944,7.267,2.932,15.288,5.001,23.307c1.377,5.327,6.323,9.18,11.248,11.047
				c4.974,1.891,10.306,2.593,15.171,4.794c8.135,3.679,12.824,12.009,16.536,19.676c0.776,1.621,3.183,0.207,2.405-1.402
				c-6.024-12.465-13.332-20.318-26.78-23.742c-8.481-2.159-15.672-5.844-16.69-15.562c-0.752-7.164-0.239-13.299-4.479-19.525
				C102.307,79.551,99.893,80.944,100.902,82.432L100.902,82.432z"/>
		</g>
	</g>
	<g>
		<polygon fill="#FFFFFF" points="21.305,26.285 59.866,85.937 18.992,27.842 		"/>
	</g>
	<g>
		<polygon fill="#FFFFFF" points="28.876,21.18 67.432,80.83 26.567,22.738 		"/>
	</g>
	<g>
		<polygon fill="#FFFFFF" points="21.792,4.011 4.98,13.678 20.233,1.701 		"/>
	</g>
	<g>
		<polygon fill="#FFFFFF" points="7.029,11.585 20.611,27.756 5.019,13.516 		"/>
	</g>
	<g>
		<polygon fill="#FFFFFF" points="21.291,3.549 28.319,22.853 18.745,4.677 		"/>
	</g>
</g>
</svg>
