<?xml version="1.0" encoding="utf-8"?>
<!-- Generator: Adobe Illustrator 15.0.2, SVG Export Plug-In . SVG Version: 6.00 Build 0)  -->
<!DOCTYPE svg PUBLIC "-//W3C//DTD SVG 1.1//EN" "http://www.w3.org/Graphics/SVG/1.1/DTD/svg11.dtd">
<svg version="1.1" id="Layer_1" xmlns="http://www.w3.org/2000/svg" xmlns:xlink="http://www.w3.org/1999/xlink" x="0px" y="0px"
	 width="200.201px" height="200px" viewBox="0 0 200.201 200" enable-background="new 0 0 200.201 200" xml:space="preserve">
<g>
	<g>
		<g>
			<g>
				<path fill="#FFFFFF" d="M0.75,76.654l15.64,15.035l15.514,15.163c10.326,10.123,20.552,20.349,30.829,30.521
					c10.18,10.271,20.419,20.481,30.551,30.801l15.177,15.498l15.054,15.622l-0.07,0.07L0.68,76.724L0.75,76.654z"/>
				<path fill="#FFFFFF" d="M1.103,76.299l15.61,15.05l15.495,15.187c10.315,10.142,20.525,20.381,30.792,30.571
					c10.166,10.285,20.391,20.512,30.51,30.848l15.156,15.522l15.029,15.642l0.171,0.178l-0.174,0.173l-0.07,0.07l-0.177,0.177
					l-0.177-0.177L0.68,76.724l0,0l0,0l0.07-0.07L1.103,76.299z M0.75,76.654l-0.07,0.07l0,0l122.941,122.462h-0.354l0.07-0.07
					l-0.003,0.351l-15.075-15.599l-15.198-15.476c-10.145-10.302-20.399-20.499-30.595-30.756
					c-10.29-10.155-20.532-20.368-30.871-30.475L16.063,92.025L0.403,77.014L0.75,76.654z"/>
			</g>
		</g>
	</g>
	<g>
		<g>
			<path fill="#FFFFFF" d="M199.502,123.344l-15.629-15.057L168.37,93.105c-10.318-10.138-20.537-20.376-30.807-30.563
				c-10.174-10.284-20.405-20.508-30.529-30.841L91.869,16.182L76.827,0.539l0.07-0.07l122.676,122.805L199.502,123.344z"/>
			<path fill="#FFFFFF" d="M199.146,123.694l-15.596-15.067l-15.484-15.208c-10.307-10.156-20.51-20.408-30.769-30.614
				c-10.158-10.298-20.376-20.538-30.487-30.888L91.665,16.375L76.647,0.712l-0.169-0.177l0.172-0.173l0.07-0.07l0.177-0.178
				l0.177,0.178l122.5,122.981l0,0l0,0l-0.071,0.07L199.146,123.694z M199.502,123.344l0.071-0.07l0,0L76.72,0.646l0.354,0
				l-0.069,0.07l0.002-0.35l15.063,15.62l15.186,15.496c10.137,10.316,20.385,20.527,30.574,30.797
				c10.281,10.17,20.518,20.396,30.848,30.516l15.522,15.157l15.648,15.032L199.502,123.344z"/>
		</g>
	</g>
	<g>
		<g>
			<g>
				<g>
					<path fill="#FFFFFF" d="M74.639,83.027l-9.611-9.689l-0.32-0.323l0.321-0.317l41.941-41.495l0.178-0.176l0.177,0.178
						l9.583,9.699l0.143,0.144l-0.144,0.142l-41.91,41.486L74.639,83.027z M75.348,82.322l41.27-41.419l-0.001,0.286l-9.649-9.632
						l0.354,0.001l-41.652,41.78v-0.64L75.348,82.322z"/>
					<g>
						<path fill="#FFFFFF" d="M74.283,83.377l-9.896-10.044l-0.319-0.324l0.322-0.316l42.582-41.844l0.179-0.176l0.175,0.178
							l9.868,10.055l0.143,0.145l-0.144,0.141L74.639,83.027L74.283,83.377z M74.993,82.674l41.914-41.77l-0.001,0.286l-9.937-9.987
							l0.354,0.001L65.026,73.337l0.003-0.64L74.993,82.674z"/>
						<path fill="#FFFFFF" d="M74.995,81.969l41.411-41.277l0.518-0.516l-0.005,0.728l-0.002,0.286l-0.005,0.718l-0.505-0.508
							l-9.616-9.665l-0.433-0.435l0.611,0.004l0.354,0.002l0.603,0.004l-0.426,0.424L65.704,73.373l-0.084,0.083l0-0.118l0.002-0.64
							l0-0.112l0.08,0.079L74.995,81.969z M75.704,82.674l-0.356-0.352l-9.712-9.591l0.08-0.033l0.002,0.64l-0.083-0.035
							l41.509-41.922l0.177,0.428h-0.354l0.179-0.43l9.683,9.599l-0.51,0.21v-0.286l0.512,0.212L75.704,82.674z"/>
					</g>
				</g>
			</g>
		</g>
		<g>
			<g>
				<g>
					<path fill="#FFFFFF" d="M57.05,65.438l-9.611-9.689l-0.32-0.323l0.321-0.317l41.94-41.495l0.178-0.176l0.175,0.177l9.583,9.699
						l0.143,0.144L99.315,23.6l-41.91,41.486L57.05,65.438z M57.758,64.732l41.27-41.419l-0.001,0.286l-9.649-9.632l0.354,0.001
						L48.08,55.749v-0.64L57.758,64.732z"/>
					<g>
						<path fill="#FFFFFF" d="M56.693,65.789l-9.896-10.044l-0.319-0.324l0.322-0.316L89.382,13.26l0.179-0.176l0.175,0.178
							l9.866,10.053l0.142,0.145l-0.144,0.142L57.05,65.438L56.693,65.789z M57.404,65.085l41.913-41.771l-0.001,0.287l-9.935-9.987
							l0.354,0.002L47.437,55.748l0.003-0.64L57.404,65.085z"/>
						<path fill="#FFFFFF" d="M57.404,64.378l41.411-41.276l0.517-0.516l-0.005,0.728L99.326,23.6l-0.005,0.718l-0.505-0.508
							L89.2,14.146l-0.432-0.435l0.611,0.004l0.354,0.002l0.603,0.004l-0.426,0.424L48.115,55.784l-0.084,0.083l0-0.118l0.002-0.64
							l0-0.112l0.08,0.079L57.404,64.378z M58.114,65.083l-0.356-0.351l-9.71-9.59l0.08-0.033l0.002,0.64l-0.083-0.035
							l41.509-41.924l0.177,0.428h-0.354l0.179-0.43l9.682,9.599l-0.51,0.21v-0.286l0.512,0.212L58.114,65.083z"/>
					</g>
				</g>
			</g>
		</g>
		<g>
			<g>
				<g>
					<path fill="#FFFFFF" d="M109.819,118.206l-9.611-9.688l-0.32-0.322l0.321-0.317l41.94-41.495l0.178-0.176l0.176,0.178
						l9.583,9.698l0.144,0.144l-0.145,0.142l-41.909,41.486L109.819,118.206z M110.526,117.5l41.271-41.419l-0.001,0.286
						l-9.648-9.631l0.354,0.001l-41.65,41.781v-0.641L110.526,117.5z"/>
					<g>
						<path fill="#FFFFFF" d="M109.463,118.557l-9.896-10.043l-0.319-0.323l0.322-0.316l42.581-41.845l0.179-0.176l0.175,0.178
							l9.868,10.053l0.143,0.145l-0.145,0.142l-42.552,41.835L109.463,118.557z M110.174,117.854l41.914-41.771l-0.002,0.287
							l-9.937-9.987l0.354,0.002l-42.297,42.132l0.003-0.64L110.174,117.854z"/>
						<path fill="#FFFFFF" d="M110.173,117.146l41.411-41.277l0.518-0.516l-0.005,0.728l-0.002,0.286l-0.005,0.718l-0.505-0.508
							l-9.615-9.664l-0.433-0.435l0.611,0.004l0.354,0.002l0.603,0.004l-0.426,0.424l-41.793,41.638l-0.084,0.084v-0.118
							l0.002-0.641l0.001-0.112l0.079,0.079L110.173,117.146z M110.882,117.852l-0.355-0.352l-9.709-9.59l0.08-0.033l0.002,0.641
							l-0.083-0.034l41.507-41.924l0.177,0.428h-0.354l0.179-0.43l9.682,9.598l-0.51,0.21V76.08l0.512,0.213L110.882,117.852z"/>
					</g>
				</g>
			</g>
		</g>
		<g>
			<g>
				<g>
					<path fill="#FFFFFF" d="M127.408,135.796l-9.611-9.688l-0.319-0.323l0.32-0.317l41.939-41.494l0.179-0.176l0.176,0.178
						l9.583,9.698l0.143,0.144l-0.144,0.142l-41.909,41.486L127.408,135.796z M128.116,135.09l41.271-41.419l-0.002,0.286
						l-9.648-9.631l0.354,0.001l-41.65,41.78v-0.641L128.116,135.09z"/>
					<g>
						<path fill="#FFFFFF" d="M127.052,136.146l-9.896-10.044l-0.318-0.323l0.321-0.316l42.581-41.844l0.179-0.176l0.175,0.178
							l9.867,10.053l0.143,0.145l-0.144,0.141l-42.552,41.835L127.052,136.146z M127.763,135.443l41.912-41.77l-0.001,0.286
							l-9.936-9.986l0.354,0.002l-42.296,42.13l0.004-0.639L127.763,135.443z"/>
						<path fill="#FFFFFF" d="M127.763,134.736l41.412-41.277l0.521-0.518l-0.008,0.731l-0.003,0.286l-0.008,0.715l-0.502-0.505
							l-9.615-9.664l-0.433-0.435l0.611,0.004l0.354,0.002l0.603,0.004l-0.426,0.424l-41.793,41.637l-0.084,0.084v-0.118
							l0.002-0.641l0.001-0.112l0.079,0.079L127.763,134.736z M128.472,135.441l-0.355-0.352l-9.709-9.59l0.08-0.033l0.002,0.641
							l-0.083-0.034l41.507-41.923l0.177,0.428h-0.354l0.179-0.43l9.682,9.598l-0.51,0.209l0.001-0.286l0.512,0.214L128.472,135.441
							z"/>
					</g>
				</g>
			</g>
		</g>
		<g>
			<g>
				<g>
					<path fill="#FFFFFF" d="M144.998,153.385l-9.612-9.688l-0.318-0.323l0.32-0.317l41.938-41.494l0.179-0.177l0.176,0.179
						l9.584,9.699l0.143,0.145l-0.145,0.142l-41.908,41.485L144.998,153.385z M145.706,152.68l41.27-41.419v0.286l-9.648-9.633
						l0.354,0.001l-41.652,41.78l0.002-0.639L145.706,152.68z"/>
					<g>
						<path fill="#FFFFFF" d="M144.642,153.735l-9.896-10.044l-0.317-0.322l0.321-0.316l42.58-41.845l0.179-0.176l0.176,0.179
							l9.867,10.056l0.143,0.145l-0.145,0.142l-42.551,41.832L144.642,153.735z M145.353,153.032l41.913-41.769l-0.002,0.286
							l-9.937-9.988l0.354,0.002l-42.295,42.132l0.004-0.639L145.353,153.032z"/>
						<path fill="#FFFFFF" d="M145.353,152.326l41.41-41.277l0.516-0.513l-0.003,0.725l-0.001,0.286l-0.003,0.722l-0.507-0.511
							l-9.615-9.665l-0.433-0.435l0.611,0.004l0.354,0.002l0.603,0.004l-0.426,0.424l-41.795,41.638l-0.085,0.084l0.001-0.118
							l0.004-0.639l0.001-0.112l0.079,0.079L145.353,152.326z M146.062,153.031l-0.355-0.352l-9.709-9.59l0.08-0.033v0.639
							l-0.083-0.034l41.509-41.923l0.177,0.428h-0.354l0.179-0.431l9.682,9.6l-0.51,0.212l-0.001-0.286l0.512,0.212L146.062,153.031
							z"/>
					</g>
				</g>
			</g>
		</g>
		<g>
			<g>
				<g>
					<polygon fill="#FFFFFF" points="129.799,54.038 53.614,129.598 129.092,53.331 					"/>
					<path fill="#FFFFFF" d="M130.151,54.393L130.151,54.393l-76.361,75.384l-0.355-0.355L129.09,53.33l0.002-0.002l0.002,0.002
						l0.705,0.708L130.151,54.393z M129.444,53.686l-0.354-0.353h0.004l-75.301,76.441l-0.355-0.355L129.444,53.686z"/>
				</g>
			</g>
		</g>
		<g>
			<g>
				<path fill="#FFFFFF" d="M199.586,123.411l-9.211,9.81l-9.336,9.684c-6.241,6.438-12.583,12.777-18.872,19.168
					c-6.387,6.293-12.715,12.646-19.15,18.89l-9.672,9.349l-9.799,9.223l-0.07-0.07l76.041-76.12L199.586,123.411z"/>
				<path fill="#FFFFFF" d="M199.941,123.763l-9.222,9.775l-9.363,9.667c-6.261,6.43-12.615,12.752-18.926,19.134
					c-6.401,6.278-12.746,12.617-19.2,18.851l-9.696,9.329l-9.816,9.196l-0.178,0.167l-0.171-0.172l-0.07-0.07l-0.177-0.178
					l0.177-0.176l76.218-75.943l0,0l0,0l0.069,0.068L199.941,123.763z M199.586,123.411l-0.069-0.068l0,0l-75.864,76.297v-0.354
					l0.07,0.07l-0.349-0.006l9.774-9.242l9.647-9.368c6.419-6.257,12.733-12.625,19.107-18.935
					c6.271-6.401,12.601-12.759,18.823-19.208l9.31-9.701l9.186-9.827L199.586,123.411z"/>
			</g>
		</g>
		<g>
			<g>
				<g>
					<path fill="#FFFFFF" d="M76.725,0.548l-9.21,9.809l-9.337,9.683c-6.241,6.439-12.582,12.778-18.872,19.168
						c-6.387,6.293-12.715,12.646-19.15,18.89l-9.673,9.347l-9.798,9.223l-0.07-0.07l76.04-76.121L76.725,0.548z"/>
					<path fill="#FFFFFF" d="M77.077,0.904l-9.217,9.771l-9.364,9.666c-6.261,6.429-12.615,12.752-18.926,19.134
						c-6.401,6.278-12.745,12.617-19.199,18.851l-9.697,9.327L0.856,76.85l-0.177,0.167l-0.171-0.172l-0.069-0.07l-0.177-0.177
						l0.177-0.176L76.654,0.477l0,0l0,0l0.07,0.071L77.077,0.904z M76.725,0.548l-0.07-0.07l0,0L0.792,76.775v-0.354l0.07,0.07
						l-0.348-0.005l9.773-9.243l9.649-9.367c6.417-6.256,12.732-12.625,19.106-18.935c6.271-6.4,12.601-12.758,18.823-19.208
						l9.31-9.701l9.185-9.828L76.725,0.548z"/>
				</g>
			</g>
		</g>
		<g>
			<g>
				<g>
					<polygon fill="#FFFFFF" points="70.537,78.217 36.156,111.928 69.83,77.51 					"/>
					<path fill="#FFFFFF" d="M70.889,78.572l-0.001,0.001l-34.555,33.535l-0.357-0.357l33.851-34.245l0.004-0.004l0.004,0.004
						l0.703,0.71L70.889,78.572z M70.182,77.865l-0.355-0.352h0.007l-33.497,34.591l-0.357-0.357L70.182,77.865z"/>
				</g>
			</g>
		</g>
		<g>
			<g>
				<g>
					<polygon fill="#FFFFFF" points="105.715,113.396 71.334,147.105 105.008,112.689 					"/>
					<path fill="#FFFFFF" d="M106.066,113.752l-0.002,0.002l-34.554,33.532l-0.357-0.357l33.851-34.243l0.004-0.003l0.004,0.003
						l0.703,0.711L106.066,113.752z M105.359,113.045l-0.355-0.352h0.008l-33.497,34.589l-0.357-0.357L105.359,113.045z"/>
				</g>
			</g>
		</g>
		<g>
			<g>
				<g>
					<polygon fill="#FFFFFF" points="123.304,130.986 88.924,164.695 122.597,130.279 					"/>
					<path fill="#FFFFFF" d="M123.655,131.342l-0.002,0.002l-34.553,33.532l-0.357-0.357l33.85-34.243l0.004-0.003l0.004,0.003
						l0.703,0.711L123.655,131.342z M122.948,130.635l-0.355-0.352h0.008l-33.496,34.589l-0.357-0.357L122.948,130.635z"/>
				</g>
			</g>
		</g>
		<g>
			<g>
				<g>
					<polygon fill="#FFFFFF" points="140.894,148.575 106.513,182.285 140.187,147.868 					"/>
					<path fill="#FFFFFF" d="M141.245,148.931l-0.002,0.002l-34.554,33.533l-0.357-0.357l33.851-34.244l0.004-0.003l0.004,0.003
						l0.703,0.711L141.245,148.931z M140.538,148.224l-0.355-0.352h0.008l-33.497,34.59l-0.357-0.357L140.538,148.224z"/>
				</g>
			</g>
		</g>
		<g>
			<g>
				<g>
					<polygon fill="#FFFFFF" points="52.947,60.628 18.566,94.337 52.24,59.921 					"/>
					<path fill="#FFFFFF" d="M53.298,60.983l-0.001,0.001L18.743,94.517l-0.357-0.357l33.851-34.243l0.004-0.004l0.004,0.004
						l0.703,0.71L53.298,60.983z M52.591,60.276l-0.354-0.351h0.007L18.747,94.514l-0.357-0.357L52.591,60.276z"/>
				</g>
			</g>
		</g>
	</g>
</g>
</svg>
