<?xml version="1.0" encoding="utf-8"?>
<!-- Generator: Adobe Illustrator 15.0.2, SVG Export Plug-In . SVG Version: 6.00 Build 0)  -->
<!DOCTYPE svg PUBLIC "-//W3C//DTD SVG 1.1//EN" "http://www.w3.org/Graphics/SVG/1.1/DTD/svg11.dtd">
<svg version="1.1" id="Layer_1" xmlns="http://www.w3.org/2000/svg" xmlns:xlink="http://www.w3.org/1999/xlink" x="0px" y="0px"
	 width="200px" height="200px" viewBox="0 0 200 200" enable-background="new 0 0 200 200" xml:space="preserve">
<g>
	<g>
		<g>
			<path fill="#FFFFFF" d="M189.368,7.532c0.073,0.161-0.203,1.583-0.541,1.99c-0.339,0.556-0.726,0.984-1.115,1.347
				c-0.778,0.72-1.583,1.23-2.396,1.686c-1.619,0.913-3.265,1.562-4.916,2.168c-3.312,1.18-6.662,2.051-10.037,2.796
				c-6.747,1.474-13.564,2.41-20.403,3.03c-6.839,0.594-13.711,0.875-20.589,0.617c-3.439-0.138-6.878-0.403-10.305-0.973
				c-1.713-0.296-3.428-0.647-5.113-1.236c-0.844-0.29-1.689-0.644-2.499-1.161c-0.772-0.494-1.714-1.274-1.888-2.596
				c-0.045-0.498,0.154-1.269,0.436-1.702c0.28-0.457,0.615-0.831,0.966-1.156c0.701-0.647,1.466-1.135,2.241-1.569
				c1.55-0.878,3.166-1.517,4.795-2.111c3.26-1.161,6.588-2.025,9.938-2.766c6.697-1.462,13.485-2.397,20.297-3.014
				c6.811-0.594,13.65-0.872,20.481-0.614c3.414,0.139,6.827,0.403,10.202,0.963c1.682,0.293,3.362,0.639,4.979,1.203
				c0.806,0.277,1.604,0.622,2.326,1.075c0.707,0.447,1.396,1.102,1.5,1.976L189.368,7.532z M187.719,7.482
				c-0.115-0.872-0.811-1.504-1.525-1.929c-0.725-0.443-1.52-0.762-2.332-1.023c-1.614-0.531-3.297-0.84-4.978-1.098
				c-3.368-0.491-6.776-0.686-10.179-0.754c-6.812-0.123-13.622,0.292-20.395,1.019c-6.762,0.752-13.498,1.816-20.1,3.398
				c-3.297,0.799-6.562,1.718-9.712,2.913c-1.56,0.606-3.114,1.263-4.521,2.097c-1.346,0.752-2.867,2.005-2.771,2.938
				c0.104,0.92,1.839,1.8,3.305,2.247c1.543,0.507,3.19,0.814,4.844,1.067c3.312,0.485,6.696,0.676,10.071,0.746
				c6.763,0.119,13.548-0.293,20.287-1.016c6.733-0.749,13.44-1.81,19.996-3.379c3.272-0.792,6.519-1.711,9.616-2.885
				c1.531-0.594,3.059-1.239,4.392-2.039c1.327-0.731,2.591-1.895,2.351-2.347L187.719,7.482z"/>
		</g>
		<g>
			<path fill="#FFFFFF" d="M189.078,162.098c-0.021,0.191,0.014,0.129-0.059,0.586c-0.064,0.393-0.18,0.649-0.276,0.842
				c-0.212,0.451-0.476,0.761-0.734,1.051c-0.521,0.549-1.052,0.904-1.579,1.236c-1.055,0.642-2.104,1.088-3.156,1.481
				c-2.109,0.779-4.229,1.332-6.359,1.79c-4.262,0.908-8.553,1.43-12.854,1.727c-4.297,0.282-8.612,0.34-12.901,0.02
				c-2.146-0.168-4.289-0.432-6.394-0.896c-1.049-0.238-2.096-0.527-3.082-0.959c-0.933-0.432-2.084-1.019-2.236-2.145
				c0.222,1.102,1.371,1.584,2.312,1.955c0.995,0.355,2.041,0.574,3.089,0.75c2.094,0.328,4.221,0.449,6.342,0.479
				c4.252,0.049,8.502-0.287,12.707-0.83c4.201-0.563,8.381-1.353,12.424-2.49c2.014-0.572,4.008-1.235,5.857-2.061
				c0.924-0.412,1.82-0.876,2.562-1.404c0.778-0.515,1.229-1.168,1.034-1.179L189.078,162.098z"/>
		</g>
		<g>
			<path fill="#FFFFFF" d="M111.202,19.002c0.458-0.25,0.333-0.243,0.394-0.277c0.014-0.016,0,0-0.021,0.031
				c-0.035,0.062-0.094,0.172-0.139,0.299c-0.097,0.257-0.188,0.581-0.259,0.915c-0.147,0.674-0.243,1.413-0.308,2.162
				c-0.133,1.504-0.148,3.058-0.127,4.616c0.055,3.124,0.3,6.273,0.609,9.417c0.633,6.298,1.563,12.59,2.602,18.862
				c2.096,12.547,4.65,25.033,7.375,37.485c5.477,24.894,11.672,49.645,18.131,74.317c-6.982-24.528-13.714-49.144-19.736-73.945
				c-2.994-12.409-5.828-24.859-8.201-37.426c-1.174-6.284-2.25-12.596-3.029-18.977c-0.387-3.193-0.702-6.396-0.83-9.652
				c-0.059-1.627-0.08-3.264,0.027-4.943c0.056-0.84,0.143-1.687,0.312-2.575c0.09-0.444,0.199-0.9,0.374-1.391
				c0.089-0.248,0.192-0.501,0.349-0.789c0.08-0.142,0.174-0.293,0.314-0.468c0.184-0.184,0.195-0.335,0.831-0.672L111.202,19.002z"
				/>
		</g>
		<g>
			<path fill="#FFFFFF" d="M188.421,7.908c0.703,0.207,0.744,0.352,0.968,0.5c0.166,0.145,0.288,0.277,0.398,0.406
				c0.209,0.254,0.359,0.485,0.492,0.713c0.268,0.452,0.453,0.876,0.621,1.303c0.339,0.84,0.58,1.658,0.791,2.476
				c0.42,1.632,0.703,3.245,0.943,4.86c0.479,3.228,0.758,6.44,0.977,9.655c0.412,6.423,0.531,12.837,0.539,19.24
				c0,12.811-0.467,25.596-1.104,38.361c-1.308,25.539-3.336,51.018-5.639,76.462c1.754-25.483,3.235-51,3.989-76.528
				c0.363-12.759,0.552-25.527,0.279-38.269c-0.145-6.366-0.402-12.734-0.943-19.048c-0.276-3.156-0.623-6.302-1.151-9.384
				c-0.269-1.541-0.569-3.067-0.979-4.521c-0.205-0.726-0.437-1.435-0.701-2.07c-0.135-0.318-0.283-0.622-0.426-0.849
				c-0.074-0.115-0.147-0.214-0.192-0.267c-0.022-0.023-0.039-0.036-0.022-0.02c0.067,0.02-0.056,0.043,0.453,0.201L188.421,7.908z"
				/>
		</g>
	</g>
	<g>
		<g>
			<g>
				<path fill="#FFFFFF" d="M99.036,42.322c-0.686-0.302-1.173-0.606-1.665-0.906c0.032-0.302,0.006-0.604,0.016-0.907v-1.814
					v-1.813v-0.907c0.5-0.304,0.985-0.607,1.648-0.908c0.664,0.304,1.148,0.607,1.648,0.908v0.907v1.813v1.814
					c0.008,0.303-0.017,0.605,0.017,0.907C100.209,41.718,99.725,42.022,99.036,42.322z"/>
			</g>
			<g>
				<path fill="#FFFFFF" d="M88.978,35.064c0.842-0.686,1.683-1.173,2.526-1.665l2.526,0.016h5.048h5.047h2.523
					c0.845,0.502,1.683,0.987,2.524,1.649c-0.837,0.663-1.681,1.147-2.524,1.648h-2.523h-5.047H94.03l-2.526,0.018
					C90.664,36.239,89.823,35.753,88.978,35.064z"/>
			</g>
		</g>
		<g>
			<polygon fill="#FFFFFF" points="100.686,38.846 99.036,171.027 97.387,38.846 			"/>
		</g>
		<g>
			<polygon fill="#FFFFFF" points="100.15,168.825 64.567,199.176 97.921,166.393 			"/>
		</g>
		<g>
			<polygon fill="#FFFFFF" points="100.15,166.393 133.509,199.176 97.921,168.825 			"/>
		</g>
	</g>
	<g>
		<g>
			<path fill="#FFFFFF" d="M89.282,14.284c-0.056,0.199-0.04,0.337-0.304,0.913c-0.246,0.531-0.435,0.657-0.675,0.963
				c-0.455,0.443-0.93,0.778-1.378,1.022c-0.911,0.498-1.792,0.814-2.661,1.062c-1.743,0.501-3.452,0.777-5.161,0.999
				c-3.416,0.421-6.802,0.55-10.187,0.573c-6.766,0.021-13.479-0.46-20.176-1.23c-6.667-0.787-13.325-1.873-19.877-3.439
				c-3.277-0.793-6.532-1.697-9.724-2.878c-1.593-0.599-3.172-1.25-4.699-2.103c-0.762-0.421-1.511-0.906-2.213-1.529
				c-0.655-0.604-1.486-1.452-1.431-2.828c0.03-0.5,0.43-1.246,0.789-1.585c0.378-0.363,0.784-0.656,1.193-0.873
				c0.821-0.449,1.652-0.752,2.489-0.99c1.673-0.481,3.354-0.755,5.037-0.973c3.363-0.412,6.73-0.543,10.09-0.563
				c6.719-0.02,13.414,0.459,20.071,1.224c6.648,0.787,13.272,1.866,19.785,3.423c3.254,0.787,6.485,1.688,9.628,2.848
				c1.566,0.591,3.119,1.23,4.584,2.051c0.731,0.405,1.438,0.868,2.064,1.425c0.613,0.544,1.209,1.269,1.154,2.133L89.282,14.284z
				 M87.671,13.929c0.038-0.868-0.566-1.57-1.186-2.098c-0.633-0.537-1.344-0.985-2.08-1.371c-1.472-0.788-3.03-1.392-4.603-1.949
				c-3.153-1.091-6.391-1.922-9.649-2.639c-6.526-1.417-13.14-2.357-19.784-3.006c-6.637-0.625-13.311-0.963-19.961-0.805
				c-3.325,0.089-6.648,0.283-9.912,0.755c-1.626,0.243-3.249,0.548-4.782,1.023c-0.765,0.23-1.507,0.528-2.143,0.893
				c-0.327,0.177-0.591,0.395-0.815,0.611c-0.198,0.28-0.248,0.273-0.317,0.613c-0.066,0.824,1.523,1.995,2.85,2.674
				c1.407,0.75,2.941,1.348,4.484,1.895c3.103,1.075,6.321,1.899,9.553,2.611c6.482,1.412,13.067,2.344,19.689,2.991
				c6.601,0.62,13.255,0.959,19.86,0.8c3.297-0.089,6.598-0.287,9.813-0.751c1.599-0.24,3.191-0.537,4.655-0.995
				c1.402-0.384,2.965-1.293,2.727-1.612L87.671,13.929z"/>
		</g>
		<g>
			<path fill="#FFFFFF" d="M62.18,157.379c0.047,0.01-0.336,1.12-0.636,1.371c-0.312,0.383-0.636,0.635-0.95,0.848
				c-0.624,0.408-1.207,0.631-1.784,0.827c-1.144,0.386-2.241,0.577-3.333,0.737c-2.183,0.296-4.326,0.38-6.459,0.38
				c-4.27-0.017-8.488-0.386-12.68-0.966c-4.174-0.592-8.328-1.396-12.387-2.543c-2.029-0.574-4.036-1.236-5.972-2.088
				c-0.963-0.426-1.916-0.891-2.793-1.487c-0.818-0.579-1.847-1.327-1.806-2.44c0.035,1.103,1.078,1.746,1.916,2.268
				c0.896,0.521,1.863,0.924,2.838,1.281c1.959,0.709,3.98,1.23,6.015,1.672c4.079,0.865,8.216,1.391,12.372,1.709
				c4.138,0.297,8.313,0.383,12.421,0.129c2.051-0.135,4.094-0.354,6.047-0.76c0.966-0.199,1.932-0.445,2.753-0.785
				c0.863-0.307,1.45-0.896,1.206-0.818L62.18,157.379z"/>
		</g>
		<g>
			<path fill="#FFFFFF" d="M11.916,9.783c0.708-0.25,0.385-0.211,0.441-0.187c-0.04,0.038-0.105,0.124-0.171,0.227
				c-0.135,0.208-0.273,0.481-0.402,0.774c-0.257,0.588-0.478,1.252-0.673,1.929c-0.39,1.366-0.68,2.803-0.927,4.254
				c-0.491,2.905-0.81,5.88-1.062,8.857C8.634,31.602,8.43,37.614,8.335,43.628C8.162,55.66,8.442,67.719,8.895,79.767
				c0.93,24.103,2.578,48.182,4.488,72.247c-2.46-24.012-4.656-48.058-6.136-72.167C6.52,67.792,5.96,55.72,5.862,43.618
				C5.818,37.567,5.884,31.505,6.243,25.43c0.188-3.037,0.438-6.08,0.888-9.137c0.227-1.527,0.497-3.056,0.899-4.606
				c0.205-0.775,0.438-1.554,0.765-2.358c0.166-0.402,0.353-0.811,0.617-1.24C9.547,7.87,9.695,7.646,9.909,7.403
				c0.311-0.251,0.264-0.493,1.34-0.855L11.916,9.783z"/>
		</g>
		<g>
			<path fill="#FFFFFF" d="M88.546,14.518c0.959,0.551,0.875,0.771,1.129,1.073c0.161,0.273,0.271,0.52,0.362,0.755
				c0.177,0.472,0.29,0.904,0.382,1.326c0.182,0.845,0.271,1.648,0.336,2.447c0.122,1.589,0.116,3.142,0.069,4.682
				c-0.102,3.08-0.388,6.11-0.745,9.124c-0.722,6.028-1.728,11.985-2.842,17.918c-2.246,11.86-4.94,23.609-7.791,35.307
				c-5.741,23.396-12.178,46.601-18.869,69.724c6.161-23.271,12.066-46.61,17.258-70.095c2.583-11.746,5.002-23.526,6.965-35.369
				c0.973-5.918,1.835-11.856,2.407-17.792c0.28-2.968,0.491-5.941,0.521-8.879c0.01-1.467-0.02-2.932-0.161-4.336
				c-0.069-0.699-0.169-1.391-0.317-2.014c-0.072-0.311-0.165-0.604-0.259-0.835c-0.047-0.115-0.1-0.211-0.128-0.259
				c0.054-0.013-0.251-0.123,0.375,0.25L88.546,14.518z"/>
		</g>
	</g>
</g>
</svg>
