<?xml version="1.0" encoding="utf-8"?>
<!-- Generator: Adobe Illustrator 15.0.2, SVG Export Plug-In . SVG Version: 6.00 Build 0)  -->
<!DOCTYPE svg PUBLIC "-//W3C//DTD SVG 1.1//EN" "http://www.w3.org/Graphics/SVG/1.1/DTD/svg11.dtd">
<svg version="1.1" id="Layer_1" xmlns="http://www.w3.org/2000/svg" xmlns:xlink="http://www.w3.org/1999/xlink" x="0px" y="0px"
	 width="137px" height="200px" viewBox="0 0 137 200" enable-background="new 0 0 137 200" xml:space="preserve">
<g>
	<path fill="none" stroke="#FFFFFF" stroke-width="1.5" stroke-miterlimit="10" d="M99.278,108.905
		c-4.207-6.165-8.417-12.327-12.683-18.454l-6.366-9.211l-6.29-9.261c-4.162-6.196-8.285-12.417-12.348-18.678
		c-4.081-6.247-7.802-12.586-11.938-18.788l0,0c-1.599,4.559-4.533,8.641-8.383,11.57c-3.839,2.933-8.548,4.74-13.397,5.045l0,0
		c6.444,7.431,13.17,14.372,19.583,21.845c6.435,7.458,12.853,14.93,19.203,22.461c6.376,7.506,12.692,15.064,18.933,22.687
		c1.494,1.922,3.31,3.613,5.476,4.69c0.54,0.258,1.107,0.471,1.682,0.546c0.286,0.034,0.575,0.03,0.842-0.038
		c0.285-0.089,0.594-0.17,0.871-0.271c1.145-0.394,2.247-0.942,3.248-1.634c1.008-0.686,1.911-1.521,2.687-2.47
		c0.391-0.47,0.741-0.976,1.066-1.483c0.306-0.512,0.356-1.139,0.339-1.739c-0.056-1.218-0.396-2.413-0.834-3.553
		C100.524,111.024,99.956,109.928,99.278,108.905z"/>
</g>
<g>
	<g>
		<path fill="#FFFFFF" d="M135.454,198.726c-12.585-0.795-25.538-1.878-35.032-11.06c-9.02-8.719-5.277-20.289-1.28-30.059
			c4.25-10.395,15.65-29.867,0.709-36.489c-0.674-0.3-3.327,0.765-2.371,1.187c18.017,7.987-4.524,38.158-5.812,51.167
			c-2.154,21.885,26.959,25.582,41.921,26.527C134.27,200.04,136.946,198.818,135.454,198.726L135.454,198.726z"/>
	</g>
</g>
<g>
	<path fill="#FFFFFF" d="M0.752,24.61c0.007,3.164,0.652,6.327,1.946,9.2c1.287,2.873,3.142,5.469,5.409,7.602
		c4.529,4.276,10.607,6.76,16.801,6.809c6.169,0.137,12.493-2.196,16.95-6.66c4.53-4.375,7.035-10.711,6.871-16.95
		c-0.115-6.252-2.776-12.323-7.186-16.636c-4.385-4.343-10.499-6.807-16.625-6.823C18.745,1.128,12.661,3.559,8.124,7.825
		c-2.272,2.124-4.127,4.719-5.414,7.59C1.424,18.291,0.797,21.451,0.752,24.61z M0.602,24.611C0.534,18.248,2.98,11.851,7.425,7.127
		c2.207-2.375,4.943-4.262,7.935-5.568c2.989-1.32,6.292-1.933,9.538-1.954c3.288-0.002,6.564,0.603,9.584,1.892
		c3.017,1.276,5.77,3.154,8.059,5.48c4.617,4.633,7.192,11.174,7.009,17.633c-0.047,3.229-0.774,6.418-2.007,9.375
		c-1.251,2.955-3.086,5.643-5.317,7.942c-2.256,2.275-4.933,4.148-7.883,5.46c-2.953,1.303-6.182,2.023-9.435,2.076
		c-3.246,0.007-6.531-0.558-9.523-1.862c-2.99-1.288-5.737-3.152-7.943-5.525C2.963,37.373,0.592,30.961,0.602,24.611z"/>
</g>
</svg>
