<?xml version="1.0" encoding="utf-8"?>
<!-- Generator: Adobe Illustrator 23.0.6, SVG Export Plug-In . SVG Version: 6.00 Build 0)  -->
<svg version="1.1" id="Layer_1" xmlns="http://www.w3.org/2000/svg" xmlns:xlink="http://www.w3.org/1999/xlink" x="0px" y="0px"
	 viewBox="0 0 400 400" style="enable-background:new 0 0 400 400;" xml:space="preserve">
<style type="text/css">
	.st0{fill:#23201B;}
	.st1{fill:#312826;}
	.st2{fill:#CABBA8;}
	.st3{fill:#E0D2BC;}
	.st4{fill:#D0C1AD;}
	.st5{opacity:0.28;fill:#312826;}
	.st6{fill:#F26805;}
</style>
<path class="st0" d="M1200.53,1394.41c0.74,4.28,1.69,8.53,2.97,12.71C1202.21,1402.94,1201.27,1398.69,1200.53,1394.41z"/>
<path class="st0" d="M1164.89-934.06c157.37,0,291.5-85.9,342.91-206.35l-4.93-2.15L822-1140.37
	C873.41-1019.94,1007.53-934.06,1164.89-934.06z"/>
<path class="st1" d="M1164.89-934.06c157.37,0,291.5-85.9,342.91-206.35l-4.93-2.15L822-1140.37
	C873.41-1019.94,1007.53-934.06,1164.89-934.06z"/>
<g>
	<path class="st2" d="M1233.44-1061.08c-1.03-1.84-1.38-3.76-1.24-5.74c0.05-0.66,0.15-1.33,0.29-2c-0.23-0.07-0.45-0.11-0.68-0.14
		c-0.14-0.02-0.29-0.01-0.43-0.01c0.35,5.42,0.63,10.84,0.84,16.26C1232.62-1055.5,1233.03-1058.29,1233.44-1061.08z"/>
	<path class="st3" d="M1202.16-1109.91c0.58,0.04,1.16,0.05,1.73,0.01c0.56-0.04,1.12-0.12,1.67-0.24c0.55-0.12,1.1-0.28,1.65-0.49
		l0,0c0.19,0.41,0.38,0.81,0.56,1.21c0.85-0.31,1.7-0.51,2.55-0.6c0.22-0.02,0.45-0.04,0.67-0.05l0.24,0c0.19,0,0.38,0,0.58,0.01
		c0.81,0.05,1.62,0.22,2.44,0.51l0,0c0.65-0.24,1.28-0.35,1.9-0.37c1.56-0.06,3.05,0.43,4.54,0.92c0.3,0.1,0.6,0.19,0.9,0.29
		c2.45,0.28,4.23,1.2,5.5,2.6c0.21-0.87,0.46-1.74,0.77-2.61c-0.18-1.84-0.36-3.67-0.53-5.51c-4.87,0.57-9.79,0.68-14.66,1.17
		c-2.93,0.29-5.84,0.72-8.72,1.45C1203.38-1110.89,1202.78-1110.32,1202.16-1109.91z"/>
	<path class="st3" d="M1189.77-1078.25C1189.77-1078.25,1189.77-1078.25,1189.77-1078.25c3.23-0.1,6.46-0.3,9.68-0.64c0,0,0,0,0,0
		C1196.23-1078.55,1193-1078.35,1189.77-1078.25z"/>
	<path class="st3" d="M1121.37-1081.18c-0.06-7.42,2.64-10.44,9.4-8.21c5.1,1.68,9.51,1.38,14.38,0.26
		c1.67-0.38,3.39-0.49,5.08-0.24c-9.89-9.97-17.87-18.06-21.64-22.05c-2.4-0.51-4.79-1.17-7.14-2.04l-0.26-0.05
		c-0.92-0.17-1.84-0.33-2.76-0.5h0l0,0c-1.4,2.41-2.79,4.83-4.19,7.24c-1.21,3.98,0.22,8.29-1.54,12.2
		c1.09,3.28,1.02,6.62,0.43,9.98c1.39,3.92,1.73,7.93,0.98,12.02c0.37,0.95,0.74,1.9,1.11,2.85c0.37,0.95,0.74,1.9,1.11,2.85
		C1123.98-1069.54,1121.42-1075.83,1121.37-1081.18z"/>
	<path class="st3" d="M1155.33-1108.74c-2.39-0.25-0.02,4.19,5.08,11.32c5.01-3.13,10.59-5.19,15.71-8.09
		c2.29,0.27,4.46,0.08,6.18-1.72c0.35,0.07,0.69,0.1,1.02,0.1c0.99-0.02,1.88-0.39,2.69-1.08c3.32-0.05,6.64-0.1,9.96-0.15l0,0
		c1.38-0.15,2.76-0.29,4.14-0.43c0.03-0.12,0.07-0.24,0.1-0.35c-1.41,0.17-2.88-0.41-4.42-1.73c-1.07-0.34-2.15-0.57-3.22-0.72
		c-0.36-0.05-0.72-0.09-1.07-0.12c-1.17-0.11-2.34-0.12-3.52-0.05c-0.37,0.02-0.74,0.05-1.11,0.09c-1.19,0.11-2.38,0.3-3.56,0.54
		c-0.59,0.12-1.19,0.25-1.78,0.39C1172.96-1107.86,1164.14-1107.8,1155.33-1108.74z"/>
	<path class="st2" d="M1118.43-1114.02c-1.03-0.5-2.05-1-3.08-1.5c-0.77,1.81-1.54,3.61-2.31,5.42c0.4,1.11,0.81,2.21,1.21,3.32
		C1115.64-1109.19,1117.03-1111.6,1118.43-1114.02L1118.43-1114.02z"/>
	<path class="st2" d="M1200.2-1109.15c-0.03,0.12-0.07,0.24-0.1,0.35c2.72,1.79,5.29,1.61,7.68-0.62c-0.19-0.41-0.38-0.81-0.56-1.21
		l0,0c-0.55,0.21-1.1,0.37-1.65,0.49c-0.55,0.12-1.11,0.2-1.67,0.24c-0.57,0.04-1.15,0.04-1.73-0.01c0.61-0.41,1.21-0.98,1.8-1.71
		c-0.72-0.35-1.42-0.56-2.12-0.66c-0.35-0.05-0.69-0.07-1.04-0.07c-1.72,0.01-3.38,0.63-5.02,1.47
		C1197.32-1109.56,1198.8-1108.98,1200.2-1109.15z"/>
	<path class="st4" d="M1129.42-1074.09c2.79-1.85,5.57-3.73,8.3-5.65c-1-0.91-2.6-0.89-4.24-0.39c-2.31,0.71-6.29-0.12-6.02,3.54
		C1127.59-1074.97,1128.37-1074.33,1129.42-1074.09z"/>
	<path class="st4" d="M1120.44-987.22c-0.12-0.45-0.23-0.91-0.34-1.36c-0.9,3.55-0.4,7.13,0.09,10.66c0.12,0.87,0.3,1.7,0.55,2.48
		C1120.24-979.35,1120.18-983.27,1120.44-987.22z"/>
	<path class="st2" d="M1229.05-1102.64c-0.26-2.04-0.64-4.08-1.17-6.1c-0.31,0.87-0.56,1.74-0.77,2.61
		C1227.98-1105.17,1228.62-1103.99,1229.05-1102.64z"/>
	<path class="st2" d="M1230.68-1078.29c0.13,1.58,0.25,3.17,0.37,4.75C1231.59-1075.18,1231.45-1076.76,1230.68-1078.29z"/>
	<path class="st2" d="M1204.63-988.96c4.87-1.12,9.28-1.42,14.38,0.26c6.76,2.23,9.47-0.79,9.4-8.21
		c-0.05-5.35-2.61-11.64,5.04-14.31c-0.05-1.32-0.1-2.64-0.14-3.97c0.07-0.49,0.09-1.01,0.03-1.56c-0.02-0.22-0.07-0.45-0.11-0.68
		c-0.06-1.67-0.12-3.34-0.18-5c-0.06-1.67-0.12-3.34-0.18-5.01c-17.85-1.26-35.68-3.24-53.54-3.55c-7.34-0.12-14.69-0.1-22.03-0.19
		c-13.06-13.15-24.7-24.95-31.07-31.66c5-0.54,10.31-0.09,14.61-3.22c1.26-0.92,3.96,0.7,5.23,2.25c3.47,4.25,8.01,4.05,12.77,3.72
		c11.27-0.78,22.52-2,33.85-0.21c6.89,1.08,10.94-3.06,12.02-11.33c-0.05-0.05-0.1-0.09-0.15-0.14c-0.62-0.55-1.25-1.11-1.87-1.66
		c-0.06-0.79-0.11-1.59-0.17-2.38c-0.08-1.13-0.16-2.27-0.24-3.4l0,0l0,0c-0.94,0.13-1.88,0.22-2.82,0.32c0,0,0,0,0,0
		c-3.22,0.34-6.45,0.54-9.68,0.64c0,0,0,0,0,0c-2.41,0.07-4.81,0.09-7.22,0.09c0,0,0,0,0,0c-1.49,0-2.98-0.01-4.47-0.03l0,0
		c-3.32-0.04-6.64-0.09-9.96-0.11c-0.15,0-0.29,0-0.44,0c-1.84-0.01-3.68-0.01-5.53,0.02c-1.91,0.03-3.82,0.08-5.73,0.18
		c-1.94,0.09-4.53,0.45-4.99-2.02c-0.49-2.63,1.74-5.17,3.94-4.73c5.7,1.15,5.7-4.75,8.44-6.35c2.64,0.04,2.84,2.01,3.91,3.15
		c4.21,4.51,10.5,3.23,10.9-2.71c0.63-9.35,4.38-14.26,14-14.27c1.78,0,2.76-1.67,3.33-3.32l0,0c-3.32,0.05-6.64,0.1-9.96,0.15
		c-0.81,0.68-1.7,1.05-2.69,1.08c-0.33,0.01-0.67-0.02-1.02-0.1c-1.72,1.8-3.88,1.99-6.18,1.72c-5.12,2.9-10.7,4.96-15.71,8.09
		c-5.1-7.12-7.47-11.57-5.08-11.32c8.82,0.93,17.63,0.88,26.19-2.03c-3.51-1.41-7.2-1.12-10.77-0.71
		c-12.63,1.45-25.09,0.03-37.55-1.72c-0.97-0.14-1.94-0.31-2.92-0.47c-0.3-0.05-0.6-0.1-0.89-0.14c-0.35-0.05-0.7-0.1-1.05-0.15
		c-0.19-0.02-0.37-0.04-0.56-0.06c-0.26-0.03-0.52-0.05-0.78-0.07c-0.24-0.02-0.48-0.03-0.72-0.04c-0.15-0.01,0.69,0.96,2.34,2.7
		c3.77,3.99,11.75,12.09,21.64,22.05c-1.69-0.24-3.41-0.14-5.08,0.24c-4.87,1.12-9.28,1.42-14.38-0.26
		c-6.76-2.23-9.47,0.79-9.4,8.21c0.05,5.35,2.61,11.64-5.04,14.31c0.05,1.32,0.1,2.64,0.14,3.97c-0.07,0.49-0.09,1.01-0.03,1.56
		c0.02,0.22,0.07,0.45,0.11,0.68c0.06,1.67,0.12,3.34,0.18,5c0.06-1.12,0.14-2.23,0.25-3.35c1.99-1.98,4.28-2.93,6.7-3.44
		c4.87,6.81,14.37,18.36,24.9,31.07c-4.99-0.16-9.98-0.41-14.97-0.88c-5.42-0.5-10.28,2.49-15.52,3.31
		c-0.17,1.18-0.35,2.37-0.52,3.55c-0.41,2.79-0.82,5.59-1.23,8.38c1.03,1.84,1.38,3.76,1.24,5.74c-0.05,0.66-0.15,1.33-0.29,2
		c0.23,0.07,0.45,0.11,0.68,0.14c0.14,0.02,0.29,0.01,0.43,0.01c0.09,0,0.17,0.01,0.26,0.01c0.53-0.11,1.04-0.18,1.53-0.22
		c0.98-0.08,1.87-0.04,2.68,0.11c0.81,0.15,1.54,0.41,2.2,0.76c3.63,1.89,5.05,6.37,5.3,9.78c0.56,7.76,7.31,9.37,10.5,14.26
		c1.94,2.98,7.25,1.31,8.9-2.46c2.16-4.95,3.22-10.06-1.28-14.74c4.24-2.29,7.82,0.8,11.03-1.58c1.54,6.42-0.68,11.02-3.59,14.73
		c0.44,1.95,1.5,2.5,2.39,2.36c8.42-1.32,17.18-0.19,25.54-1.93c8.69,11.29,13.72,19.03,10.59,18.7
		c-8.82-0.93-17.63-0.88-26.19,2.03c3.51,1.41,7.2,1.12,10.77,0.71c12.63-1.45,25.09-0.03,37.55,1.72c0.97,0.14,1.94,0.31,2.92,0.47
		c0.3,0.05,0.6,0.1,0.89,0.14c0.35,0.05,0.7,0.1,1.05,0.15c0.19,0.02,0.37,0.04,0.56,0.06c0.26,0.03,0.52,0.05,0.78,0.07
		c0.24,0.02,0.48,0.03,0.72,0.04c0.15,0.01-0.69-0.96-2.34-2.7c-3.77-3.99-11.75-12.09-21.64-22.05
		C1201.25-988.48,1202.97-988.58,1204.63-988.96z M1133.49-1080.14c1.64-0.5,3.24-0.52,4.24,0.39c-2.74,1.92-5.51,3.81-8.3,5.65
		c-1.05-0.23-1.84-0.88-1.96-2.51C1127.2-1080.26,1131.18-1079.43,1133.49-1080.14z M1201.55-992.31c-0.44-0.05-0.82-0.17-1.16-0.36
		c-1.01-0.56-1.56-1.7-1.67-3.05c0.15-0.93,0.5-1.64,1.05-2.12c0.39-0.34,0.88-0.55,1.46-0.65l0.09-0.02
		c0.21-0.03,0.43-0.04,0.66-0.04c1.82,0,3.17,0.83,3.19,2.8C1205.2-993.43,1203.82-992.06,1201.55-992.31z M1216.3-997.96
		c-2.49,0.76-4.91,0.42-5.23-2.63c-0.36-3.47,2.76-2.92,4.85-3.46c2.44,0.22,6.13-1.13,6.39,2.56
		C1222.59-997.84,1218.61-998.67,1216.3-997.96z M1169.65-991.92c-3.45-0.93-1.46-3.86-2.21-5.67c-0.11-1.48-0.31-2.8-0.24-4.1
		c0.03-0.53,0.59-1.21,1.09-1.48c1-0.54,2.01-0.17,2.49,0.83c0.57,1.18,0.93,2.47,1.34,3.72c0.73,2.19,1.84,4.46-0.64,6.28
		C1171.01-991.99,1170.2-991.77,1169.65-991.92z"/>
	<path class="st3" d="M1133.62-1032.25c4.99,0.46,9.98,0.72,14.97,0.88c-10.53-12.71-20.02-24.26-24.9-31.07
		c-2.43,0.51-4.72,1.46-6.7,3.44c-0.11,1.12-0.18,2.23-0.25,3.35c-0.08,1.4-0.13,2.8-0.14,4.19c-0.01,0.57,0.01,1.14,0.02,1.71
		c-0.05,0.2-0.1,0.41-0.13,0.62c-0.04,0.34-0.05,0.67-0.02,1.01c0.03,0.33,0.1,0.65,0.19,0.98c0.03,1.07,0.07,2.13,0.13,3.2
		c0.07,1.25,0.15,2.5,0.25,3.75c0.05,0.65,0.12,1.29,0.17,1.94c0.09,4.29,0.21,8.58,0.38,12.87c0.17-1.18,0.35-2.37,0.52-3.55
		C1123.34-1029.76,1128.2-1032.76,1133.62-1032.25z"/>
	<path class="st3" d="M1226.16-1086.07c-2.97,7.56-3.03,7.76-10.06,6.74c-4.67-0.68-9.22-0.18-13.82,0.12l0,0l0,0
		c0.08,1.13,0.16,2.27,0.24,3.4c0.06,0.79,0.11,1.59,0.17,2.38c0.62,0.55,1.25,1.11,1.87,1.66c0.05,0.05,0.1,0.09,0.15,0.14
		c-1.08,8.26-5.14,12.41-12.02,11.33c-11.33-1.78-22.58-0.57-33.85,0.21c-4.77,0.33-9.3,0.54-12.77-3.72
		c-1.27-1.55-3.97-3.17-5.23-2.25c-4.3,3.14-9.62,2.68-14.61,3.22c6.37,6.71,18.01,18.5,31.07,31.66
		c7.34,0.09,14.68,0.06,22.03,0.19c17.86,0.3,35.7,2.29,53.54,3.55c0.06,1.67,0.12,3.34,0.18,5.01c0.08-1.4,0.13-2.8,0.14-4.19
		c0.01-0.57-0.01-1.14-0.02-1.71c0.05-0.2,0.1-0.41,0.13-0.62c0.04-0.34,0.05-0.67,0.02-1.01c-0.03-0.33-0.1-0.65-0.19-0.98
		c-0.03-1.07-0.07-2.13-0.13-3.2c-0.07-1.25-0.15-2.5-0.25-3.75c-0.05-0.65-0.12-1.29-0.17-1.94c-0.09-4.29-0.21-8.58-0.38-12.87
		c-0.21-5.43-0.48-10.85-0.84-16.26c-0.1-1.52-0.21-3.05-0.32-4.57c-0.12-1.58-0.24-3.17-0.37-4.75c-0.07-0.83-0.14-1.66-0.22-2.49
		c0.06-1.4,0.04-2.78-0.07-4.17c-0.13-1.53-0.37-3.05-0.71-4.57c-0.02,0.06-0.02,0.13-0.04,0.19
		C1228.08-1088.66,1226.83-1087.78,1226.16-1086.07z M1191.33-1035.56c-4.67-0.47-9.31-0.23-13.98,0.02
		c-5.31,0.38-10.62,0.84-15.94,1.1c-2.02,0.1-4.46-0.32-4.85-2.59c-0.46-2.7,2.09-2.87,4.02-3.21c10.29-1.8,20.56,0.3,30.85,0.13
		c1.35-0.02,2.56,0.85,2.6,2.44C1194.08-1035.86,1192.6-1035.43,1191.33-1035.56z"/>
	<path class="st3" d="M1194.46-969.36c3.13,0.33-1.9-7.41-10.59-18.7c-8.36,1.73-17.12,0.61-25.54,1.93
		c-0.9,0.14-1.95-0.41-2.39-2.36c2.92-3.7,5.13-8.3,3.59-14.73c-3.21,2.38-6.79-0.71-11.03,1.58c4.5,4.68,3.44,9.78,1.28,14.74
		c-1.65,3.77-6.95,5.44-8.9,2.46c-3.18-4.89-9.94-6.5-10.5-14.26c-0.24-3.41-1.67-7.88-5.3-9.78c-0.66-0.34-1.39-0.6-2.2-0.76
		c-0.81-0.15-1.7-0.2-2.68-0.11c-0.49,0.04-1,0.12-1.53,0.22c-0.09,0.01-0.17-0.01-0.26-0.01c0.1,1.52,0.21,3.05,0.32,4.57
		c0.07-0.22,0.15-0.43,0.24-0.65c1.17,0.92,1.79,1.88,1.87,2.89c0.02,0.25,0,0.51-0.05,0.76c-0.15,0.77-0.6,1.56-1.34,2.38
		c-0.13-0.21-0.24-0.42-0.35-0.63c0.07,0.83,0.14,1.66,0.22,2.49c-0.06,1.4-0.04,2.78,0.07,4.17c0.13,1.53,0.37,3.05,0.71,4.57
		c0.1,0.46,0.21,0.91,0.34,1.36c1.73,2.86,2.65,5.78,2.86,8.76c0.03,0.37,0.04,0.75,0.05,1.12c0.03,2.62-0.47,5.29-1.44,7.99
		c0.18,1.84,0.36,3.67,0.53,5.51c4.87-0.57,9.79-0.68,14.66-1.17c2.93-0.29,5.84-0.72,8.72-1.45c2.47-3.1,5.2-3.3,8.18-0.73
		c1.07,0.34,2.15,0.57,3.22,0.72c0.36,0.05,0.72,0.09,1.07,0.12c1.17,0.11,2.34,0.12,3.52,0.05c0.37-0.02,0.74-0.05,1.11-0.09
		c1.19-0.11,2.38-0.3,3.56-0.54c0.59-0.12,1.19-0.25,1.78-0.39C1176.83-970.24,1185.65-970.29,1194.46-969.36z"/>
	<path class="st3" d="M1235.68-1005.52c-0.37-0.95-0.74-1.9-1.11-2.85c-0.37-0.95-0.74-1.9-1.11-2.85
		c-7.65,2.66-5.09,8.95-5.04,14.31c0.06,7.42-2.64,10.44-9.4,8.21c-5.1-1.68-9.51-1.38-14.38-0.26c-1.67,0.38-3.39,0.49-5.08,0.24
		c9.89,9.97,17.87,18.06,21.64,22.05c2.4,0.51,4.79,1.17,7.14,2.04l0.26,0.05c0.92,0.17,1.84,0.33,2.76,0.5l0,0l0,0
		c1.4-2.41,2.79-4.83,4.19-7.24c1.21-3.98-0.22-8.29,1.54-12.2c-1.09-3.28-1.02-6.62-0.43-9.98
		C1235.27-997.42,1234.93-1001.42,1235.68-1005.52z"/>
	<path class="st2" d="M1231.36-964.08c1.03,0.5,2.05,1,3.08,1.5c0.77-1.81,1.54-3.61,2.31-5.42c-0.4-1.11-0.81-2.21-1.21-3.32
		C1234.15-968.91,1232.76-966.49,1231.36-964.08L1231.36-964.08z"/>
	<path class="st2" d="M1145.83-966.48c0.72,0.35,1.42,0.56,2.12,0.66c0.35,0.05,0.69,0.07,1.04,0.07c1.72-0.01,3.38-0.63,5.02-1.47
		C1151.03-969.77,1148.3-969.57,1145.83-966.48z"/>
	<path class="st4" d="M1215.93-1004.05c-2.1,0.54-5.21-0.01-4.85,3.46c0.32,3.05,2.74,3.39,5.23,2.63c2.31-0.71,6.29,0.12,6.02-3.54
		C1222.05-1005.18,1218.37-1003.83,1215.93-1004.05z"/>
	<path class="st4" d="M1172.13-998.62c-0.42-1.25-0.77-2.54-1.34-3.72c-0.48-1-1.49-1.37-2.49-0.83c-0.5,0.27-1.05,0.95-1.09,1.48
		c-0.08,1.3,0.13,2.61,0.24,4.1c0.75,1.8-1.24,4.74,2.21,5.67c0.54,0.15,1.36-0.07,1.83-0.42
		C1173.96-994.15,1172.85-996.43,1172.13-998.62z"/>
	<path class="st4" d="M1201.99-998.55c-0.23,0-0.45,0.01-0.66,0.04l-0.09,0.02c-0.58,0.1-1.07,0.31-1.46,0.65
		c-0.55,0.48-0.9,1.19-1.05,2.12c0.1,1.35,0.66,2.49,1.67,3.05c0.34,0.19,0.72,0.31,1.16,0.36c2.27,0.24,3.64-1.12,3.63-3.44
		C1205.17-997.72,1203.81-998.55,1201.99-998.55z"/>
	<path class="st4" d="M1221.6-1108.72c-2.51,0.29-5.04,0.68-7.34-0.83c-0.82-0.3-1.63-0.46-2.44-0.51
		c-0.19-0.01-0.38-0.01-0.58-0.01l-0.24,0c-0.23,0.01-0.45,0.03-0.67,0.05c-0.85,0.09-1.71,0.29-2.55,0.6
		c-2.4,2.23-4.96,2.42-7.68,0.62c-1.38,0.14-2.76,0.29-4.14,0.43c-0.58,1.66-1.55,3.32-3.33,3.32c-9.62,0.01-13.37,4.92-14,14.27
		c-0.4,5.94-6.69,7.22-10.9,2.71c-1.06-1.14-1.27-3.11-3.91-3.15c-2.74,1.61-2.74,7.5-8.44,6.35c-2.2-0.44-4.43,2.1-3.94,4.73
		c0.46,2.47,3.05,2.11,4.99,2.02c1.91-0.09,3.82-0.15,5.73-0.18c1.84-0.03,3.68-0.03,5.53-0.02c0.15,0,0.29,0,0.44,0
		c3.32,0.02,6.64,0.08,9.96,0.11l0,0c1.49,0.02,2.98,0.03,4.47,0.03c0,0,0,0,0,0c2.41,0,4.82-0.02,7.22-0.09
		c3.23-0.1,6.46-0.3,9.68-0.64c0.94-0.1,1.88-0.19,2.82-0.32c4.6-0.31,9.16-0.8,13.82-0.12c7.02,1.02,7.09,0.82,10.06-6.74
		c0.67-1.71,1.93-2.59,3.48-3.24c0.02-0.06,0.03-0.13,0.04-0.19c0.9-3.55,0.4-7.13-0.09-10.66c-0.12-0.87-0.3-1.7-0.55-2.47
		c-0.43-1.35-1.06-2.53-1.94-3.49C1225.84-1107.52,1224.05-1108.44,1221.6-1108.72z M1202.87-1087.84c-2.72,0.7-5.19,0.44-6.49-2.57
		c-0.23-2.38,1.03-3.72,3.13-4.26c2.73-0.7,5.43-0.53,6.39,2.62C1206.56-1089.83,1204.97-1088.38,1202.87-1087.84z"/>
	<path class="st2" d="M1191.43-1040.11c-10.29,0.17-20.57-1.93-30.85-0.13c-1.93,0.34-4.48,0.51-4.02,3.21
		c0.39,2.27,2.83,2.69,4.85,2.59c5.32-0.26,10.63-0.72,15.94-1.1c4.66-0.25,9.3-0.48,13.98-0.02c1.28,0.13,2.76-0.31,2.71-2.11
		C1193.99-1039.27,1192.77-1040.13,1191.43-1040.11z"/>
	<path class="st2" d="M1123.35-977.35c0-0.37-0.02-0.75-0.05-1.12c-0.21-2.98-1.13-5.9-2.86-8.76c-0.26,3.95-0.2,7.88,0.3,11.77
		c0.26,2.04,0.64,4.08,1.17,6.1C1122.88-972.06,1123.38-974.73,1123.35-977.35z"/>
	<path class="st2" d="M1120.8-1001.56c0.05-0.26,0.06-0.51,0.05-0.76c-0.08-1.01-0.69-1.97-1.87-2.89c-0.1,0.22-0.17,0.44-0.24,0.65
		c-0.54,1.64-0.4,3.22,0.37,4.75c0.11,0.21,0.22,0.42,0.35,0.63C1120.21-999.99,1120.66-1000.79,1120.8-1001.56z"/>
	<path class="st2" d="M1221.6-1108.72c-0.3-0.09-0.6-0.19-0.9-0.29c-1.49-0.49-2.99-0.98-4.54-0.92c-0.62,0.02-1.26,0.14-1.9,0.37
		l0,0C1216.57-1108.04,1219.09-1108.43,1221.6-1108.72z"/>
	<path class="st2" d="M1199.5-1094.67c-2.1,0.54-3.36,1.88-3.13,4.26c1.31,3.01,3.77,3.27,6.49,2.57c2.1-0.54,3.69-1.99,3.02-4.21
		C1204.94-1095.2,1202.23-1095.37,1199.5-1094.67z"/>
</g>
<path class="st5" d="M1158.16-898.22c166.87,0,309.09-96.41,363.59-231.58l-5.23-2.42l-721.93,2.46
	C849.11-994.61,991.31-898.22,1158.16-898.22z"/>
<path class="st0" d="M2329.07-116.76c44.74,0,87.23,0.89,125.54,2.5l166.33-540.4l-1113.14-485.75
	c-51.4,120.45-185.53,206.35-342.91,206.35c-157.36,0-291.47-85.88-342.89-206.31l-1160.17,464.2l157.71,590.37
	c38.22-1.6,80.6-2.48,125.2-2.48c169.07,0,306.13,12.75,306.13,28.48c0,0.07-0.02,0.14-0.03,0.22l1.19,0.07l-65.39,1595.35
	l1902.64,2.1L2020.5-88.35l2.44,0.06C2023-104.02,2160.03-116.76,2329.07-116.76z M1292.2-61.8L1292.2-61.8l0.8-0.54l0.83,0.49
	C1293.3-61.16,1292.76-61.12,1292.2-61.8z M1301.32-62.48c-0.15,0.08-0.31,0.11-0.48,0.08c-0.25-0.05-0.53-0.24-0.82-0.56
	c0.14-0.02,0.28-0.04,0.43-0.06c0.5-0.07,1-0.14,1.5-0.21C1301.76-62.86,1301.55-62.61,1301.32-62.48z"/>
<path class="st2" d="M1292.2-61.8L1292.2-61.8c0.56,0.68,1.11,0.64,1.63-0.05l-0.83-0.49L1292.2-61.8z"/>
<path class="st2" d="M1300.02-62.97c0.29,0.33,0.56,0.51,0.82,0.56c0.17,0.03,0.33,0.01,0.48-0.08c0.23-0.13,0.44-0.38,0.63-0.76
	c-0.5,0.07-1,0.14-1.5,0.21C1300.31-63.01,1300.17-62.99,1300.02-62.97z"/>
<g>
	<ellipse class="st0" cx="1167.99" cy="-228.19" rx="223.59" ry="193.35"/>
	<path class="st6" d="M1380.06-326.85c-0.22-0.05-0.42-0.11-0.6-0.19c-0.36-0.18-0.64-0.43-0.84-0.76c-0.2-0.33-0.33-0.72-0.39-1.18
		l0,0l0,0l0.01,0.09c-2.06-0.58-3.28-1.94-3.72-4.02l-0.28-0.27c-4.35-1.94-6.99-5.89-10.18-9.1c-9.06-9.12-18.73-17.49-29.07-25.12
		c-2.59-1.91-5.72-3.33-7.27-6.45l-0.42-0.28c-0.97-0.07-2.2,0.23-2.89-0.25c-29.36-20.51-62.4-32.5-96.65-41.63
		c-4.8-1.28-9.8-2.04-14.75-2.43c-10.89-0.86-16.68,3.3-19.96,13.97c-2.88,9.37-2.79,19.1-2.7,28.73c0.08,8.98,1.12,17.95,1.3,26.93
		c0.11,5.54,2.82,8.14,7.67,10.23c10.98,4.74,21.7,9.89,31.56,16.95c23.58,16.89,33.62,39.44,29.95,68.08
		c-2.8,21.89-10.02,42.75-15.27,64.07c-1.35,5.49-2.45,11.04-3.7,16.56c-1.67,7.43-1.81,7.63-9.03,7.95
		c-6.98,0.31-13.99,0.79-20.96,0.57c-37.28-1.18-74.56,0.21-111.84-0.42c-8.63-0.15-8.92-0.02-9.42-8.79
		c-1.06-18.7-4.44-36.9-9.24-55.02c-7.62-28.74-2.47-55.48,15.62-79.33c8.23-10.85,19.11-18.4,31.54-23.78
		c5.5-2.38,10.93-4.96,16.57-6.93c4.73-1.65,7.07-4.51,7.21-9.49c0.51-17.96,1.2-35.91,1.58-53.86c0.07-3.26-0.99-6.55-1.52-9.83
		l-0.48-0.31l0.06-0.28l0.06-0.28c-0.33-0.12-0.63-0.26-0.9-0.43c-0.81-0.52-1.37-1.28-1.71-2.26c-0.67,0.06-1.14-0.21-1.42-0.82
		c-19.3-3-37.83,0.87-55.96,6.87c-21.92,7.26-42.41,17.72-62.12,29.66c-46.44,28.11-85.68,63.12-109.81,113.08
		c-13.49,27.92-22.65,56.91-25.4,87.81c-0.82,9.28-0.53,9.66-9.62,9.62c-13.32-0.07-26.64-0.75-39.96-1.07
		c-34.63-0.83-69.27-1.66-103.9-2.37c-40.96-0.84-81.93-1.64-122.9-2.3c-11.01-0.18-11.46,0.06-11.76,10.9
		c-0.54,19.31-0.55,38.63-0.65,57.94c-0.15,28.98-0.14,57.97-0.31,86.95c-0.07,12.66-0.47,25.32-0.62,37.98
		c-0.09,7.72,0.55,8.33,8.4,9.17c0.99,0.11,2,0.23,2.99,0.2c31.33-0.86,62.61,1,93.92,1.24c21.98,0.17,43.97-0.51,65.96-0.72
		c33.34-0.31,66.59,2.08,99.88,3.5c14.55,0.62,13.22-1.25,13.98,13.62c1.85,36.61,12.16,70.74,29.8,102.75
		c17.59,31.92,41.02,58.98,68.83,82.35c26.25,22.06,54.9,39.72,87.73,50.65c42.08,14.01,84.54,17.69,127.97,8.12
		c13.99-3.08,27.99-6.09,41.64-10.58c45.8-15.04,81.96-44.18,115.02-78.01c7.97-8.15,14.09-17.67,20.87-26.68
		c10.77-14.33,20.45-29.41,27.09-46.24c1.1-2.78,1.15-5.69,2.49-8.5c6.62-13.95,9.31-28.97,11.63-44.14
		c1.73-11.32,2.26-22.73,3.59-34.08c0.51-4.35,2.08-6.52,6.77-6.69c15.98-0.58,31.94-1.68,47.92-2.17
		c22.31-0.69,44.63-0.31,66.96-0.09c44.31,0.44,88.63,0.34,132.95,0.38c6.32,0,12.65-0.49,18.97-0.81c3.98-0.2,6-2.19,6-6.35
		c0-5.66,0.4-11.32,0.38-16.98c-0.16-40.32,1.52-80.58,3.16-120.85c0.64-15.64,1.19-31.3,1.45-46.95
		c0.21-12.24-0.02-12.15-11.8-12.68c-9-0.4-17.98-0.07-26.98,0.19c-24.31,0.71-48.64,0.77-72.93,1.82
		c-25.62,1.11-51.23-0.18-76.84,0.44c-26.64,0.64-53.29,0.94-79.93,1.32c-8.35,0.12-8.33,0.01-8.87-8.01
		c-0.54-7.98-0.89-15.97-1.73-23.92c-3.65-34.55-13.58-67-31.83-96.83c-4.3-7.03-10.27-13.05-12.99-21.05l-0.14-0.17
		C1383.72-319.94,1381.27-322.9,1380.06-326.85z M1263.22,161.38c-8.55,2.08-17.41,2.49-25.79,1.39c-8-1.05-15.42-5.65-22.04-10.76
		c-4.22-3.25-8.45-6.49-12.55-9.88c-3.2-2.64-5.97-2.34-8.69,0.62c-4.05,4.41-7.8,9.18-12.27,13.13
		c-10.54,9.32-22.32,14.54-36.53,8.55c-6.63-2.79-11.28-8.02-15.96-13.24c-3.91-4.36-6-12.12-12.17-12.18
		c-5.29-0.05-9.08,6.2-13.03,10.17c-16.31,16.36-37.47,17.95-56.86,7.96c-7.36-3.79-14.74-7.57-21.9-11.71
		c-3.33-1.92-6.17-4.69-10.02-7.68c4.44-1.54,8-1.24,11.5-0.92c9.86,0.88,18.77-1.91,25.82-8.5c15.45-14.44,25.98-31.87,29.35-53.09
		c1.77-11.12,4.06-22.18,3.69-33.54c-0.18-5.61,3.39-6.36,7.95-6.09c13.29,0.79,26.58,1.22,39.9,1.37
		c28.97,0.33,57.92-0.18,86.87-0.84c1.33-0.03,2.66-0.08,3.99-0.07c8.97,0.08,9.19,0.12,8.97,8.76
		c-0.47,18.57,6.16,35.22,13.57,51.68c5.35,11.86,11.68,23.02,21.7,31.79c7.8,6.83,16.66,10.69,27.56,11.86
		C1287.46,151.4,1276.5,158.15,1263.22,161.38z M1419.4-145.97c51.96-0.79,103.92-2.11,155.92-1.65
		c34.97,0.31,69.95-1.06,104.93-1.75c8.83-0.17,9.26-0.1,8.93,8.64c-0.93,24.97-2.24,49.92-3.11,74.89
		c-0.72,20.63-0.86,41.29-1.6,61.92c-0.51,13.95,2.9,14.64-14.82,14.89c-42.31,0.9-84.61-0.03-126.91-0.41
		c-35.97-0.32-71.92,0.01-107.86,2.83c-17.84,1.4-35.89,0.34-53.84,0.19c-33.97-0.28-67.99-1.86-101.91-0.74
		c-30.29,1.01-60.59,2.71-90.9,3.14c-35.29,0.5-70.57,0.12-105.86-1.64c-25.61-1.27-51.28-1.11-76.93-1.52
		c-45.96-0.74-91.95-0.67-137.88-2.38c-31.63-1.18-63.24-2.55-94.9-2.61c-19.99-0.04-39.94,1.7-59.96,1.08
		c-25.3-0.78-50.62-0.9-75.93-1.4c-8.36-0.17-9.12-0.99-8.88-9.39c0.56-19.31,0.62-38.63,1.19-57.95
		c0.79-26.94,0.34-53.92,0.49-80.89c0.08-13.61,0.16-13.89,13.47-13.58c31.97,0.76,63.92,1.93,95.89,2.71
		c33.96,0.83,67.94,1.25,101.9,2.15c37.29,0.99,74.56,2.49,111.85,3.44c39.3,1.01,78.61,1.93,117.92,2.32
		c31.98,0.32,63.96-0.46,95.94-0.29c59.64,0.33,119.27-1.79,178.92-0.5C1370.08-143.9,1394.76-145.6,1419.4-145.97z"/>
	<path class="st0" d="M1162.6-143.67c-31.98-0.18-63.97,0.61-95.94,0.29c-39.31-0.39-78.62-1.32-117.92-2.32
		c-37.29-0.95-74.56-2.45-111.85-3.44c-33.96-0.9-67.94-1.32-101.9-2.15c-31.97-0.78-63.92-1.95-95.89-2.71
		c-13.31-0.32-13.39-0.04-13.47,13.58c-0.15,26.96,0.3,53.94-0.49,80.89c-0.57,19.32-0.63,38.64-1.19,57.95
		c-0.24,8.4,0.51,9.23,8.88,9.39c25.31,0.5,50.63,0.61,75.93,1.4c20.02,0.62,39.97-1.12,59.96-1.08c31.65,0.07,63.27,1.43,94.9,2.61
		c45.93,1.71,91.92,1.65,137.88,2.38c25.65,0.41,51.32,0.25,76.93,1.52c35.28,1.75,70.57,2.13,105.86,1.64
		c30.31-0.43,60.61-2.14,90.9-3.14c33.92-1.13,67.93,0.46,101.91,0.74c17.95,0.15,36,1.2,53.84-0.19
		c35.93-2.82,71.89-3.15,107.86-2.83c42.3,0.37,84.6,1.31,126.91,0.41c17.72-0.25,14.32-0.94,14.82-14.89
		c0.75-20.63,0.88-41.29,1.6-61.92c0.88-24.97,2.18-49.93,3.11-74.89c0.33-8.74-0.11-8.81-8.93-8.64
		c-34.98,0.68-69.96,2.05-104.93,1.75c-51.99-0.46-103.95,0.87-155.92,1.65c-24.64,0.37-49.32,2.06-73.94,1.53
		C1281.87-145.46,1222.24-143.34,1162.6-143.67z M710.58-13.99c-4.92,3.57-10.33,5.96-16.53,6.33c-17.63,1.05-35.24-0.63-52.86-0.42
		c-3.38,0.04-4.86-1.84-4.98-4.89c-0.19-4.98-0.29-9.97-0.2-14.96c0.2-10.98,0.54-21.95,0.81-32.92c0.17-7.07,0.29-7.37,7.18-7.4
		c6.98-0.03,13.96,0.39,20.95,0.42c3.22,0.01,6.55,0.43,9.92-0.91c-2.19-3.49-5.45-2.52-8.24-2.65c-7.64-0.36-15.3-0.38-22.94-0.78
		c-1.75-0.09-3.09-0.22-4.09-0.49c-2.98-0.81-2.84-2.9-1.27-9.1c0.24-0.73,0.62-1.42,0.88-2.15c0.26-0.73,0.38-1.48,0.13-2.32
		c-2.24-0.96-2.47-2.98-2.46-4.99c0.04-5.8,0.1-11.6,0.16-17.41c0.06-5.8,0.13-11.6,0.19-17.4c-0.42-1.59-1.02-3.19-1.09-4.74
		c-0.01-0.19-0.01-0.39,0-0.58c0.07-1.34,0.62-2.62,2.12-3.8c1.37-1.13,3.01-1.36,4.69-1.27c11.62,0.64,23.29,0.82,34.84,2.08
		c21.24,2.31,35.41,20.89,30.98,41.68c-1.79,8.39,0.2,13.24,6.08,18.91C732.98-56.3,730.71-28.59,710.58-13.99z M817.27-124.24
		c1.5,17.56,1.5,17.55-15.68,17.43c-10-0.07-20,0.01-29.99-0.19c-4.4-0.09-6.96,0.95-6.59,6.1c0.41,5.61-2.8,12.57,0.46,16.54
		c3.5,4.26,10.68,0.88,16.23,1.24c5.31,0.34,10.66,0.3,15.99,0.29c4.45-0.01,6.43,1.64,6.59,6.51c0.61,18.81,0.77,18.79-18.18,18.95
		c-5.66,0.05-11.33,0.28-16.99,0.36c-3.27,0.05-4.54,1.62-4.9,4.87c-2.03,18.1-1.19,19.17,16.91,19.59
		c9.33,0.22,18.66,0.37,27.99,0.5c4.4,0.06,6.89,1.67,6.42,6.62c-0.4,4.31-0.53,8.66-0.41,12.99c0.13,4.54-2.19,5.66-6.19,5.58
		c-10.66-0.21-21.32-0.86-31.63,0.14c-11.35-0.03-22.35,0.03-33.34-0.11c-6.2-0.08-6.93-0.65-6.84-7
		c0.55-37.31,1.21-74.62,1.96-111.93c0.13-6.63,1.03-7.41,7.78-7.34c20.98,0.2,41.97,0.63,62.95,0.84c4.88,0.05,7.64,1.81,7.39,7.01
		C817.2-124.91,817.24-124.57,817.27-124.24z M872.49-21.93c-0.02,0.33,0.02,0.67,0.03,1c0.59,15.89,0.59,15.85-15.4,14.7
		c-6.64-0.48-13.3-0.71-19.94-1.07c-8.52-0.47-8.51-0.48-8.96-9.39c-0.1-1.99-0.27-3.98-0.41-5.98l0.24-0.01
		c0.69-32.95,1.25-65.89,2.13-98.84c0.25-9.48,0.66-9.48,9.79-9.17c16.51,0.55,16.55,0.55,16.3,17.42
		c-0.35,23.95-0.9,47.9-1.1,71.86c-0.08,10.13,0.19,10.59,10.12,11.36C871.12-29.61,872.87-27.1,872.49-21.93z M885.2-18.76
		c0.05,2.97,0.12,5.93,0.13,8.9c0.01,2.77-1.36,4.3-4.18,4.38c-2.87,0.09-5.5-0.46-5.53-4c-0.06-5.59,0.03-11.19,0.34-16.77
		c0.13-2.3,2.01-3.19,4.23-3.11c2.47,0.09,4.68,0.66,4.87,3.68c0.14,2.3,0.05,4.61,0.07,6.92L885.2-18.76z M905.4-18.47
		c-0.04,1.78-0.08,3.11-0.11,4.43c-0.23,8.99-0.8,9.33-9.6,8.88c-4.43-0.23-6.86-1.66-6.6-6.44c0.18-3.3-0.15-6.63,0.18-9.91
		c0.28-2.74-0.99-6.49,2.88-7.64s8.13-1.07,11.54,1.04C907.57-25.72,904.71-21.4,905.4-18.47z M995.3-20.36
		c-0.19,19.26,2.47,16.61-16.11,16.52c-15.32-0.07-30.65-0.05-45.97-0.08c-2.66,0-5.34,0.1-7.99-0.09
		c-7.15-0.51-7.84-1.22-7.68-8.53c0.48-21.65,1.08-43.3,1.58-64.95c0.31-13.32,0.44-26.65,0.79-39.97
		c0.29-10.93,0.38-10.93,11.07-11.07c14.66,0.06,14.78-2.08,14.22,14.35c-0.89,25.95-0.72,51.95-0.86,77.92
		c-0.04,8.04,0.17,7.97,8.41,8.03c11.66,0.1,23.32,0.26,34.98,0.53C994.68-27.52,995.37-27,995.3-20.36z M1073.09-62.22
		c-0.71,11.03-0.71,10.99-11.93,10.47c-6.97-0.32-13.95-0.37-20.91-0.81c-3.76-0.24-5.36,0.84-5.38,4.9
		c-0.06,12.95-0.52,25.9-0.72,38.85c-0.13,8.46-0.04,8.48-8.2,8.06c-2.32-0.12-4.65-0.67-6.95-0.52c-8.68,0.57-10.5,0.99-10.32-5.72
		c0.41-25.88,0.68-46.8,1.12-67.72c0.15-7.06,0.38-7.24,7.47-7.28c6.93-0.04,13.59,0.27,20.15,3.97c7.11,4,15.64,1.99,23.53,2.47
		C1073.9-74.78,1073.92-75.15,1073.09-62.22z M1068.5-101.28c-5.61-0.03-11.21,0.01-16.82-0.15c-6.98-0.2-13.85-0.1-19.93,4.07
		c-0.18,0.13-0.37,0.24-0.55,0.34c-1.3,0.7-2.62,0.71-3.85-0.53c-0.99,0.24-2.58,0.81-2.41,1.55c0.04,0.17,0.17,0.35,0.42,0.54
		c1.63,1.2,4.38,0.9,6.65,1.23c3.33,0.47,4.31,2.6,4.18,5.66c-0.14,3.05-2.08,4.03-4.65,3.97c-5.65-0.14-11.31-0.42-16.95-0.72
		c-2.77-0.14-4.15-1.69-4.23-4.49c-0.09-3.18,1.11-4.97,4.53-5.21c2.62-0.18,6.33,1.58,6.87-3.21c-0.69,0-1.38,0.01-2.07,0.02
		c-0.69,0-1.38,0.01-2.07,0.01c-0.39,0.1-0.77,0.2-1.15,0.28s-0.74,0.14-1.1,0.18c-0.36,0.04-0.7,0.06-1.02,0.04
		c-0.33-0.02-0.64-0.07-0.92-0.16c-1.15-0.37-1.97-1.39-2.19-3.6c-0.32-0.65-0.5-1.32-0.54-1.99c-0.02-0.33,0-0.67,0.05-1.01
		c0.03-0.17,0.06-0.34,0.11-0.51c0.05-0.17,0.1-0.34,0.17-0.51c-0.2-0.53-0.31-1.05-0.34-1.56c-0.04-0.86,0.18-1.69,0.67-2.5
		c-0.35-1.49-0.51-2.98-0.53-4.46c-0.02-0.99,0.03-1.98,0.12-2.97c0.05-0.49,0.1-0.99,0.17-1.48c0.13-0.99,0.3-1.97,0.49-2.96
		c-0.18-3.58-0.09-5.26,1.24-5.75c0.3-0.11,0.65-0.16,1.08-0.16c1.08,0,2.61,0.32,4.76,0.83c0.81-0.01,1.62-0.03,2.42-0.04
		c0.16,0,0.33-0.01,0.49-0.01c9.47-0.56,18.93-0.77,28.39-0.42c5.67,0.2,11.34,0.61,17,1.25c0.58-0.32,1.16-0.52,1.75-0.62
		c0.2-0.03,0.39-0.05,0.59-0.06c0.26-0.01,0.52,0,0.78,0.03c0.15,0.02,0.31,0.03,0.46,0.06c0.39,0.07,0.77,0.18,1.16,0.32
		c2.65-0.18,5.36-1.05,8.02-1.27c1.33-0.11,2.64-0.07,3.93,0.3c0.64,0.19,1.28,0.45,1.91,0.82c0.63,0.37,1.25,0.84,1.86,1.43
		c0.13,0.3,0.35,0.59,0.39,0.91C1090.53-101.18,1090.53-101.17,1068.5-101.28z M1173.41-17.91c0.34,16.98,0.51,16.98-16.19,17.09
		c-1.33,0.01-2.67-0.03-4-0.04l0,0.2c-15.99-0.13-31.98-0.12-47.97-0.45c-7.02-0.14-7.44-0.45-7.46-7.37
		c-0.05-17.65,0.18-35.3,0.57-52.95c0.41-18.65,1.12-37.29,1.73-55.94c0.28-8.56,0.57-8.79,9.36-8.45c2.99,0.11,5.98,0.26,8.98,0.39
		c7.26,0.33,7.74,0.72,7.55,8.34c-0.67,26.97-1.44,53.95-2.18,80.92c-0.04,1.33-0.14,2.66-0.09,3.99c0.23,6.37,0.3,6.42,6.97,6.54
		c11.98,0.21,23.97,0.59,35.95,0.54C1171.92-25.12,1173.31-22.91,1173.41-17.91z M1294.29-17.69c-21.86,20.01-49.45,22.17-72.73,9
		c-39.24-22.19-41.7-69.46-13.66-96.36c6.54-6.28,13.99-11.3,22.19-15.17c3.93-1.86,8.01-3.31,12.43-3.48
		c5.73-0.21,7.64,1.24,7.5,6.6c-0.16,6.25-0.19,11.98-7.96,15.36c-8.12,3.54-10.17,11.82-9.26,20.41c0.52,4.96,1.52,9.88,2.07,14.84
		c1.34,12.07,0.11,23.3-11.88,30.9c4.92,3.82,9.42,4.16,13.62,1.5c3.77-2.39,6.8-3.65,10.65-0.18c3.19,2.87,6.82,2.21,9.99-0.42
		c3.02-2.51,5.79-2.32,9.07-0.24c4.4,2.79,9.06,4.06,13.37-0.08c-0.07-3.14-2.51-4.24-3.81-6.07c-5.63-7.98-8.44-16.53-5.95-26.37
		c1.23-4.84,2.21-9.74,3.28-14.62c1.95-8.89-0.93-15.68-8.85-20.27c-2.85-1.65-6.23-2.83-6.71-6.77c-0.56-4.62-1.69-9.63,2.04-13.28
		c3.42-3.34,7.63-1,11.34,0.11c23.16,6.93,37.63,22.5,42.21,45.95C1317.64-53.77,1312.03-33.92,1294.29-17.69z M1580.39-120.44
		c0.58-8.6,0.64-8.69,9.1-9.3c13.95-1.01,27.92-2.35,41.89-0.5c13.22,1.75,24.18,7.29,30.68,19.6c3.24,6.13,2.05,8.49-4.88,8.78
		c-8.97,0.38-17.97,0.23-26.95,0.34c-1.32,0.02-2.64,0.17-4.64,0.31c1.62,2.95,4.01,2.53,6.01,2.57c8.65,0.18,17.31,0.2,25.96,0.35
		c1.99,0.03,4.03,0.09,5.94,0.58c2.52,0.65,3.83,2.54,3.62,5.2c-0.2,2.58-2.17,3.1-4.23,3.2c-5.66,0.27-11.32,0.35-16.97,0.67
		c-6.9,0.38-13.78,0.93-20.65,1.75c11.08,2.17,22.24,1,33.35,1.4c9.52,0.34,10.17,1.53,6.66,10.71c-3.17,8.29-8.1,15.41-14.97,20.89
		c-7.97,6.36-5.98,6.87-1.82,13.86c5.11,8.58,10.73,16.85,16.09,25.28c1.25,1.96,2.44,3.98,3.45,6.07c1.01,2.09,0.68,4.14-1.89,4.55
		c-7.91,1.25-15.9,1.77-23.9,1.41c-3.02-0.14-4.16-2.89-5.64-5.14c-8.77-13.35-17.63-26.64-26.44-39.97
		c-1.45-2.19-2.45-4.74-5.9-6.58c-1.63,11.74-0.82,22.75-1.43,33.69c-0.11,1.99,0.02,4-0.04,5.99c-0.35,10.97-0.61,11.2-11.34,10.88
		c-15.66-0.46-15.73-0.47-15.16-15.81C1577.52-53.26,1578.11-86.88,1580.39-120.44z M1485.74-13.39c0.55-24.27,1.41-48.54,2.23-72.8
		c0.36-10.64,0.77-21.28,1.45-31.9c0.71-11.15,1.48-12.25,12.24-12.33c20.63-0.16,41.26,0.33,61.88,0.41
		c4.31,0.02,5.71,1.92,5.89,6.05c0.83,19-0.14,20.18-19.1,19.48c-8.98-0.33-17.95-0.98-26.92-0.03c-7.43,0.79-8.22,1.22-8.34,8.34
		c-0.3,17.97-3.47,14.78,13.74,15.15c5.99,0.13,11.98,0.37,17.97,0.35c4.54-0.02,6.86,1.64,6.41,6.52
		c-0.43,4.64-0.68,9.3-0.73,13.96c-0.05,4.42-2.29,5.64-6.35,5.44c-4.31-0.22-8.65,0.05-12.97,0.1c-0.01-0.12-0.01-0.24-0.02-0.37
		c-2.32,0.16-4.66,0.22-6.96,0.5c-3.86,0.48-9.7-1.69-11.18,1.85c-2.5,5.98-2.88,13.02-0.82,19.54c1.12,3.54,4.79,3.11,7.71,3.16
		c11.31,0.23,22.62,0.36,33.93,0.48c9.22,0.1,9.29,0.07,9.09,9.63c-0.39,18.57,0.98,16.51-17,16.46
		c-17.63-0.05-35.26-0.37-52.89-0.7C1486.87-4.26,1485.56-5.3,1485.74-13.39z M1364.7-97.18c4.05,3.24,4.6,8.1,6.33,12.33
		c1.72,4.2,2.6,8.82,6.51,12.96c8.96-17.51,14.56-35.97,24.91-53.92c5.5,9.92,8.28,19.08,11.93,27.85
		c3.55,8.54,5.84,17.61,10.91,26.8c5.48-12.49,10.52-24.04,15.6-35.56c2.42-5.48,5.07-10.86,7.34-16.4c1.6-3.9,4.39-5.74,8.4-5.91
		c4.99-0.21,10-0.56,14.98-0.33c5.39,0.25,6.6,2.05,4.54,7.07c-5.07,12.32-10.45,24.51-15.71,36.75
		c-11.02,25.68-22.05,51.36-33.02,77.05c-0.92,2.15-1.71,4.31-4.47,6.84c-5.23-9.79-7.79-19.43-11.41-28.62
		c-3.63-9.22-6.85-18.6-10.98-29.91c-8.5,20.95-16.21,39.93-23.81,58.67c-3.4,0.45-3.53-1.91-4.29-3.59
		c-0.27-0.6-0.37-1.3-0.68-1.88c-10.92-20.62-11.31-42.73-9.42-65.22C1363.07-80.42,1363.3-88.67,1364.7-97.18z M1352.95-124.61
		c1.84-0.07,2.82,1.6,3.56,3.08c1.5,3.02,2.17,6.29,2.28,9.65c0.63,19.61-0.52,39.17-2.34,58.85c-4.33-4.44-6.23-9.67-6.61-15.28
		c-1.16-17.28-0.22-34.57,0.35-51.85C1350.26-122.05,1350.19-124.5,1352.95-124.61z M1346.24-122.79
		c-1.01,11.58,0.78,23.26-1.42,34.79c-0.15,0.79-0.57,1.17-2.35,1.01c-2.81-3.74-3.72-8.96-5.65-13.65
		c-2.64-6.45-5.13-12.98-7.42-19.56c-1.85-5.33-1.18-6.25,4.62-6.88c2.62-0.29,5.31-0.23,7.95-0.07
		C1344.57-127,1346.5-125.75,1346.24-122.79z"/>
	<path class="st0" d="M1246.08,96.56c-7.42-16.46-14.04-33.11-13.57-51.68c0.22-8.65,0-8.69-8.97-8.76
		c-1.33-0.01-2.66,0.04-3.99,0.07c-28.95,0.66-57.9,1.17-86.87,0.84c-13.32-0.15-26.62-0.59-39.9-1.37
		c-4.57-0.27-8.13,0.48-7.95,6.09c0.36,11.36-1.93,22.43-3.69,33.54c-3.37,21.22-13.9,38.65-29.35,53.09
		c-7.05,6.58-15.96,9.38-25.82,8.5c-3.5-0.31-7.06-0.61-11.5,0.92c3.85,2.99,6.69,5.76,10.02,7.68c7.17,4.14,14.54,7.92,21.9,11.71
		c19.4,9.99,40.55,8.41,56.86-7.96c3.96-3.97,7.74-10.22,13.03-10.17c6.17,0.06,8.26,7.82,12.17,12.18
		c4.69,5.23,9.33,10.45,15.96,13.24c14.21,5.99,25.99,0.77,36.53-8.55c4.47-3.95,8.22-8.71,12.27-13.13
		c2.72-2.96,5.5-3.26,8.69-0.62c4.11,3.39,8.34,6.63,12.55,9.88c6.62,5.11,14.04,9.71,22.04,10.76c8.37,1.1,17.24,0.69,25.79-1.39
		c13.28-3.23,24.24-9.98,33.06-21.22c-10.91-1.17-19.77-5.03-27.56-11.86C1257.75,119.58,1251.42,108.43,1246.08,96.56z"/>
	<path class="st3" d="M711.78-92.86c4.42-20.79-9.75-39.36-30.98-41.68c-11.55-1.26-23.22-1.44-34.84-2.08
		c-1.68-0.09-3.32,0.14-4.69,1.27c0.21,3.1,1.14,6.28-1.03,9.11c-0.06,5.8-0.13,11.6-0.19,17.4c-0.06,5.8-0.12,11.6-0.16,17.41
		c-0.01,2.01,0.21,4.03,2.46,4.99c12.08-1.6,23.95,0.22,35.89,2.04c-12.1,5.06-24.59,2.3-36.9,2.43c-1.58,6.2-1.72,8.29,1.27,9.1
		c0.99,0.27,2.34,0.4,4.09,0.49c7.64,0.4,15.3,0.42,22.94,0.78c2.79,0.13,6.05-0.84,8.24,2.65c-3.37,1.33-6.7,0.92-9.92,0.91
		c-6.98-0.03-13.97-0.45-20.95-0.42c-6.89,0.03-7.01,0.33-7.18,7.4c-0.27,10.97-0.61,21.95-0.81,32.92
		c-0.09,4.98,0.01,9.98,0.2,14.96c0.11,3.04,1.6,4.93,4.98,4.89c17.62-0.21,35.23,1.46,52.86,0.42c6.2-0.37,11.6-2.76,16.53-6.33
		c20.13-14.59,22.4-42.31,4.29-59.75C711.97-79.61,709.99-84.47,711.78-92.86z"/>
	<path class="st6" d="M1274.01-122.51c-3.71-1.11-7.91-3.45-11.34-0.11c-3.74,3.65-2.61,8.66-2.04,13.28
		c0.48,3.94,3.87,5.12,6.71,6.77c7.92,4.59,10.8,11.38,8.85,20.27c-1.07,4.88-2.05,9.78-3.28,14.62
		c-2.49,9.83,0.32,18.38,5.95,26.37c1.3,1.84,3.73,2.93,3.81,6.07c-4.31,4.14-8.97,2.86-13.37,0.08c-3.28-2.08-6.05-2.27-9.07,0.24
		c-3.17,2.63-6.81,3.3-9.99,0.42c-3.84-3.47-6.87-2.21-10.65,0.18c-4.2,2.66-8.69,2.32-13.62-1.5c11.99-7.59,13.22-18.83,11.88-30.9
		c-0.55-4.96-1.55-9.87-2.07-14.84c-0.91-8.59,1.15-16.88,9.26-20.41c7.77-3.39,7.8-9.11,7.96-15.36c0.14-5.36-1.78-6.81-7.5-6.6
		c-4.42,0.16-8.5,1.62-12.43,3.48c-8.2,3.87-15.65,8.9-22.19,15.17c-28.03,26.9-25.58,74.16,13.66,96.36
		c23.29,13.17,50.87,11.01,72.73-9c17.74-16.23,23.35-36.08,18.94-58.66C1311.65-100,1297.17-115.58,1274.01-122.51z"/>
	<path class="st3" d="M1594.43-4.06c10.73,0.32,10.99,0.08,11.34-10.88c0.06-2-0.07-4,0.04-5.99c0.61-10.94-0.2-21.95,1.43-33.69
		c3.45,1.85,4.45,4.39,5.9,6.58c8.81,13.32,17.67,26.62,26.44,39.97c1.47,2.24,2.62,5,5.64,5.14c8,0.36,15.99-0.16,23.9-1.41
		c2.58-0.41,2.9-2.46,1.89-4.55c-1.01-2.09-2.21-4.1-3.45-6.07c-5.36-8.43-10.98-16.7-16.09-25.28c-4.16-6.98-6.15-7.49,1.82-13.86
		c6.87-5.48,11.8-12.6,14.97-20.89c3.51-9.18,2.86-10.37-6.66-10.71c-11.1-0.4-22.27,0.77-33.35-1.4
		c6.87-0.83,13.76-1.37,20.65-1.75c5.65-0.31,11.32-0.4,16.97-0.67c2.07-0.1,4.03-0.62,4.23-3.2c0.21-2.67-1.1-4.55-3.62-5.2
		c-1.9-0.49-3.95-0.55-5.94-0.58c-8.65-0.15-17.31-0.17-25.96-0.35c-2-0.04-4.39,0.38-6.01-2.57c2.01-0.14,3.32-0.29,4.64-0.31
		c8.99-0.11,17.98,0.04,26.95-0.34c6.93-0.29,8.12-2.65,4.88-8.78c-6.51-12.31-17.47-17.85-30.68-19.6
		c-13.97-1.85-27.94-0.51-41.89,0.5c-8.46,0.61-8.52,0.7-9.1,9.3c-2.27,33.55-2.87,67.18-4.11,100.77
		C1578.7-4.53,1578.77-4.52,1594.43-4.06z"/>
	<path class="st3" d="M812.82-132.46c-20.98-0.21-41.97-0.64-62.95-0.84c-6.75-0.06-7.65,0.71-7.78,7.34
		c-0.75,37.31-1.41,74.62-1.96,111.93c-0.09,6.35,0.63,6.92,6.84,7c11,0.14,21.99,0.08,33.34,0.11c10.31-1,20.97-0.35,31.63-0.14
		c4,0.08,6.32-1.04,6.19-5.58c-0.12-4.32,0-8.68,0.41-12.99c0.47-4.95-2.03-6.56-6.42-6.62c-9.33-0.14-18.66-0.29-27.99-0.5
		c-18.1-0.42-18.94-1.48-16.91-19.59c0.36-3.25,1.63-4.82,4.9-4.87c5.66-0.08,11.33-0.31,16.99-0.36
		c18.95-0.17,18.79-0.14,18.18-18.95c-0.16-4.87-2.14-6.52-6.59-6.51c-5.33,0.01-10.68,0.06-15.99-0.29
		c-5.55-0.36-12.74,3.02-16.23-1.24c-3.26-3.97-0.05-10.93-0.46-16.54c-0.38-5.16,2.19-6.19,6.59-6.1
		c9.99,0.2,19.99,0.12,29.99,0.19c17.17,0.11,17.17,0.12,15.68-17.43c-0.03-0.33-0.07-0.67-0.05-1
		C820.45-130.64,817.7-132.41,812.82-132.46z"/>
	<path class="st3" d="M1374.79-7.2c0.31,0.58,0.4,1.27,0.68,1.88c0.76,1.69,0.89,4.04,4.29,3.59c7.6-18.74,15.3-37.72,23.81-58.67
		c4.13,11.3,7.35,20.68,10.98,29.91c3.62,9.19,6.18,18.83,11.41,28.62c2.75-2.53,3.55-4.68,4.47-6.84
		c10.97-25.7,22-51.37,33.02-77.05c5.25-12.24,10.64-24.43,15.71-36.75c2.06-5.02,0.85-6.82-4.54-7.07
		c-4.98-0.23-9.99,0.12-14.98,0.33c-4.01,0.17-6.8,2.01-8.4,5.91c-2.27,5.54-4.92,10.92-7.34,16.4
		c-5.09,11.53-10.13,23.07-15.6,35.56c-5.07-9.19-7.36-18.26-10.91-26.8c-3.64-8.77-6.43-17.93-11.93-27.85
		c-10.35,17.95-15.95,36.41-24.91,53.92c-3.91-4.14-4.8-8.77-6.51-12.96c-1.73-4.23-2.28-9.1-6.33-12.33
		c-1.4,8.51-1.63,16.76-2.32,24.97C1363.48-49.93,1363.87-27.82,1374.79-7.2z"/>
	<path class="st3" d="M1497.99-4.31c17.63,0.33,35.26,0.65,52.89,0.7c17.98,0.05,16.6,2.11,17-16.46c0.2-9.55,0.13-9.53-9.09-9.63
		c-11.31-0.12-22.62-0.24-33.93-0.48c-2.92-0.06-6.59,0.38-7.71-3.16c-2.06-6.52-1.69-13.56,0.82-19.54
		c1.48-3.54,7.32-1.38,11.18-1.85c2.31-0.29,4.64-0.34,6.96-0.5c0.01,0.12,0.01,0.24,0.02,0.37c4.33-0.05,8.66-0.32,12.97-0.1
		c4.06,0.2,6.3-1.02,6.35-5.44c0.06-4.66,0.31-9.32,0.73-13.96c0.45-4.88-1.87-6.55-6.41-6.52c-5.99,0.03-11.98-0.22-17.97-0.35
		c-17.2-0.37-14.04,2.82-13.74-15.15c0.12-7.12,0.91-7.56,8.34-8.34c8.97-0.95,17.94-0.3,26.92,0.03
		c18.96,0.7,19.93-0.47,19.1-19.48c-0.18-4.12-1.58-6.03-5.89-6.05c-20.63-0.08-41.26-0.58-61.88-0.41
		c-10.76,0.09-11.53,1.18-12.24,12.33c-0.68,10.62-1.09,21.26-1.45,31.9c-0.83,24.27-1.69,48.53-2.23,72.8
		C1488.55-5.5,1489.87-4.46,1497.99-4.31z"/>
	<path class="st3" d="M990.72-27.9c-11.66-0.28-23.32-0.43-34.98-0.53c-8.24-0.07-8.45,0.01-8.41-8.03
		c0.14-25.98-0.03-51.97,0.86-77.92c0.57-16.42,0.45-14.29-14.22-14.35c-10.69,0.14-10.78,0.14-11.07,11.07
		c-0.35,13.32-0.48,26.65-0.79,39.97c-0.5,21.65-1.1,43.3-1.58,64.95c-0.16,7.31,0.53,8.01,7.68,8.53c2.65,0.19,5.33,0.08,7.99,0.09
		c15.32,0.03,30.65,0.01,45.97,0.08c18.59,0.08,15.93,2.74,16.11-16.52C998.36-27.21,997.68-27.73,990.72-27.9z"/>
	<path class="st3" d="M1169.62-25.31c-11.98,0.05-23.97-0.34-35.95-0.54c-6.68-0.11-6.75-0.16-6.97-6.54
		c-0.05-1.33,0.06-2.66,0.09-3.99c0.73-26.97,1.5-53.95,2.18-80.92c0.19-7.62-0.29-8.01-7.55-8.34c-2.99-0.14-5.98-0.28-8.98-0.39
		c-8.79-0.34-9.08-0.11-9.36,8.45c-0.61,18.65-1.32,37.29-1.73,55.94c-0.39,17.65-0.62,35.3-0.57,52.95
		c0.02,6.92,0.44,7.23,7.46,7.37c15.98,0.33,31.98,0.32,47.97,0.45l0-0.2c1.33,0.02,2.67,0.05,4,0.04
		c16.7-0.11,16.53-0.11,16.19-17.09C1176.3-23.12,1174.91-25.33,1169.62-25.31z"/>
	<path class="st3" d="M868.3-30.27c-9.93-0.77-10.2-1.23-10.12-11.36c0.2-23.95,0.74-47.9,1.1-71.86
		c0.25-16.86,0.21-16.86-16.3-17.42c-9.13-0.31-9.54-0.31-9.79,9.17c-0.87,32.94-1.44,65.89-2.13,98.84l-0.24,0.01
		c0.14,1.99,0.31,3.98,0.41,5.98c0.45,8.91,0.44,8.92,8.96,9.39c6.65,0.37,13.3,0.6,19.94,1.07c15.99,1.15,15.99,1.19,15.4-14.7
		c-0.01-0.33-0.06-0.67-0.03-1C875.87-27.31,874.11-29.82,868.3-30.27z"/>
	<path class="st3" d="M1063.94-75.77c-7.88-0.48-16.42,1.53-23.53-2.47c-6.56-3.69-13.21-4.01-20.15-3.97
		c-7.09,0.04-7.32,0.23-7.47,7.28c-0.44,20.92-0.71,41.84-1.12,67.72c-0.18,6.71,1.64,6.29,10.32,5.72
		c2.29-0.15,4.63,0.41,6.95,0.52c8.16,0.41,8.07,0.39,8.2-8.06c0.19-12.95,0.65-25.9,0.72-38.85c0.02-4.06,1.62-5.14,5.38-4.9
		c6.96,0.44,13.94,0.49,20.91,0.81c11.22,0.52,11.22,0.56,11.93-10.47C1076.92-75.35,1076.9-74.98,1063.94-75.77z"/>
	<path class="st3" d="M1090.46-124.91c-2.84,0.77-5.65,1.72-8.54,2.25c-3.12,0.57-5.93-0.04-7.18-3.54
		c-0.39-0.15-0.78-0.25-1.16-0.32c-0.15-0.03-0.31-0.05-0.46-0.06c-0.26-0.03-0.52-0.04-0.78-0.03c-0.2,0.01-0.4,0.03-0.59,0.06
		c-0.59,0.1-1.17,0.3-1.75,0.62c-9.51,0.71-18.9,3.99-28.6,1.07c-4.04-1.22-7.74,1.51-11.7,1.86c-2.11,0.19-4.21,0.38-4.91-1.33
		c-0.12-0.29-0.19-0.62-0.23-1.02c-0.02-0.2-0.02-0.42-0.01-0.65c0.01-0.23,0.03-0.48,0.06-0.75c-0.16,0-0.33,0.01-0.49,0.01
		c-0.81,0.01-1.61,0.03-2.42,0.04l0,0c-0.74,0.21-1.42,0.51-2.07,0.86c-1.92,1.06-3.46,2.66-5.02,4.22
		c-0.19,0.99-0.36,1.97-0.49,2.96c-0.07,0.49-0.12,0.99-0.17,1.48c-0.09,0.99-0.14,1.98-0.12,2.97c0.02,1.48,0.18,2.97,0.53,4.46
		c1,0.18,2.02,0.58,2.13,1.64c0.17,1.65-1.22,2.04-2.47,2.42c-0.07,0.17-0.12,0.34-0.17,0.51c-0.05,0.17-0.08,0.34-0.11,0.51
		c-0.05,0.34-0.07,0.68-0.05,1.01c0.04,0.67,0.22,1.33,0.54,1.99c2.68,0.01,5.25,0.22,6.39,3.26c0.69-0.01,1.38-0.01,2.07-0.01
		c0.69-0.01,1.38-0.01,2.07-0.02c0.73-0.18,1.46-0.32,2.18-0.35c1.19-0.05,2.35,0.19,3.43,1.03c1.23,1.24,2.55,1.23,3.85,0.53
		c0.18-0.1,0.37-0.21,0.55-0.34c6.08-4.18,12.95-4.27,19.93-4.07c5.6,0.16,11.21,0.13,16.82,0.15c22.03,0.11,22.03,0.1,19.35-22.52
		C1090.81-124.31,1090.59-124.61,1090.46-124.91z"/>
	<path class="st3" d="M1359.44-53.24c1.81-19.68,2.97-39.23,2.34-58.85c-0.11-3.36-0.77-6.62-2.28-9.65
		c-0.74-1.49-1.72-3.16-3.56-3.08c-2.77,0.11-2.69,2.56-2.75,4.45c-0.57,17.28-1.51,34.57-0.35,51.85
		C1353.22-62.91,1355.11-57.68,1359.44-53.24z"/>
	<path class="st3" d="M1337.02-127.3c-5.8,0.63-6.48,1.55-4.62,6.88c2.29,6.58,4.78,13.11,7.42,19.56c1.92,4.7,2.84,9.91,5.65,13.65
		c1.77,0.16,2.2-0.21,2.35-1.01c2.2-11.53,0.42-23.21,1.42-34.79c0.26-2.96-1.67-4.2-4.26-4.36
		C1342.33-127.53,1339.64-127.58,1337.02-127.3z"/>
	<path class="st3" d="M906.67-28.32c-3.42-2.1-7.67-2.19-11.54-1.04c-3.87,1.16-2.6,4.9-2.88,7.64c-0.33,3.27,0,6.61-0.18,9.91
		c-0.26,4.78,2.17,6.21,6.6,6.44c8.8,0.45,9.37,0.11,9.6-8.88c0.03-1.32,0.07-2.64,0.11-4.43C907.7-21.6,910.56-25.93,906.67-28.32z
		"/>
	<path class="st4" d="M1024.74-98.43L1024.74-98.43c-0.54,4.78-4.25,3.03-6.87,3.21c-3.41,0.23-4.62,2.03-4.53,5.21
		c0.08,2.81,1.45,4.35,4.23,4.49c5.65,0.29,11.3,0.58,16.95,0.72c2.57,0.06,4.52-0.92,4.65-3.97c0.14-3.07-0.84-5.19-4.18-5.66
		c-2.27-0.32-5.02-0.02-6.65-1.23c-0.25-0.19-0.38-0.37-0.42-0.54c-0.17-0.74,1.42-1.32,2.41-1.55c-1.08-0.84-2.24-1.08-3.43-1.03
		C1026.2-98.75,1025.47-98.61,1024.74-98.43z"/>
	<path class="st3" d="M883.19-29.57c-2.23-0.08-4.1,0.8-4.23,3.11c-0.31,5.58-0.4,11.18-0.34,16.77c0.04,3.54,2.67,4.09,5.53,4
		c2.82-0.09,4.19-1.61,4.18-4.38c-0.01-2.97-0.09-5.93-0.13-8.9l-0.07,0c-0.01-2.31,0.07-4.62-0.07-6.92
		C887.87-28.91,885.66-29.48,883.19-29.57z"/>
	<path class="st2" d="M678.23-84.4c-11.94-1.82-23.81-3.64-35.89-2.04c0.26,0.84,0.13,1.59-0.13,2.32
		c-0.26,0.73-0.64,1.42-0.88,2.15C653.64-82.1,666.13-79.34,678.23-84.4z"/>
	<path class="st4" d="M1024.53-126c-0.01,0.23,0,0.45,0.01,0.65c0.03,0.4,0.11,0.74,0.23,1.02c0.7,1.71,2.8,1.51,4.91,1.33
		c3.96-0.35,7.66-3.08,11.7-1.86c9.71,2.93,19.09-0.36,28.6-1.07c-5.66-0.64-11.33-1.04-17-1.25c-9.45-0.34-18.92-0.14-28.39,0.42
		C1024.56-126.48,1024.54-126.23,1024.53-126z"/>
	<path class="st4" d="M1081.91-122.66c2.89-0.53,5.7-1.48,8.54-2.25c-0.61-0.59-1.23-1.06-1.86-1.43c-0.63-0.37-1.27-0.64-1.91-0.82
		c-1.29-0.37-2.6-0.42-3.93-0.3c-2.66,0.23-5.37,1.09-8.02,1.27l0,0C1075.98-122.7,1078.79-122.09,1081.91-122.66z"/>
	<path class="st2" d="M1415.58-39.6c-1.5,1.18-2.05,2.46-2.12,3.8c-0.01,0.19-0.01,0.38,0,0.58c0.07,1.55,0.66,3.15,1.09,4.74
		C1416.72-33.32,1415.79-36.5,1415.58-39.6z"/>
	<path class="st4" d="M1014.59-121.61c1.56-1.56,3.1-3.16,5.02-4.22c0.64-0.35,1.32-0.65,2.07-0.86l0,0
		c-2.15-0.51-3.68-0.83-4.76-0.83c-0.43,0-0.79,0.05-1.08,0.16C1014.5-126.87,1014.41-125.19,1014.59-121.61z"/>
	<path class="st4" d="M1014.22-101.66c0.21,2.21,1.03,3.24,2.19,3.6c0.29,0.09,0.6,0.14,0.92,0.16c0.33,0.02,0.67,0,1.02-0.04
		c0.36-0.04,0.72-0.1,1.1-0.18c0.38-0.08,0.76-0.18,1.15-0.28C1019.47-101.44,1016.9-101.65,1014.22-101.66z"/>
	<path class="st4" d="M1016.47-108.1c-0.11-1.06-1.13-1.46-2.13-1.64c-0.49,0.81-0.71,1.65-0.67,2.5c0.02,0.51,0.14,1.03,0.34,1.56
		v0C1015.26-106.06,1016.64-106.45,1016.47-108.1z"/>
</g>
</svg>
