<?xml version="1.0" encoding="utf-8"?>
<!-- Generator: Adobe Illustrator 23.0.6, SVG Export Plug-In . SVG Version: 6.00 Build 0)  -->
<svg version="1.1" id="Layer_1" xmlns="http://www.w3.org/2000/svg" xmlns:xlink="http://www.w3.org/1999/xlink" x="0px" y="0px"
	 viewBox="0 0 400 362.34" style="enable-background:new 0 0 400 362.34;" xml:space="preserve">
<style type="text/css">
	.st0{fill:#23201B;}
	.st1{fill:#312826;}
	.st2{fill:#CABBA8;}
	.st3{fill:#E0D2BC;}
	.st4{fill:#D0C1AD;}
	.st5{opacity:0.28;fill:#312826;}
	.st6{fill:#F26805;}
</style>
<g>
	<path class="st0" d="M207.99,342.94c0.1,0.58,0.23,1.15,0.4,1.72C208.22,344.09,208.09,343.52,207.99,342.94z"/>
	<path class="st0" d="M203.18,28.19c21.27,0,39.4-11.61,46.35-27.89L248.86,0l-92.04,0.3C163.78,16.58,181.91,28.19,203.18,28.19z"
		/>
	<path class="st1" d="M203.18,28.19c21.27,0,39.4-11.61,46.35-27.89L248.86,0l-92.04,0.3C163.78,16.58,181.91,28.19,203.18,28.19z"
		/>
	<g>
		<path class="st2" d="M212.44,11.01c-0.14-0.25-0.19-0.51-0.17-0.78c0.01-0.09,0.02-0.18,0.04-0.27c-0.03-0.01-0.06-0.02-0.09-0.02
			c-0.02,0-0.04,0-0.06,0c0.05,0.73,0.09,1.47,0.11,2.2C212.33,11.77,212.39,11.39,212.44,11.01z"/>
		<path class="st3" d="M208.22,4.41c0.08,0.01,0.16,0.01,0.23,0c0.08-0.01,0.15-0.02,0.23-0.03c0.07-0.02,0.15-0.04,0.22-0.07l0,0
			c0.03,0.05,0.05,0.11,0.08,0.16c0.11-0.04,0.23-0.07,0.35-0.08c0.03,0,0.06-0.01,0.09-0.01l0.03,0c0.03,0,0.05,0,0.08,0
			c0.11,0.01,0.22,0.03,0.33,0.07l0,0c0.09-0.03,0.17-0.05,0.26-0.05c0.21-0.01,0.41,0.06,0.61,0.12c0.04,0.01,0.08,0.03,0.12,0.04
			c0.33,0.04,0.57,0.16,0.74,0.35c0.03-0.12,0.06-0.23,0.1-0.35c-0.02-0.25-0.05-0.5-0.07-0.74c-0.66,0.08-1.32,0.09-1.98,0.16
			c-0.4,0.04-0.79,0.1-1.18,0.2C208.38,4.28,208.3,4.36,208.22,4.41z"/>
		<path class="st3" d="M206.54,8.69C206.54,8.69,206.54,8.69,206.54,8.69c0.44-0.01,0.87-0.04,1.31-0.09c0,0,0,0,0,0
			C207.41,8.65,206.98,8.68,206.54,8.69z"/>
		<path class="st3" d="M197.29,8.3c-0.01-1,0.36-1.41,1.27-1.11c0.69,0.23,1.29,0.19,1.94,0.04c0.23-0.05,0.46-0.07,0.69-0.03
			c-1.34-1.35-2.42-2.44-2.93-2.98c-0.32-0.07-0.65-0.16-0.96-0.28l-0.04-0.01c-0.12-0.02-0.25-0.04-0.37-0.07l0,0l0,0
			c-0.19,0.33-0.38,0.65-0.57,0.98c-0.16,0.54,0.03,1.12-0.21,1.65c0.15,0.44,0.14,0.89,0.06,1.35c0.19,0.53,0.23,1.07,0.13,1.62
			c0.05,0.13,0.1,0.26,0.15,0.39c0.05,0.13,0.1,0.26,0.15,0.39C197.65,9.87,197.3,9.02,197.29,8.3z"/>
		<path class="st3" d="M201.88,4.57c-0.32-0.03,0,0.57,0.69,1.53c0.68-0.42,1.43-0.7,2.12-1.09c0.31,0.04,0.6,0.01,0.83-0.23
			c0.05,0.01,0.09,0.01,0.14,0.01c0.13,0,0.25-0.05,0.36-0.15c0.45-0.01,0.9-0.01,1.35-0.02l0,0c0.19-0.02,0.37-0.04,0.56-0.06
			c0-0.02,0.01-0.03,0.01-0.05c-0.19,0.02-0.39-0.06-0.6-0.23c-0.15-0.05-0.29-0.08-0.44-0.1c-0.05-0.01-0.1-0.01-0.15-0.02
			c-0.16-0.01-0.32-0.02-0.48-0.01c-0.05,0-0.1,0.01-0.15,0.01c-0.16,0.02-0.32,0.04-0.48,0.07c-0.08,0.02-0.16,0.03-0.24,0.05
			C204.27,4.69,203.08,4.7,201.88,4.57z"/>
		<path class="st2" d="M196.9,3.86c-0.14-0.07-0.28-0.14-0.42-0.2c-0.1,0.24-0.21,0.49-0.31,0.73c0.05,0.15,0.11,0.3,0.16,0.45
			C196.52,4.51,196.71,4.19,196.9,3.86L196.9,3.86z"/>
		<path class="st2" d="M207.95,4.52c0,0.02-0.01,0.03-0.01,0.05c0.37,0.24,0.71,0.22,1.04-0.08c-0.03-0.05-0.05-0.11-0.08-0.16l0,0
			c-0.07,0.03-0.15,0.05-0.22,0.07c-0.07,0.02-0.15,0.03-0.23,0.03c-0.08,0.01-0.16,0.01-0.23,0c0.08-0.06,0.16-0.13,0.24-0.23
			c-0.1-0.05-0.19-0.08-0.29-0.09c-0.05-0.01-0.09-0.01-0.14-0.01c-0.23,0-0.46,0.09-0.68,0.2C207.56,4.46,207.76,4.54,207.95,4.52z
			"/>
		<path class="st4" d="M198.38,9.26c0.38-0.25,0.75-0.5,1.12-0.76c-0.13-0.12-0.35-0.12-0.57-0.05c-0.31,0.1-0.85-0.02-0.81,0.48
			C198.14,9.14,198.24,9.22,198.38,9.26z"/>
		<path class="st4" d="M197.17,21c-0.02-0.06-0.03-0.12-0.05-0.18c-0.12,0.48-0.05,0.96,0.01,1.44c0.02,0.12,0.04,0.23,0.07,0.33
			C197.14,22.06,197.13,21.53,197.17,21z"/>
		<path class="st2" d="M211.85,5.4c-0.04-0.28-0.09-0.55-0.16-0.82c-0.04,0.12-0.08,0.24-0.1,0.35
			C211.71,5.06,211.79,5.21,211.85,5.4z"/>
		<path class="st2" d="M212.07,8.69c0.02,0.21,0.03,0.43,0.05,0.64C212.19,9.11,212.17,8.9,212.07,8.69z"/>
		<path class="st2" d="M208.55,20.76c0.66-0.15,1.25-0.19,1.94,0.04c0.91,0.3,1.28-0.11,1.27-1.11c-0.01-0.72-0.35-1.57,0.68-1.93
			c-0.01-0.18-0.01-0.36-0.02-0.54c0.01-0.07,0.01-0.14,0-0.21c0-0.03-0.01-0.06-0.02-0.09c-0.01-0.23-0.02-0.45-0.02-0.68
			c-0.01-0.23-0.02-0.45-0.02-0.68c-2.41-0.17-4.82-0.44-7.24-0.48c-0.99-0.02-1.99-0.01-2.98-0.03c-1.77-1.78-3.34-3.37-4.2-4.28
			c0.68-0.07,1.39-0.01,1.98-0.44c0.17-0.12,0.54,0.09,0.71,0.3c0.47,0.57,1.08,0.55,1.73,0.5c1.52-0.11,3.04-0.27,4.58-0.03
			c0.93,0.15,1.48-0.41,1.63-1.53c-0.01-0.01-0.01-0.01-0.02-0.02c-0.08-0.07-0.17-0.15-0.25-0.22c-0.01-0.11-0.02-0.21-0.02-0.32
			c-0.01-0.15-0.02-0.31-0.03-0.46l0,0v0c-0.13,0.02-0.25,0.03-0.38,0.04c0,0,0,0,0,0c-0.44,0.05-0.87,0.07-1.31,0.09c0,0,0,0,0,0
			c-0.33,0.01-0.65,0.01-0.98,0.01c0,0,0,0,0,0c-0.2,0-0.4,0-0.6,0l0,0c-0.45-0.01-0.9-0.01-1.35-0.02c-0.02,0-0.04,0-0.06,0
			c-0.25,0-0.5,0-0.75,0c-0.26,0-0.52,0.01-0.77,0.02c-0.26,0.01-0.61,0.06-0.67-0.27c-0.07-0.36,0.24-0.7,0.53-0.64
			c0.77,0.16,0.77-0.64,1.14-0.86c0.36,0.01,0.38,0.27,0.53,0.43c0.57,0.61,1.42,0.44,1.47-0.37c0.09-1.26,0.59-1.93,1.89-1.93
			c0.24,0,0.37-0.23,0.45-0.45l0,0c-0.45,0.01-0.9,0.01-1.35,0.02c-0.11,0.09-0.23,0.14-0.36,0.15c-0.04,0-0.09,0-0.14-0.01
			c-0.23,0.24-0.52,0.27-0.83,0.23c-0.69,0.39-1.45,0.67-2.12,1.09c-0.69-0.96-1.01-1.56-0.69-1.53c1.19,0.13,2.38,0.12,3.54-0.27
			c-0.47-0.19-0.97-0.15-1.46-0.1c-1.71,0.2-3.39,0-5.08-0.23c-0.13-0.02-0.26-0.04-0.39-0.06c-0.04-0.01-0.08-0.01-0.12-0.02
			c-0.05-0.01-0.09-0.01-0.14-0.02c-0.03,0-0.05-0.01-0.08-0.01c-0.04,0-0.07-0.01-0.11-0.01c-0.03,0-0.07,0-0.1-0.01
			c-0.02,0,0.09,0.13,0.32,0.37c0.51,0.54,1.59,1.63,2.93,2.98c-0.23-0.03-0.46-0.02-0.69,0.03c-0.66,0.15-1.25,0.19-1.94-0.04
			c-0.91-0.3-1.28,0.11-1.27,1.11c0.01,0.72,0.35,1.57-0.68,1.93c0.01,0.18,0.01,0.36,0.02,0.54c-0.01,0.07-0.01,0.14,0,0.21
			c0,0.03,0.01,0.06,0.02,0.09c0.01,0.23,0.02,0.45,0.02,0.68c0.01-0.15,0.02-0.3,0.03-0.45c0.27-0.27,0.58-0.4,0.91-0.46
			c0.66,0.92,1.94,2.48,3.37,4.2c-0.67-0.02-1.35-0.06-2.02-0.12c-0.73-0.07-1.39,0.34-2.1,0.45c-0.02,0.16-0.05,0.32-0.07,0.48
			c-0.06,0.38-0.11,0.75-0.17,1.13c0.14,0.25,0.19,0.51,0.17,0.78c-0.01,0.09-0.02,0.18-0.04,0.27c0.03,0.01,0.06,0.02,0.09,0.02
			c0.02,0,0.04,0,0.06,0c0.01,0,0.02,0,0.04,0c0.07-0.01,0.14-0.02,0.21-0.03c0.13-0.01,0.25-0.01,0.36,0.02
			c0.11,0.02,0.21,0.06,0.3,0.1c0.49,0.26,0.68,0.86,0.72,1.32c0.08,1.05,0.99,1.27,1.42,1.93c0.26,0.4,0.98,0.18,1.2-0.33
			c0.29-0.67,0.44-1.36-0.17-1.99c0.57-0.31,1.06,0.11,1.49-0.21c0.21,0.87-0.09,1.49-0.49,1.99c0.06,0.26,0.2,0.34,0.32,0.32
			c1.14-0.18,2.32-0.03,3.45-0.26c1.17,1.53,1.85,2.57,1.43,2.53c-1.19-0.13-2.38-0.12-3.54,0.27c0.47,0.19,0.97,0.15,1.46,0.1
			c1.71-0.2,3.39,0,5.08,0.23c0.13,0.02,0.26,0.04,0.39,0.06c0.04,0.01,0.08,0.01,0.12,0.02c0.05,0.01,0.09,0.01,0.14,0.02
			c0.03,0,0.05,0.01,0.08,0.01c0.04,0,0.07,0.01,0.11,0.01c0.03,0,0.07,0,0.1,0.01c0.02,0-0.09-0.13-0.32-0.37
			c-0.51-0.54-1.59-1.63-2.93-2.98C208.09,20.83,208.32,20.82,208.55,20.76z M198.93,8.44c0.22-0.07,0.44-0.07,0.57,0.05
			c-0.37,0.26-0.74,0.51-1.12,0.76c-0.14-0.03-0.25-0.12-0.26-0.34C198.08,8.42,198.62,8.53,198.93,8.44z M208.13,20.31
			c-0.06-0.01-0.11-0.02-0.16-0.05c-0.14-0.08-0.21-0.23-0.23-0.41c0.02-0.13,0.07-0.22,0.14-0.29c0.05-0.05,0.12-0.07,0.2-0.09
			l0.01,0c0.03,0,0.06-0.01,0.09-0.01c0.25,0,0.43,0.11,0.43,0.38C208.63,20.16,208.44,20.34,208.13,20.31z M210.13,19.55
			c-0.34,0.1-0.66,0.06-0.71-0.36c-0.05-0.47,0.37-0.39,0.66-0.47c0.33,0.03,0.83-0.15,0.86,0.35
			C210.98,19.56,210.44,19.45,210.13,19.55z M203.82,20.36c-0.47-0.13-0.2-0.52-0.3-0.77c-0.01-0.2-0.04-0.38-0.03-0.55
			c0-0.07,0.08-0.16,0.15-0.2c0.14-0.07,0.27-0.02,0.34,0.11c0.08,0.16,0.13,0.33,0.18,0.5c0.1,0.3,0.25,0.6-0.09,0.85
			C204,20.35,203.89,20.38,203.82,20.36z"/>
		<path class="st3" d="M198.95,14.91c0.67,0.06,1.35,0.1,2.02,0.12c-1.42-1.72-2.71-3.28-3.37-4.2c-0.33,0.07-0.64,0.2-0.91,0.46
			c-0.01,0.15-0.02,0.3-0.03,0.45c-0.01,0.19-0.02,0.38-0.02,0.57c0,0.08,0,0.15,0,0.23c-0.01,0.03-0.01,0.06-0.02,0.08
			c-0.01,0.05-0.01,0.09,0,0.14c0,0.04,0.01,0.09,0.03,0.13c0,0.14,0.01,0.29,0.02,0.43c0.01,0.17,0.02,0.34,0.03,0.51
			c0.01,0.09,0.02,0.17,0.02,0.26c0.01,0.58,0.03,1.16,0.05,1.74c0.02-0.16,0.05-0.32,0.07-0.48
			C197.56,15.25,198.22,14.84,198.95,14.91z"/>
		<path class="st3" d="M211.46,7.64c-0.4,1.02-0.41,1.05-1.36,0.91c-0.63-0.09-1.25-0.02-1.87,0.02v0l0,0
			c0.01,0.15,0.02,0.31,0.03,0.46c0.01,0.11,0.02,0.21,0.02,0.32c0.08,0.07,0.17,0.15,0.25,0.22c0.01,0.01,0.01,0.01,0.02,0.02
			c-0.15,1.12-0.69,1.68-1.63,1.53c-1.53-0.24-3.05-0.08-4.58,0.03c-0.64,0.04-1.26,0.07-1.73-0.5c-0.17-0.21-0.54-0.43-0.71-0.3
			c-0.58,0.42-1.3,0.36-1.98,0.44c0.86,0.91,2.43,2.5,4.2,4.28c0.99,0.01,1.98,0.01,2.98,0.03c2.41,0.04,4.83,0.31,7.24,0.48
			c0.01,0.23,0.02,0.45,0.02,0.68c0.01-0.19,0.02-0.38,0.02-0.57c0-0.08,0-0.15,0-0.23c0.01-0.03,0.01-0.06,0.02-0.08
			c0.01-0.05,0.01-0.09,0-0.14c0-0.04-0.01-0.09-0.03-0.13c0-0.14-0.01-0.29-0.02-0.43c-0.01-0.17-0.02-0.34-0.03-0.51
			c-0.01-0.09-0.02-0.17-0.02-0.26c-0.01-0.58-0.03-1.16-0.05-1.74c-0.03-0.73-0.07-1.47-0.11-2.2c-0.01-0.21-0.03-0.41-0.04-0.62
			c-0.02-0.21-0.03-0.43-0.05-0.64c-0.01-0.11-0.02-0.22-0.03-0.34c0.01-0.19,0.01-0.38-0.01-0.56c-0.02-0.21-0.05-0.41-0.1-0.62
			c0,0.01,0,0.02-0.01,0.03C211.72,7.29,211.55,7.41,211.46,7.64z M206.75,14.46c-0.63-0.06-1.26-0.03-1.89,0
			c-0.72,0.05-1.44,0.11-2.16,0.15c-0.27,0.01-0.6-0.04-0.66-0.35c-0.06-0.36,0.28-0.39,0.54-0.43c1.39-0.24,2.78,0.04,4.17,0.02
			c0.18,0,0.35,0.11,0.35,0.33C207.12,14.42,206.92,14.48,206.75,14.46z"/>
		<path class="st3" d="M207.18,23.41c0.42,0.04-0.26-1-1.43-2.53c-1.13,0.23-2.31,0.08-3.45,0.26c-0.12,0.02-0.26-0.05-0.32-0.32
			c0.39-0.5,0.69-1.12,0.49-1.99c-0.43,0.32-0.92-0.1-1.49,0.21c0.61,0.63,0.46,1.32,0.17,1.99c-0.22,0.51-0.94,0.74-1.2,0.33
			c-0.43-0.66-1.34-0.88-1.42-1.93c-0.03-0.46-0.23-1.07-0.72-1.32c-0.09-0.05-0.19-0.08-0.3-0.1c-0.11-0.02-0.23-0.03-0.36-0.02
			c-0.07,0.01-0.13,0.02-0.21,0.03c-0.01,0-0.02,0-0.04,0c0.01,0.21,0.03,0.41,0.04,0.62c0.01-0.03,0.02-0.06,0.03-0.09
			c0.16,0.12,0.24,0.25,0.25,0.39c0,0.03,0,0.07-0.01,0.1c-0.02,0.1-0.08,0.21-0.18,0.32c-0.02-0.03-0.03-0.06-0.05-0.09
			c0.01,0.11,0.02,0.22,0.03,0.34c-0.01,0.19-0.01,0.38,0.01,0.56c0.02,0.21,0.05,0.41,0.1,0.62c0.01,0.06,0.03,0.12,0.05,0.18
			c0.23,0.39,0.36,0.78,0.39,1.18c0,0.05,0.01,0.1,0.01,0.15c0,0.35-0.06,0.71-0.19,1.08c0.02,0.25,0.05,0.5,0.07,0.74
			c0.66-0.08,1.32-0.09,1.98-0.16c0.4-0.04,0.79-0.1,1.18-0.2c0.33-0.42,0.7-0.45,1.11-0.1c0.15,0.05,0.29,0.08,0.44,0.1
			c0.05,0.01,0.1,0.01,0.15,0.02c0.16,0.01,0.32,0.02,0.48,0.01c0.05,0,0.1-0.01,0.15-0.01c0.16-0.02,0.32-0.04,0.48-0.07
			c0.08-0.02,0.16-0.03,0.24-0.05C204.79,23.29,205.98,23.29,207.18,23.41z"/>
		<path class="st3" d="M212.75,18.53c-0.05-0.13-0.1-0.26-0.15-0.39c-0.05-0.13-0.1-0.26-0.15-0.39c-1.03,0.36-0.69,1.21-0.68,1.93
			c0.01,1-0.36,1.41-1.27,1.11c-0.69-0.23-1.29-0.19-1.94-0.04c-0.23,0.05-0.46,0.07-0.69,0.03c1.34,1.35,2.42,2.44,2.93,2.98
			c0.32,0.07,0.65,0.16,0.96,0.28l0.04,0.01c0.12,0.02,0.25,0.04,0.37,0.07l0,0l0,0c0.19-0.33,0.38-0.65,0.57-0.98
			c0.16-0.54-0.03-1.12,0.21-1.65c-0.15-0.44-0.14-0.89-0.06-1.35C212.69,19.62,212.64,19.08,212.75,18.53z"/>
		<path class="st2" d="M212.16,24.13c0.14,0.07,0.28,0.14,0.42,0.2c0.1-0.24,0.21-0.49,0.31-0.73c-0.05-0.15-0.11-0.3-0.16-0.45
			C212.54,23.47,212.35,23.8,212.16,24.13L212.16,24.13z"/>
		<path class="st2" d="M200.6,23.8c0.1,0.05,0.19,0.08,0.29,0.09c0.05,0.01,0.09,0.01,0.14,0.01c0.23,0,0.46-0.09,0.68-0.2
			C201.3,23.36,200.93,23.38,200.6,23.8z"/>
		<path class="st4" d="M210.08,18.72c-0.28,0.07-0.7,0-0.66,0.47c0.04,0.41,0.37,0.46,0.71,0.36c0.31-0.1,0.85,0.02,0.81-0.48
			C210.9,18.57,210.41,18.75,210.08,18.72z"/>
		<path class="st4" d="M204.16,19.46c-0.06-0.17-0.1-0.34-0.18-0.5c-0.07-0.14-0.2-0.19-0.34-0.11c-0.07,0.04-0.14,0.13-0.15,0.2
			c-0.01,0.18,0.02,0.35,0.03,0.55c0.1,0.24-0.17,0.64,0.3,0.77c0.07,0.02,0.18-0.01,0.25-0.06
			C204.4,20.06,204.25,19.75,204.16,19.46z"/>
		<path class="st4" d="M208.19,19.47c-0.03,0-0.06,0-0.09,0.01l-0.01,0c-0.08,0.01-0.15,0.04-0.2,0.09
			c-0.07,0.06-0.12,0.16-0.14,0.29c0.01,0.18,0.09,0.34,0.23,0.41c0.05,0.03,0.1,0.04,0.16,0.05c0.31,0.03,0.49-0.15,0.49-0.47
			C208.62,19.58,208.44,19.47,208.19,19.47z"/>
		<path class="st4" d="M210.84,4.57c-0.34,0.04-0.68,0.09-0.99-0.11c-0.11-0.04-0.22-0.06-0.33-0.07c-0.03,0-0.05,0-0.08,0l-0.03,0
			c-0.03,0-0.06,0-0.09,0.01c-0.12,0.01-0.23,0.04-0.35,0.08c-0.32,0.3-0.67,0.33-1.04,0.08c-0.19,0.02-0.37,0.04-0.56,0.06
			c-0.08,0.22-0.21,0.45-0.45,0.45c-1.3,0-1.81,0.66-1.89,1.93c-0.05,0.8-0.9,0.98-1.47,0.37c-0.14-0.15-0.17-0.42-0.53-0.43
			c-0.37,0.22-0.37,1.01-1.14,0.86c-0.3-0.06-0.6,0.28-0.53,0.64c0.06,0.33,0.41,0.29,0.67,0.27c0.26-0.01,0.52-0.02,0.77-0.02
			c0.25,0,0.5,0,0.75,0c0.02,0,0.04,0,0.06,0c0.45,0,0.9,0.01,1.35,0.02l0,0c0.2,0,0.4,0,0.6,0c0,0,0,0,0,0c0.33,0,0.65,0,0.98-0.01
			c0.44-0.01,0.87-0.04,1.31-0.09c0.13-0.01,0.25-0.03,0.38-0.04c0.62-0.04,1.24-0.11,1.87-0.02c0.95,0.14,0.96,0.11,1.36-0.91
			c0.09-0.23,0.26-0.35,0.47-0.44c0-0.01,0-0.02,0.01-0.03c0.12-0.48,0.05-0.96-0.01-1.44c-0.02-0.12-0.04-0.23-0.07-0.33
			c-0.06-0.18-0.14-0.34-0.26-0.47C211.42,4.74,211.17,4.61,210.84,4.57z M208.31,7.4c-0.37,0.09-0.7,0.06-0.88-0.35
			c-0.03-0.32,0.14-0.5,0.42-0.58c0.37-0.09,0.73-0.07,0.86,0.35C208.81,7.13,208.6,7.33,208.31,7.4z"/>
		<path class="st2" d="M206.76,13.85c-1.39,0.02-2.78-0.26-4.17-0.02c-0.26,0.05-0.61,0.07-0.54,0.43c0.05,0.31,0.38,0.36,0.66,0.35
			c0.72-0.03,1.44-0.1,2.16-0.15c0.63-0.03,1.26-0.07,1.89,0c0.17,0.02,0.37-0.04,0.37-0.29C207.11,13.96,206.95,13.85,206.76,13.85
			z"/>
		<path class="st2" d="M197.56,22.33c0-0.05,0-0.1-0.01-0.15c-0.03-0.4-0.15-0.8-0.39-1.18c-0.04,0.53-0.03,1.06,0.04,1.59
			c0.04,0.28,0.09,0.55,0.16,0.82C197.5,23.05,197.57,22.69,197.56,22.33z"/>
		<path class="st2" d="M197.22,19.06c0.01-0.03,0.01-0.07,0.01-0.1c-0.01-0.14-0.09-0.27-0.25-0.39c-0.01,0.03-0.02,0.06-0.03,0.09
			c-0.07,0.22-0.05,0.43,0.05,0.64c0.01,0.03,0.03,0.06,0.05,0.09C197.14,19.27,197.2,19.17,197.22,19.06z"/>
		<path class="st2" d="M210.84,4.57c-0.04-0.01-0.08-0.03-0.12-0.04c-0.2-0.07-0.4-0.13-0.61-0.12c-0.08,0-0.17,0.02-0.26,0.05l0,0
			C210.16,4.67,210.5,4.61,210.84,4.57z"/>
		<path class="st2" d="M207.86,6.47c-0.28,0.07-0.45,0.25-0.42,0.58c0.18,0.41,0.51,0.44,0.88,0.35c0.28-0.07,0.5-0.27,0.41-0.57
			C208.59,6.4,208.22,6.38,207.86,6.47z"/>
	</g>
	<path class="st5" d="M202.27,33.03c22.56,0,41.78-13.03,49.15-31.3l-0.71-0.33l-97.59,0.33C160.49,20,179.71,33.03,202.27,33.03z"
		/>
	<path class="st0" d="M360.55,138.66c6.05,0,11.79,0.12,16.97,0.34L400,65.95L249.53,0.29c-6.95,16.28-25.08,27.89-46.35,27.89
		c-21.27,0-39.4-11.61-46.35-27.89L0,63.05l21.32,79.8c5.17-0.22,10.89-0.34,16.92-0.34c22.85,0,41.38,1.72,41.38,3.85
		c0,0.01,0,0.02,0,0.03l0.16,0.01l-8.84,215.65l257.19,0.28l-9.3-219.84l0.33,0.01C319.17,140.39,337.7,138.66,360.55,138.66z
		 M220.39,146.09L220.39,146.09l0.11-0.07l0.11,0.07C220.54,146.18,220.46,146.18,220.39,146.09z M221.62,146
		c-0.02,0.01-0.04,0.01-0.07,0.01c-0.03-0.01-0.07-0.03-0.11-0.08c0.02,0,0.04-0.01,0.06-0.01c0.07-0.01,0.14-0.02,0.2-0.03
		C221.68,145.95,221.65,145.98,221.62,146z"/>
	<path class="st2" d="M220.39,146.09L220.39,146.09c0.08,0.09,0.15,0.09,0.22-0.01l-0.11-0.07L220.39,146.09z"/>
	<path class="st2" d="M221.44,145.94c0.04,0.04,0.08,0.07,0.11,0.08c0.02,0,0.04,0,0.07-0.01c0.03-0.02,0.06-0.05,0.09-0.1
		c-0.07,0.01-0.14,0.02-0.2,0.03C221.48,145.93,221.46,145.93,221.44,145.94z"/>
	<g>
		<ellipse class="st0" cx="203.6" cy="123.6" rx="30.22" ry="26.14"/>
		<path class="st6" d="M232.26,110.27c-0.03-0.01-0.06-0.01-0.08-0.03c-0.05-0.02-0.09-0.06-0.11-0.1c-0.03-0.04-0.04-0.1-0.05-0.16
			l0,0l0,0l0,0.01c-0.28-0.08-0.44-0.26-0.5-0.54l-0.04-0.04c-0.59-0.26-0.94-0.8-1.38-1.23c-1.22-1.23-2.53-2.36-3.93-3.4
			c-0.35-0.26-0.77-0.45-0.98-0.87l-0.06-0.04c-0.13-0.01-0.3,0.03-0.39-0.03c-3.97-2.77-8.44-4.39-13.06-5.63
			c-0.65-0.17-1.32-0.28-1.99-0.33c-1.47-0.12-2.26,0.45-2.7,1.89c-0.39,1.27-0.38,2.58-0.37,3.88c0.01,1.21,0.15,2.43,0.18,3.64
			c0.02,0.75,0.38,1.1,1.04,1.38c1.48,0.64,2.93,1.34,4.27,2.29c3.19,2.28,4.54,5.33,4.05,9.2c-0.38,2.96-1.35,5.78-2.06,8.66
			c-0.18,0.74-0.33,1.49-0.5,2.24c-0.23,1-0.25,1.03-1.22,1.07c-0.94,0.04-1.89,0.11-2.83,0.08c-5.04-0.16-10.08,0.03-15.12-0.06
			c-1.17-0.02-1.21,0-1.27-1.19c-0.14-2.53-0.6-4.99-1.25-7.44c-1.03-3.89-0.33-7.5,2.11-10.72c1.11-1.47,2.58-2.49,4.26-3.21
			c0.74-0.32,1.48-0.67,2.24-0.94c0.64-0.22,0.96-0.61,0.97-1.28c0.07-2.43,0.16-4.85,0.21-7.28c0.01-0.44-0.13-0.89-0.21-1.33
			l-0.06-0.04l0.01-0.04l0.01-0.04c-0.04-0.02-0.08-0.04-0.12-0.06c-0.11-0.07-0.19-0.17-0.23-0.31c-0.09,0.01-0.15-0.03-0.19-0.11
			c-2.61-0.41-5.11,0.12-7.56,0.93c-2.96,0.98-5.73,2.4-8.4,4.01c-6.28,3.8-11.58,8.53-14.84,15.29c-1.82,3.77-3.06,7.69-3.43,11.87
			c-0.11,1.25-0.07,1.31-1.3,1.3c-1.8-0.01-3.6-0.1-5.4-0.14c-4.68-0.11-9.36-0.22-14.05-0.32c-5.54-0.11-11.07-0.22-16.61-0.31
			c-1.49-0.02-1.55,0.01-1.59,1.47c-0.07,2.61-0.07,5.22-0.09,7.83c-0.02,3.92-0.02,7.84-0.04,11.75c-0.01,1.71-0.06,3.42-0.08,5.13
			c-0.01,1.04,0.07,1.13,1.14,1.24c0.13,0.01,0.27,0.03,0.4,0.03c4.23-0.12,8.46,0.13,12.7,0.17c2.97,0.02,5.94-0.07,8.92-0.1
			c4.51-0.04,9,0.28,13.5,0.47c1.97,0.08,1.79-0.17,1.89,1.84c0.25,4.95,1.64,9.56,4.03,13.89c2.38,4.31,5.54,7.97,9.3,11.13
			c3.55,2.98,7.42,5.37,11.86,6.85c5.69,1.89,11.43,2.39,17.3,1.1c1.89-0.42,3.78-0.82,5.63-1.43c6.19-2.03,11.08-5.97,15.55-10.54
			c1.08-1.1,1.91-2.39,2.82-3.61c1.46-1.94,2.76-3.98,3.66-6.25c0.15-0.38,0.16-0.77,0.34-1.15c0.89-1.89,1.26-3.92,1.57-5.97
			c0.23-1.53,0.3-3.07,0.49-4.61c0.07-0.59,0.28-0.88,0.91-0.9c2.16-0.08,4.32-0.23,6.48-0.29c3.02-0.09,6.03-0.04,9.05-0.01
			c5.99,0.06,11.98,0.05,17.97,0.05c0.85,0,1.71-0.07,2.56-0.11c0.54-0.03,0.81-0.3,0.81-0.86c0-0.76,0.05-1.53,0.05-2.29
			c-0.02-5.45,0.21-10.89,0.43-16.34c0.09-2.11,0.16-4.23,0.2-6.35c0.03-1.66,0-1.64-1.6-1.71c-1.22-0.05-2.43-0.01-3.65,0.03
			c-3.29,0.1-6.57,0.1-9.86,0.25c-3.46,0.15-6.92-0.02-10.39,0.06c-3.6,0.09-7.2,0.13-10.81,0.18c-1.13,0.02-1.13,0-1.2-1.08
			c-0.07-1.08-0.12-2.16-0.23-3.23c-0.49-4.67-1.84-9.06-4.3-13.09c-0.58-0.95-1.39-1.76-1.76-2.85l-0.02-0.02
			C232.76,111.2,232.43,110.8,232.26,110.27z M216.47,176.26c-1.16,0.28-2.35,0.34-3.49,0.19c-1.08-0.14-2.08-0.76-2.98-1.45
			c-0.57-0.44-1.14-0.88-1.7-1.34c-0.43-0.36-0.81-0.32-1.18,0.08c-0.55,0.6-1.05,1.24-1.66,1.77c-1.43,1.26-3.02,1.97-4.94,1.16
			c-0.9-0.38-1.52-1.08-2.16-1.79c-0.53-0.59-0.81-1.64-1.65-1.65c-0.72-0.01-1.23,0.84-1.76,1.38c-2.2,2.21-5.06,2.43-7.69,1.08
			c-0.99-0.51-1.99-1.02-2.96-1.58c-0.45-0.26-0.83-0.63-1.35-1.04c0.6-0.21,1.08-0.17,1.55-0.12c1.33,0.12,2.54-0.26,3.49-1.15
			c2.09-1.95,3.51-4.31,3.97-7.18c0.24-1.5,0.55-3,0.5-4.53c-0.02-0.76,0.46-0.86,1.08-0.82c1.8,0.11,3.59,0.17,5.39,0.19
			c3.92,0.04,7.83-0.02,11.74-0.11c0.18,0,0.36-0.01,0.54-0.01c1.21,0.01,1.24,0.02,1.21,1.18c-0.06,2.51,0.83,4.76,1.83,6.99
			c0.72,1.6,1.58,3.11,2.93,4.3c1.05,0.92,2.25,1.44,3.73,1.6C219.75,174.91,218.26,175.83,216.47,176.26z M237.58,134.72
			c7.02-0.11,14.05-0.29,21.08-0.22c4.73,0.04,9.46-0.14,14.18-0.24c1.19-0.02,1.25-0.01,1.21,1.17c-0.13,3.38-0.3,6.75-0.42,10.12
			c-0.1,2.79-0.12,5.58-0.22,8.37c-0.07,1.89,0.39,1.98-2,2.01c-5.72,0.12-11.44,0-17.16-0.05c-4.86-0.04-9.72,0-14.58,0.38
			c-2.41,0.19-4.85,0.05-7.28,0.03c-4.59-0.04-9.19-0.25-13.78-0.1c-4.1,0.14-8.19,0.37-12.29,0.42c-4.77,0.07-9.54,0.02-14.31-0.22
			c-3.46-0.17-6.93-0.15-10.4-0.21c-6.21-0.1-12.43-0.09-18.64-0.32c-4.28-0.16-8.55-0.34-12.83-0.35c-2.7-0.01-5.4,0.23-8.1,0.15
			c-3.42-0.11-6.84-0.12-10.26-0.19c-1.13-0.02-1.23-0.13-1.2-1.27c0.08-2.61,0.08-5.22,0.16-7.83c0.11-3.64,0.05-7.29,0.07-10.93
			c0.01-1.84,0.02-1.88,1.82-1.84c4.32,0.1,8.64,0.26,12.96,0.37c4.59,0.11,9.18,0.17,13.77,0.29c5.04,0.13,10.08,0.34,15.12,0.46
			c5.31,0.14,10.63,0.26,15.94,0.31c4.32,0.04,8.65-0.06,12.97-0.04c8.06,0.04,16.12-0.24,24.19-0.07
			C230.91,135,234.25,134.77,237.58,134.72z"/>
		<path class="st0" d="M202.87,135.03c-4.32-0.02-8.65,0.08-12.97,0.04c-5.31-0.05-10.63-0.18-15.94-0.31
			c-5.04-0.13-10.08-0.33-15.12-0.46c-4.59-0.12-9.18-0.18-13.77-0.29c-4.32-0.11-8.64-0.26-12.96-0.37
			c-1.8-0.04-1.81-0.01-1.82,1.84c-0.02,3.64,0.04,7.29-0.07,10.93c-0.08,2.61-0.09,5.22-0.16,7.83c-0.03,1.14,0.07,1.25,1.2,1.27
			c3.42,0.07,6.84,0.08,10.26,0.19c2.71,0.08,5.4-0.15,8.1-0.15c4.28,0.01,8.55,0.19,12.83,0.35c6.21,0.23,12.43,0.22,18.64,0.32
			c3.47,0.06,6.94,0.03,10.4,0.21c4.77,0.24,9.54,0.29,14.31,0.22c4.1-0.06,8.19-0.29,12.29-0.42c4.59-0.15,9.18,0.06,13.78,0.1
			c2.43,0.02,4.87,0.16,7.28-0.03c4.86-0.38,9.72-0.43,14.58-0.38c5.72,0.05,11.44,0.18,17.16,0.05c2.4-0.03,1.94-0.13,2-2.01
			c0.1-2.79,0.12-5.58,0.22-8.37c0.12-3.38,0.3-6.75,0.42-10.12c0.04-1.18-0.01-1.19-1.21-1.17c-4.73,0.09-9.46,0.28-14.18,0.24
			c-7.03-0.06-14.05,0.12-21.08,0.22c-3.33,0.05-6.67,0.28-10,0.21C218.99,134.78,210.93,135.07,202.87,135.03z M141.76,152.56
			c-0.67,0.48-1.4,0.81-2.23,0.86c-2.38,0.14-4.76-0.08-7.15-0.06c-0.46,0.01-0.66-0.25-0.67-0.66c-0.03-0.67-0.04-1.35-0.03-2.02
			c0.03-1.48,0.07-2.97,0.11-4.45c0.02-0.96,0.04-1,0.97-1c0.94,0,1.89,0.05,2.83,0.06c0.44,0,0.88,0.06,1.34-0.12
			c-0.3-0.47-0.74-0.34-1.11-0.36c-1.03-0.05-2.07-0.05-3.1-0.11c-0.24-0.01-0.42-0.03-0.55-0.07c-0.4-0.11-0.38-0.39-0.17-1.23
			c0.03-0.1,0.08-0.19,0.12-0.29s0.05-0.2,0.02-0.31c-0.3-0.13-0.33-0.4-0.33-0.67c0.01-0.78,0.01-1.57,0.02-2.35
			c0.01-0.78,0.02-1.57,0.03-2.35c-0.06-0.21-0.14-0.43-0.15-0.64c0-0.03,0-0.05,0-0.08c0.01-0.18,0.08-0.35,0.29-0.51
			c0.19-0.15,0.41-0.18,0.63-0.17c1.57,0.09,3.15,0.11,4.71,0.28c2.87,0.31,4.79,2.82,4.19,5.63c-0.24,1.13,0.03,1.79,0.82,2.56
			C144.79,146.84,144.49,150.58,141.76,152.56z M156.19,137.65c0.2,2.37,0.2,2.37-2.12,2.36c-1.35-0.01-2.7,0-4.05-0.03
			c-0.59-0.01-0.94,0.13-0.89,0.82c0.06,0.76-0.38,1.7,0.06,2.24c0.47,0.58,1.44,0.12,2.19,0.17c0.72,0.05,1.44,0.04,2.16,0.04
			c0.6,0,0.87,0.22,0.89,0.88c0.08,2.54,0.1,2.54-2.46,2.56c-0.77,0.01-1.53,0.04-2.3,0.05c-0.44,0.01-0.61,0.22-0.66,0.66
			c-0.27,2.45-0.16,2.59,2.29,2.65c1.26,0.03,2.52,0.05,3.78,0.07c0.59,0.01,0.93,0.23,0.87,0.9c-0.05,0.58-0.07,1.17-0.06,1.76
			c0.02,0.61-0.3,0.76-0.84,0.75c-1.44-0.03-2.88-0.12-4.28,0.02c-1.53,0-3.02,0-4.51-0.01c-0.84-0.01-0.94-0.09-0.92-0.95
			c0.07-5.04,0.16-10.09,0.26-15.13c0.02-0.9,0.14-1,1.05-0.99c2.84,0.03,5.67,0.09,8.51,0.11c0.66,0.01,1.03,0.25,1,0.95
			C156.18,137.56,156.18,137.61,156.19,137.65z M163.65,151.48c0,0.04,0,0.09,0,0.13c0.08,2.15,0.08,2.14-2.08,1.99
			c-0.9-0.06-1.8-0.1-2.7-0.15c-1.15-0.06-1.15-0.06-1.21-1.27c-0.01-0.27-0.04-0.54-0.05-0.81l0.03,0
			c0.09-4.45,0.17-8.91,0.29-13.36c0.03-1.28,0.09-1.28,1.32-1.24c2.23,0.07,2.24,0.07,2.2,2.35c-0.05,3.24-0.12,6.48-0.15,9.71
			c-0.01,1.37,0.03,1.43,1.37,1.54C163.47,150.44,163.7,150.78,163.65,151.48z M165.37,151.91c0.01,0.4,0.02,0.8,0.02,1.2
			c0,0.37-0.18,0.58-0.56,0.59c-0.39,0.01-0.74-0.06-0.75-0.54c-0.01-0.76,0-1.51,0.05-2.27c0.02-0.31,0.27-0.43,0.57-0.42
			c0.33,0.01,0.63,0.09,0.66,0.5C165.37,151.29,165.36,151.6,165.37,151.91L165.37,151.91z M168.1,151.95
			c-0.01,0.24-0.01,0.42-0.01,0.6c-0.03,1.21-0.11,1.26-1.3,1.2c-0.6-0.03-0.93-0.22-0.89-0.87c0.02-0.45-0.02-0.9,0.02-1.34
			c0.04-0.37-0.13-0.88,0.39-1.03c0.52-0.16,1.1-0.14,1.56,0.14C168.39,150.97,168.01,151.55,168.1,151.95z M180.25,151.7
			c-0.03,2.6,0.33,2.24-2.18,2.23c-2.07-0.01-4.14-0.01-6.21-0.01c-0.36,0-0.72,0.01-1.08-0.01c-0.97-0.07-1.06-0.17-1.04-1.15
			c0.06-2.93,0.15-5.85,0.21-8.78c0.04-1.8,0.06-3.6,0.11-5.4c0.04-1.48,0.05-1.48,1.5-1.5c1.98,0.01,2-0.28,1.92,1.94
			c-0.12,3.51-0.1,7.02-0.12,10.53c-0.01,1.09,0.02,1.08,1.14,1.09c1.58,0.01,3.15,0.03,4.73,0.07
			C180.17,150.73,180.26,150.8,180.25,151.7z M190.77,146.04c-0.1,1.49-0.1,1.49-1.61,1.42c-0.94-0.04-1.89-0.05-2.83-0.11
			c-0.51-0.03-0.73,0.11-0.73,0.66c-0.01,1.75-0.07,3.5-0.1,5.25c-0.02,1.14-0.01,1.15-1.11,1.09c-0.31-0.02-0.63-0.09-0.94-0.07
			c-1.17,0.08-1.42,0.13-1.39-0.77c0.06-3.5,0.09-6.33,0.15-9.15c0.02-0.95,0.05-0.98,1.01-0.98c0.94-0.01,1.84,0.04,2.72,0.54
			c0.96,0.54,2.11,0.27,3.18,0.33C190.88,144.34,190.88,144.29,190.77,146.04z M190.15,140.76c-0.76,0-1.52,0-2.27-0.02
			c-0.94-0.03-1.87-0.01-2.69,0.55c-0.02,0.02-0.05,0.03-0.07,0.05c-0.18,0.09-0.35,0.1-0.52-0.07c-0.13,0.03-0.35,0.11-0.33,0.21
			c0.01,0.02,0.02,0.05,0.06,0.07c0.22,0.16,0.59,0.12,0.9,0.17c0.45,0.06,0.58,0.35,0.56,0.77c-0.02,0.41-0.28,0.54-0.63,0.54
			c-0.76-0.02-1.53-0.06-2.29-0.1c-0.37-0.02-0.56-0.23-0.57-0.61c-0.01-0.43,0.15-0.67,0.61-0.7c0.35-0.02,0.86,0.21,0.93-0.43
			c-0.09,0-0.19,0-0.28,0c-0.09,0-0.19,0-0.28,0c-0.05,0.01-0.1,0.03-0.16,0.04s-0.1,0.02-0.15,0.02c-0.05,0.01-0.09,0.01-0.14,0.01
			c-0.04,0-0.09-0.01-0.12-0.02c-0.16-0.05-0.27-0.19-0.3-0.49c-0.04-0.09-0.07-0.18-0.07-0.27c0-0.05,0-0.09,0.01-0.14
			c0-0.02,0.01-0.05,0.01-0.07c0.01-0.02,0.01-0.05,0.02-0.07c-0.03-0.07-0.04-0.14-0.05-0.21c0-0.12,0.02-0.23,0.09-0.34
			c-0.05-0.2-0.07-0.4-0.07-0.6c0-0.13,0-0.27,0.02-0.4c0.01-0.07,0.01-0.13,0.02-0.2c0.02-0.13,0.04-0.27,0.07-0.4
			c-0.02-0.48-0.01-0.71,0.17-0.78c0.04-0.01,0.09-0.02,0.15-0.02c0.15,0,0.35,0.04,0.64,0.11c0.11,0,0.22,0,0.33-0.01
			c0.02,0,0.04,0,0.07,0c1.28-0.08,2.56-0.1,3.84-0.06c0.77,0.03,1.53,0.08,2.3,0.17c0.08-0.04,0.16-0.07,0.24-0.08
			c0.03,0,0.05-0.01,0.08-0.01c0.04,0,0.07,0,0.11,0c0.02,0,0.04,0,0.06,0.01c0.05,0.01,0.1,0.02,0.16,0.04
			c0.36-0.02,0.72-0.14,1.08-0.17c0.18-0.02,0.36-0.01,0.53,0.04c0.09,0.03,0.17,0.06,0.26,0.11c0.09,0.05,0.17,0.11,0.25,0.19
			c0.02,0.04,0.05,0.08,0.05,0.12C193.13,140.77,193.13,140.77,190.15,140.76z M204.33,152.03c0.05,2.3,0.07,2.3-2.19,2.31
			c-0.18,0-0.36,0-0.54-0.01l0,0.03c-2.16-0.02-4.32-0.02-6.48-0.06c-0.95-0.02-1.01-0.06-1.01-1c-0.01-2.39,0.02-4.77,0.08-7.16
			c0.06-2.52,0.15-5.04,0.23-7.56c0.04-1.16,0.08-1.19,1.27-1.14c0.4,0.02,0.81,0.04,1.21,0.05c0.98,0.04,1.05,0.1,1.02,1.13
			c-0.09,3.65-0.2,7.29-0.29,10.94c0,0.18-0.02,0.36-0.01,0.54c0.03,0.86,0.04,0.87,0.94,0.88c1.62,0.03,3.24,0.08,4.86,0.07
			C204.13,151.05,204.32,151.35,204.33,152.03z M220.67,152.06c-2.95,2.7-6.68,3-9.83,1.22c-5.3-3-5.64-9.39-1.85-13.03
			c0.88-0.85,1.89-1.53,3-2.05c0.53-0.25,1.08-0.45,1.68-0.47c0.77-0.03,1.03,0.17,1.01,0.89c-0.02,0.85-0.03,1.62-1.08,2.08
			c-1.1,0.48-1.37,1.6-1.25,2.76c0.07,0.67,0.21,1.33,0.28,2.01c0.18,1.63,0.01,3.15-1.61,4.18c0.67,0.52,1.27,0.56,1.84,0.2
			c0.51-0.32,0.92-0.49,1.44-0.02c0.43,0.39,0.92,0.3,1.35-0.06c0.41-0.34,0.78-0.31,1.23-0.03c0.59,0.38,1.22,0.55,1.81-0.01
			c-0.01-0.42-0.34-0.57-0.51-0.82c-0.76-1.08-1.14-2.24-0.8-3.56c0.17-0.65,0.3-1.32,0.44-1.98c0.26-1.2-0.13-2.12-1.2-2.74
			c-0.38-0.22-0.84-0.38-0.91-0.92c-0.08-0.62-0.23-1.3,0.28-1.8c0.46-0.45,1.03-0.14,1.53,0.01c3.13,0.94,5.09,3.04,5.71,6.21
			C223.83,147.18,223.07,149.86,220.67,152.06z M259.34,138.17c0.08-1.16,0.09-1.17,1.23-1.26c1.89-0.14,3.77-0.32,5.66-0.07
			c1.79,0.24,3.27,0.99,4.15,2.65c0.44,0.83,0.28,1.15-0.66,1.19c-1.21,0.05-2.43,0.03-3.64,0.05c-0.18,0-0.36,0.02-0.63,0.04
			c0.22,0.4,0.54,0.34,0.81,0.35c1.17,0.02,2.34,0.03,3.51,0.05c0.27,0,0.55,0.01,0.8,0.08c0.34,0.09,0.52,0.34,0.49,0.7
			c-0.03,0.35-0.29,0.42-0.57,0.43c-0.76,0.04-1.53,0.05-2.29,0.09c-0.93,0.05-1.86,0.13-2.79,0.24c1.5,0.29,3.01,0.14,4.51,0.19
			c1.29,0.05,1.38,0.21,0.9,1.45c-0.43,1.12-1.09,2.08-2.02,2.82c-1.08,0.86-0.81,0.93-0.25,1.87c0.69,1.16,1.45,2.28,2.17,3.42
			c0.17,0.27,0.33,0.54,0.47,0.82c0.14,0.28,0.09,0.56-0.26,0.61c-1.07,0.17-2.15,0.24-3.23,0.19c-0.41-0.02-0.56-0.39-0.76-0.69
			c-1.19-1.8-2.38-3.6-3.57-5.4c-0.2-0.3-0.33-0.64-0.8-0.89c-0.22,1.59-0.11,3.08-0.19,4.55c-0.02,0.27,0,0.54-0.01,0.81
			c-0.05,1.48-0.08,1.51-1.53,1.47c-2.12-0.06-2.13-0.06-2.05-2.14C258.95,147.25,259.04,142.7,259.34,138.17z M246.55,152.64
			c0.07-3.28,0.19-6.56,0.3-9.84c0.05-1.44,0.1-2.88,0.2-4.31c0.1-1.51,0.2-1.66,1.65-1.67c2.79-0.02,5.58,0.04,8.37,0.06
			c0.58,0,0.77,0.26,0.8,0.82c0.11,2.57-0.02,2.73-2.58,2.63c-1.21-0.04-2.43-0.13-3.64,0c-1,0.11-1.11,0.17-1.13,1.13
			c-0.04,2.43-0.47,2,1.86,2.05c0.81,0.02,1.62,0.05,2.43,0.05c0.61,0,0.93,0.22,0.87,0.88c-0.06,0.63-0.09,1.26-0.1,1.89
			c-0.01,0.6-0.31,0.76-0.86,0.74c-0.58-0.03-1.17,0.01-1.75,0.01c0-0.02,0-0.03,0-0.05c-0.31,0.02-0.63,0.03-0.94,0.07
			c-0.52,0.06-1.31-0.23-1.51,0.25c-0.34,0.81-0.39,1.76-0.11,2.64c0.15,0.48,0.65,0.42,1.04,0.43c1.53,0.03,3.06,0.05,4.59,0.06
			c1.25,0.01,1.26,0.01,1.23,1.3c-0.05,2.51,0.13,2.23-2.3,2.22c-2.38-0.01-4.77-0.05-7.15-0.09
			C246.7,153.87,246.52,153.73,246.55,152.64z M230.19,141.31c0.55,0.44,0.62,1.1,0.86,1.67c0.23,0.57,0.35,1.19,0.88,1.75
			c1.21-2.37,1.97-4.86,3.37-7.29c0.74,1.34,1.12,2.58,1.61,3.76c0.48,1.15,0.79,2.38,1.47,3.62c0.74-1.69,1.42-3.25,2.11-4.81
			c0.33-0.74,0.69-1.47,0.99-2.22c0.22-0.53,0.59-0.78,1.14-0.8c0.67-0.03,1.35-0.08,2.02-0.04c0.73,0.03,0.89,0.28,0.61,0.96
			c-0.68,1.67-1.41,3.31-2.12,4.97c-1.49,3.47-2.98,6.94-4.46,10.42c-0.12,0.29-0.23,0.58-0.6,0.92c-0.71-1.32-1.05-2.63-1.54-3.87
			c-0.49-1.25-0.93-2.51-1.48-4.04c-1.15,2.83-2.19,5.4-3.22,7.93c-0.46,0.06-0.48-0.26-0.58-0.49c-0.04-0.08-0.05-0.18-0.09-0.25
			c-1.48-2.79-1.53-5.78-1.27-8.82C229.97,143.58,230,142.46,230.19,141.31z M228.6,137.6c0.25-0.01,0.38,0.22,0.48,0.42
			c0.2,0.41,0.29,0.85,0.31,1.3c0.09,2.65-0.07,5.29-0.32,7.95c-0.59-0.6-0.84-1.31-0.89-2.07c-0.16-2.34-0.03-4.67,0.05-7.01
			C228.23,137.95,228.22,137.62,228.6,137.6z M227.69,137.85c-0.14,1.56,0.1,3.14-0.19,4.7c-0.02,0.11-0.08,0.16-0.32,0.14
			c-0.38-0.51-0.5-1.21-0.76-1.85c-0.36-0.87-0.69-1.75-1-2.64c-0.25-0.72-0.16-0.84,0.63-0.93c0.35-0.04,0.72-0.03,1.07-0.01
			C227.47,137.28,227.73,137.45,227.69,137.85z"/>
		<path class="st0" d="M214.15,167.5c-1-2.22-1.9-4.48-1.83-6.99c0.03-1.17,0-1.17-1.21-1.18c-0.18,0-0.36,0.01-0.54,0.01
			c-3.91,0.09-7.83,0.16-11.74,0.11c-1.8-0.02-3.6-0.08-5.39-0.19c-0.62-0.04-1.1,0.07-1.08,0.82c0.05,1.54-0.26,3.03-0.5,4.53
			c-0.46,2.87-1.88,5.22-3.97,7.18c-0.95,0.89-2.16,1.27-3.49,1.15c-0.47-0.04-0.95-0.08-1.55,0.12c0.52,0.4,0.9,0.78,1.35,1.04
			c0.97,0.56,1.97,1.07,2.96,1.58c2.62,1.35,5.48,1.14,7.69-1.08c0.53-0.54,1.05-1.38,1.76-1.38c0.83,0.01,1.12,1.06,1.65,1.65
			c0.63,0.71,1.26,1.41,2.16,1.79c1.92,0.81,3.51,0.1,4.94-1.16c0.6-0.53,1.11-1.18,1.66-1.77c0.37-0.4,0.74-0.44,1.18-0.08
			c0.55,0.46,1.13,0.9,1.7,1.34c0.89,0.69,1.9,1.31,2.98,1.45c1.13,0.15,2.33,0.09,3.49-0.19c1.8-0.44,3.28-1.35,4.47-2.87
			c-1.47-0.16-2.67-0.68-3.73-1.6C215.73,170.61,214.87,169.1,214.15,167.5z"/>
		<path class="st3" d="M141.93,141.9c0.6-2.81-1.32-5.32-4.19-5.63c-1.56-0.17-3.14-0.19-4.71-0.28c-0.23-0.01-0.45,0.02-0.63,0.17
			c0.03,0.42,0.15,0.85-0.14,1.23c-0.01,0.78-0.02,1.57-0.03,2.35c-0.01,0.78-0.02,1.57-0.02,2.35c0,0.27,0.03,0.54,0.33,0.67
			c1.63-0.22,3.24,0.03,4.85,0.28c-1.64,0.68-3.32,0.31-4.99,0.33c-0.21,0.84-0.23,1.12,0.17,1.23c0.13,0.04,0.32,0.05,0.55,0.07
			c1.03,0.05,2.07,0.06,3.1,0.11c0.38,0.02,0.82-0.11,1.11,0.36c-0.46,0.18-0.91,0.12-1.34,0.12c-0.94,0-1.89-0.06-2.83-0.06
			c-0.93,0-0.95,0.04-0.97,1c-0.04,1.48-0.08,2.97-0.11,4.45c-0.01,0.67,0,1.35,0.03,2.02c0.02,0.41,0.22,0.67,0.67,0.66
			c2.38-0.03,4.76,0.2,7.15,0.06c0.84-0.05,1.57-0.37,2.23-0.86c2.72-1.97,3.03-5.72,0.58-8.08
			C141.95,143.69,141.69,143.03,141.93,141.9z"/>
		<path class="st6" d="M217.93,137.89c-0.5-0.15-1.07-0.47-1.53-0.01c-0.51,0.49-0.35,1.17-0.28,1.8c0.06,0.53,0.52,0.69,0.91,0.92
			c1.07,0.62,1.46,1.54,1.2,2.74c-0.14,0.66-0.28,1.32-0.44,1.98c-0.34,1.33,0.04,2.48,0.8,3.56c0.18,0.25,0.5,0.4,0.51,0.82
			c-0.58,0.56-1.21,0.39-1.81,0.01c-0.44-0.28-0.82-0.31-1.23,0.03c-0.43,0.36-0.92,0.45-1.35,0.06c-0.52-0.47-0.93-0.3-1.44,0.02
			c-0.57,0.36-1.18,0.31-1.84-0.2c1.62-1.03,1.79-2.54,1.61-4.18c-0.07-0.67-0.21-1.33-0.28-2.01c-0.12-1.16,0.16-2.28,1.25-2.76
			c1.05-0.46,1.05-1.23,1.08-2.08c0.02-0.72-0.24-0.92-1.01-0.89c-0.6,0.02-1.15,0.22-1.68,0.47c-1.11,0.52-2.12,1.2-3,2.05
			c-3.79,3.64-3.46,10.03,1.85,13.03c3.15,1.78,6.88,1.49,9.83-1.22c2.4-2.19,3.16-4.88,2.56-7.93
			C223.02,140.93,221.06,138.82,217.93,137.89z"/>
		<path class="st3" d="M261.24,153.9c1.45,0.04,1.49,0.01,1.53-1.47c0.01-0.27-0.01-0.54,0.01-0.81c0.08-1.48-0.03-2.97,0.19-4.55
			c0.47,0.25,0.6,0.59,0.8,0.89c1.19,1.8,2.39,3.6,3.57,5.4c0.2,0.3,0.35,0.68,0.76,0.69c1.08,0.05,2.16-0.02,3.23-0.19
			c0.35-0.06,0.39-0.33,0.26-0.61c-0.14-0.28-0.3-0.55-0.47-0.82c-0.72-1.14-1.48-2.26-2.17-3.42c-0.56-0.94-0.83-1.01,0.25-1.87
			c0.93-0.74,1.59-1.7,2.02-2.82c0.47-1.24,0.39-1.4-0.9-1.45c-1.5-0.05-3.01,0.1-4.51-0.19c0.93-0.11,1.86-0.19,2.79-0.24
			c0.76-0.04,1.53-0.05,2.29-0.09c0.28-0.01,0.55-0.08,0.57-0.43c0.03-0.36-0.15-0.62-0.49-0.7c-0.26-0.07-0.53-0.07-0.8-0.08
			c-1.17-0.02-2.34-0.02-3.51-0.05c-0.27-0.01-0.59,0.05-0.81-0.35c0.27-0.02,0.45-0.04,0.63-0.04c1.21-0.01,2.43,0.01,3.64-0.05
			c0.94-0.04,1.1-0.36,0.66-1.19c-0.88-1.66-2.36-2.41-4.15-2.65c-1.89-0.25-3.78-0.07-5.66,0.07c-1.14,0.08-1.15,0.09-1.23,1.26
			c-0.31,4.54-0.39,9.08-0.56,13.62C259.11,153.84,259.12,153.84,261.24,153.9z"/>
		<path class="st3" d="M155.59,136.54c-2.84-0.03-5.67-0.09-8.51-0.11c-0.91-0.01-1.03,0.1-1.05,0.99
			c-0.1,5.04-0.19,10.09-0.26,15.13c-0.01,0.86,0.09,0.94,0.92,0.95c1.49,0.02,2.97,0.01,4.51,0.01c1.39-0.14,2.83-0.05,4.28-0.02
			c0.54,0.01,0.85-0.14,0.84-0.75c-0.02-0.58,0-1.17,0.06-1.76c0.06-0.67-0.27-0.89-0.87-0.9c-1.26-0.02-2.52-0.04-3.78-0.07
			c-2.45-0.06-2.56-0.2-2.29-2.65c0.05-0.44,0.22-0.65,0.66-0.66c0.77-0.01,1.53-0.04,2.3-0.05c2.56-0.02,2.54-0.02,2.46-2.56
			c-0.02-0.66-0.29-0.88-0.89-0.88c-0.72,0-1.44,0.01-2.16-0.04c-0.75-0.05-1.72,0.41-2.19-0.17c-0.44-0.54-0.01-1.48-0.06-2.24
			c-0.05-0.7,0.3-0.84,0.89-0.82c1.35,0.03,2.7,0.02,4.05,0.03c2.32,0.02,2.32,0.02,2.12-2.36c0-0.04-0.01-0.09-0.01-0.13
			C156.62,136.79,156.24,136.55,155.59,136.54z"/>
		<path class="st3" d="M231.55,153.47c0.04,0.08,0.05,0.17,0.09,0.25c0.1,0.23,0.12,0.55,0.58,0.49c1.03-2.53,2.07-5.1,3.22-7.93
			c0.56,1.53,0.99,2.8,1.48,4.04c0.49,1.24,0.84,2.54,1.54,3.87c0.37-0.34,0.48-0.63,0.6-0.92c1.48-3.47,2.97-6.94,4.46-10.42
			c0.71-1.65,1.44-3.3,2.12-4.97c0.28-0.68,0.12-0.92-0.61-0.96c-0.67-0.03-1.35,0.02-2.02,0.04c-0.54,0.02-0.92,0.27-1.14,0.8
			c-0.31,0.75-0.67,1.48-0.99,2.22c-0.69,1.56-1.37,3.12-2.11,4.81c-0.69-1.24-0.99-2.47-1.47-3.62c-0.49-1.19-0.87-2.42-1.61-3.76
			c-1.4,2.43-2.16,4.92-3.37,7.29c-0.53-0.56-0.65-1.18-0.88-1.75c-0.23-0.57-0.31-1.23-0.86-1.67c-0.19,1.15-0.22,2.27-0.31,3.38
			C230.02,147.7,230.07,150.69,231.55,153.47z"/>
		<path class="st3" d="M248.21,153.86c2.38,0.04,4.77,0.09,7.15,0.09c2.43,0.01,2.24,0.29,2.3-2.22c0.03-1.29,0.02-1.29-1.23-1.3
			c-1.53-0.02-3.06-0.03-4.59-0.06c-0.39-0.01-0.89,0.05-1.04-0.43c-0.28-0.88-0.23-1.83,0.11-2.64c0.2-0.48,0.99-0.19,1.51-0.25
			c0.31-0.04,0.63-0.05,0.94-0.07c0,0.02,0,0.03,0,0.05c0.58-0.01,1.17-0.04,1.75-0.01c0.55,0.03,0.85-0.14,0.86-0.74
			c0.01-0.63,0.04-1.26,0.1-1.89c0.06-0.66-0.25-0.88-0.87-0.88c-0.81,0-1.62-0.03-2.43-0.05c-2.33-0.05-1.9,0.38-1.86-2.05
			c0.02-0.96,0.12-1.02,1.13-1.13c1.21-0.13,2.43-0.04,3.64,0c2.56,0.09,2.69-0.06,2.58-2.63c-0.02-0.56-0.21-0.81-0.8-0.82
			c-2.79-0.01-5.58-0.08-8.37-0.06c-1.45,0.01-1.56,0.16-1.65,1.67c-0.09,1.44-0.15,2.87-0.2,4.31c-0.11,3.28-0.23,6.56-0.3,9.84
			C246.93,153.7,247.11,153.84,248.21,153.86z"/>
		<path class="st3" d="M179.63,150.68c-1.58-0.04-3.15-0.06-4.73-0.07c-1.11-0.01-1.14,0-1.14-1.09c0.02-3.51,0-7.02,0.12-10.53
			c0.08-2.22,0.06-1.93-1.92-1.94c-1.45,0.02-1.46,0.02-1.5,1.5c-0.05,1.8-0.07,3.6-0.11,5.4c-0.07,2.93-0.15,5.85-0.21,8.78
			c-0.02,0.99,0.07,1.08,1.04,1.15c0.36,0.03,0.72,0.01,1.08,0.01c2.07,0,4.14,0,6.21,0.01c2.51,0.01,2.15,0.37,2.18-2.23
			C180.67,150.77,180.57,150.7,179.63,150.68z"/>
		<path class="st3" d="M203.82,151.03c-1.62,0.01-3.24-0.05-4.86-0.07c-0.9-0.02-0.91-0.02-0.94-0.88
			c-0.01-0.18,0.01-0.36,0.01-0.54c0.1-3.65,0.2-7.29,0.29-10.94c0.03-1.03-0.04-1.08-1.02-1.13c-0.4-0.02-0.81-0.04-1.21-0.05
			c-1.19-0.05-1.23-0.01-1.27,1.14c-0.08,2.52-0.18,5.04-0.23,7.56c-0.05,2.39-0.08,4.77-0.08,7.16c0,0.94,0.06,0.98,1.01,1
			c2.16,0.04,4.32,0.04,6.48,0.06l0-0.03c0.18,0,0.36,0.01,0.54,0.01c2.26-0.01,2.23-0.01,2.19-2.31
			C204.72,151.32,204.53,151.02,203.82,151.03z"/>
		<path class="st3" d="M163.09,150.36c-1.34-0.1-1.38-0.17-1.37-1.54c0.03-3.24,0.1-6.48,0.15-9.71c0.03-2.28,0.03-2.28-2.2-2.35
			c-1.23-0.04-1.29-0.04-1.32,1.24c-0.12,4.45-0.2,8.91-0.29,13.36l-0.03,0c0.02,0.27,0.04,0.54,0.05,0.81
			c0.06,1.2,0.06,1.21,1.21,1.27c0.9,0.05,1.8,0.08,2.7,0.15c2.16,0.16,2.16,0.16,2.08-1.99c0-0.05-0.01-0.09,0-0.13
			C164.11,150.76,163.87,150.42,163.09,150.36z"/>
		<path class="st3" d="M189.53,144.21c-1.07-0.06-2.22,0.21-3.18-0.33c-0.89-0.5-1.79-0.54-2.72-0.54
			c-0.96,0.01-0.99,0.03-1.01,0.98c-0.06,2.83-0.1,5.66-0.15,9.15c-0.02,0.91,0.22,0.85,1.39,0.77c0.31-0.02,0.63,0.05,0.94,0.07
			c1.1,0.06,1.09,0.05,1.11-1.09c0.03-1.75,0.09-3.5,0.1-5.25c0-0.55,0.22-0.69,0.73-0.66c0.94,0.06,1.88,0.07,2.83,0.11
			c1.52,0.07,1.52,0.08,1.61-1.42C191.29,144.26,191.28,144.31,189.53,144.21z"/>
		<path class="st3" d="M193.12,137.56c-0.38,0.1-0.76,0.23-1.15,0.3c-0.42,0.08-0.8-0.01-0.97-0.48c-0.05-0.02-0.11-0.03-0.16-0.04
			c-0.02,0-0.04-0.01-0.06-0.01c-0.04,0-0.07-0.01-0.11,0c-0.03,0-0.05,0-0.08,0.01c-0.08,0.01-0.16,0.04-0.24,0.08
			c-1.29,0.1-2.55,0.54-3.87,0.14c-0.55-0.16-1.05,0.2-1.58,0.25c-0.29,0.03-0.57,0.05-0.66-0.18c-0.02-0.04-0.03-0.08-0.03-0.14
			c0-0.03,0-0.06,0-0.09c0-0.03,0-0.07,0.01-0.1c-0.02,0-0.04,0-0.07,0c-0.11,0-0.22,0-0.33,0.01v0c-0.1,0.03-0.19,0.07-0.28,0.12
			c-0.26,0.14-0.47,0.36-0.68,0.57c-0.03,0.13-0.05,0.27-0.07,0.4c-0.01,0.07-0.02,0.13-0.02,0.2c-0.01,0.13-0.02,0.27-0.02,0.4
			c0,0.2,0.02,0.4,0.07,0.6c0.14,0.02,0.27,0.08,0.29,0.22c0.02,0.22-0.16,0.28-0.33,0.33c-0.01,0.02-0.02,0.05-0.02,0.07
			c-0.01,0.02-0.01,0.05-0.01,0.07c-0.01,0.05-0.01,0.09-0.01,0.14c0.01,0.09,0.03,0.18,0.07,0.27c0.36,0,0.71,0.03,0.86,0.44
			c0.09,0,0.19,0,0.28,0c0.09,0,0.19,0,0.28,0c0.1-0.02,0.2-0.04,0.29-0.05c0.16-0.01,0.32,0.03,0.46,0.14
			c0.17,0.17,0.35,0.17,0.52,0.07c0.02-0.01,0.05-0.03,0.07-0.05c0.82-0.56,1.75-0.58,2.69-0.55c0.76,0.02,1.52,0.02,2.27,0.02
			c2.98,0.01,2.98,0.01,2.62-3.04C193.16,137.64,193.13,137.6,193.12,137.56z"/>
		<path class="st3" d="M229.48,147.25c0.25-2.66,0.4-5.3,0.32-7.95c-0.01-0.45-0.1-0.9-0.31-1.3c-0.1-0.2-0.23-0.43-0.48-0.42
			c-0.37,0.01-0.36,0.35-0.37,0.6c-0.08,2.34-0.2,4.67-0.05,7.01C228.63,145.94,228.89,146.65,229.48,147.25z"/>
		<path class="st3" d="M226.44,137.24c-0.78,0.09-0.88,0.21-0.63,0.93c0.31,0.89,0.65,1.77,1,2.64c0.26,0.63,0.38,1.34,0.76,1.85
			c0.24,0.02,0.3-0.03,0.32-0.14c0.3-1.56,0.06-3.14,0.19-4.7c0.03-0.4-0.23-0.57-0.58-0.59
			C227.16,137.21,226.8,137.2,226.44,137.24z"/>
		<path class="st3" d="M168.27,150.62c-0.46-0.28-1.04-0.3-1.56-0.14s-0.35,0.66-0.39,1.03c-0.04,0.44,0,0.89-0.02,1.34
			c-0.04,0.65,0.29,0.84,0.89,0.87c1.19,0.06,1.27,0.01,1.3-1.2c0-0.18,0.01-0.36,0.01-0.6
			C168.41,151.53,168.8,150.94,168.27,150.62z"/>
		<path class="st4" d="M184.23,141.14L184.23,141.14c-0.07,0.65-0.57,0.41-0.93,0.43c-0.46,0.03-0.62,0.27-0.61,0.7
			c0.01,0.38,0.2,0.59,0.57,0.61c0.76,0.04,1.53,0.08,2.29,0.1c0.35,0.01,0.61-0.12,0.63-0.54c0.02-0.41-0.11-0.7-0.56-0.77
			c-0.31-0.04-0.68,0-0.9-0.17c-0.03-0.03-0.05-0.05-0.06-0.07c-0.02-0.1,0.19-0.18,0.33-0.21c-0.15-0.11-0.3-0.15-0.46-0.14
			C184.43,141.1,184.33,141.12,184.23,141.14z"/>
		<path class="st3" d="M165.1,150.45c-0.3-0.01-0.55,0.11-0.57,0.42c-0.04,0.75-0.05,1.51-0.05,2.27c0.01,0.48,0.36,0.55,0.75,0.54
			c0.38-0.01,0.57-0.22,0.56-0.59c0-0.4-0.01-0.8-0.02-1.2l-0.01,0c0-0.31,0.01-0.62-0.01-0.94
			C165.73,150.54,165.43,150.46,165.1,150.45z"/>
		<path class="st2" d="M137.39,143.04c-1.61-0.25-3.22-0.49-4.85-0.28c0.03,0.11,0.02,0.22-0.02,0.31c-0.03,0.1-0.09,0.19-0.12,0.29
			C134.07,143.35,135.76,143.72,137.39,143.04z"/>
		<path class="st4" d="M184.2,137.42c0,0.03,0,0.06,0,0.09c0,0.05,0.01,0.1,0.03,0.14c0.09,0.23,0.38,0.2,0.66,0.18
			c0.53-0.05,1.04-0.42,1.58-0.25c1.31,0.4,2.58-0.05,3.87-0.14c-0.77-0.09-1.53-0.14-2.3-0.17c-1.28-0.05-2.56-0.02-3.84,0.06
			C184.21,137.35,184.21,137.38,184.2,137.42z"/>
		<path class="st4" d="M191.96,137.87c0.39-0.07,0.77-0.2,1.15-0.3c-0.08-0.08-0.17-0.14-0.25-0.19c-0.09-0.05-0.17-0.09-0.26-0.11
			c-0.17-0.05-0.35-0.06-0.53-0.04c-0.36,0.03-0.73,0.15-1.08,0.17h0C191.16,137.86,191.54,137.94,191.96,137.87z"/>
		<path class="st2" d="M237.06,149.09c-0.2,0.16-0.28,0.33-0.29,0.51c0,0.03,0,0.05,0,0.08c0.01,0.21,0.09,0.43,0.15,0.64
			C237.22,149.94,237.09,149.51,237.06,149.09z"/>
		<path class="st4" d="M182.86,138.01c0.21-0.21,0.42-0.43,0.68-0.57c0.09-0.05,0.18-0.09,0.28-0.12v0
			c-0.29-0.07-0.5-0.11-0.64-0.11c-0.06,0-0.11,0.01-0.15,0.02C182.85,137.3,182.84,137.52,182.86,138.01z"/>
		<path class="st4" d="M182.81,140.71c0.03,0.3,0.14,0.44,0.3,0.49c0.04,0.01,0.08,0.02,0.12,0.02c0.04,0,0.09,0,0.14-0.01
			c0.05-0.01,0.1-0.01,0.15-0.02s0.1-0.02,0.16-0.04C183.52,140.74,183.17,140.71,182.81,140.71z"/>
		<path class="st4" d="M183.12,139.83c-0.01-0.14-0.15-0.2-0.29-0.22c-0.07,0.11-0.1,0.22-0.09,0.34c0,0.07,0.02,0.14,0.05,0.21v0
			C182.95,140.11,183.14,140.06,183.12,139.83z"/>
	</g>
</g>
</svg>
