<?xml version="1.0" encoding="utf-8"?>
<!-- Generator: Adobe Illustrator 23.0.6, SVG Export Plug-In . SVG Version: 6.00 Build 0)  -->
<svg version="1.1" id="Layer_1" xmlns="http://www.w3.org/2000/svg" xmlns:xlink="http://www.w3.org/1999/xlink" x="0px" y="0px"
	 viewBox="0 0 400 400" style="enable-background:new 0 0 400 400;" xml:space="preserve">
<style type="text/css">
	.st0{fill:#231F20;}
	.st1{fill:#F9992F;}
	.st2{fill:#FBFBFB;}
	.st3{fill:#FCFCFC;}
	.st4{fill:#FAFAFA;}
</style>
<rect x="-527.47" y="38.1" class="st0" width="1441.3" height="320.58"/>
<path class="st1" d="M377.59,239.14c-11.23-1.83-19.11-10.56-21.62-24.66c-1.84-10.33-0.84-20.55,2.58-30.5
	c2.55-7.44,4.93-14.85,2.69-22.9c-2.93-10.52-9.11-18.06-19.62-21.45c-2.86-0.92-3.97-2-3.86-5.07c0.24-6.99,0.18-13.99,0.02-20.99
	c-0.06-2.79,0.57-3.69,3.6-3.32c42.96,5.17,77.08,41.14,79.78,84.29c3.47,55.33-40.38,99.77-95.98,97.3
	c-46.75-2.08-84.43-40.3-85.84-88.78c-1.42-49.03,34.81-86.03,77.53-92.17c7.29-1.05,7.29-1,7.29,6.38c0,5.66-0.11,11.33,0.05,16.99
	c0.08,2.68-0.52,3.98-3.43,4.94c-16.93,5.63-25.15,21.26-19.71,38.41c3.46,10.93,5.91,21.84,4.88,33.29
	c-0.8,8.9-4.67,16.56-10.55,23.2c-2.99,3.38-7.09,4.55-11.7,4.87c11.14,10.58,23.79,9.3,32.85-3.11c2.64,1.65,3.95,4.41,5.7,6.78
	c4.46,6.05,12.37,6.09,16.75,0.06c0.2-0.27,0.39-0.54,0.59-0.81c1.48-1.99,2.45-5.18,4.71-5.55c2.42-0.41,2.68,3.23,4.24,4.83
	c3.19,3.26,6.7,5.27,11.46,5C365.89,245.85,373.31,243.02,377.59,239.14z M282.66,238.34l-0.2,0.21l0.31,0.06L282.66,238.34z"/>
<path class="st2" d="M-478.52,248.82c0-12.83,0.1-25.66-0.07-38.48c-0.04-3.11,0.88-3.95,3.95-3.92
	c14.66,0.15,29.32,0.05,43.98,0.09c2.66,0.01,4.65,0.21,4.66-3.76c0.01-3.86-1.77-3.79-4.52-3.78c-14.66,0.07-29.32-0.08-43.98,0.12
	c-3.4,0.05-4.13-1.01-4.09-4.18c0.1-8.42-0.05-8.43,8.37-8.43c12.66,0,25.32,0.09,37.98-0.08c2.43-0.03,6.09,1.97,6.22-3.58
	c0.13-5.49-3.41-3.75-5.93-3.77c-14.16-0.11-28.32-0.15-42.48,0.03c-3.24,0.04-4.2-0.77-4.17-4.1c0.15-20.66,0.15-41.31,0.01-61.97
	c-0.02-3.3,1.04-4.19,4.24-4.26c13.98-0.31,27.95-0.39,41.93,0.04c25.94,0.79,45.25,20.16,45.95,46.22
	c0.2,7.59-1.06,14.88-3.64,22.01c-2.33,6.44-1.8,8,3.5,11.82c19.05,13.74,24.19,33.19,21.36,55.11
	c-2.71,20.94-14.03,36.25-33.55,45.05c-7.71,3.47-15.97,2.92-24.09,2.96c-17.16,0.08-34.31-0.16-51.47-0.04
	c-3.25,0.02-4.28-0.8-4.23-4.12C-478.41,274.81-478.52,261.81-478.52,248.82z"/>
<path class="st3" d="M879.47,291.84c-12.53,0-24.19-0.11-35.85,0.07c-3.63,0.05-4.87-2.4-6.3-4.78
	c-13.49-22.53-26.93-45.08-40.4-67.63c-1.5-2.51-2.99-5.04-6.12-7.49c-0.12,2.53-0.27,4.25-0.28,5.97
	c-0.02,22.83-0.13,45.66,0.09,68.49c0.04,4.24-1.23,5.33-5.29,5.14c-7.15-0.33-14.34-0.35-21.49,0c-4.43,0.22-5.82-0.89-5.8-5.62
	c0.19-55.16,0.12-110.32,0.12-165.48c0-2.83,0.1-5.67-0.03-8.5c-0.1-2.17,0.71-2.9,2.88-2.88c21.3,0.16,42.68-1.79,63.89,1.01
	c21.03,2.77,34.82,15.22,42.86,34.51c1.21,2.9,0.43,3.61-2.62,3.59c-15.66-0.13-31.33-0.01-46.99-0.11
	c-2.89-0.02-4.44,0.22-4.45,3.89c-0.01,3.73,1.64,3.87,4.49,3.85c16-0.09,32,0.1,47.99-0.14c3.99-0.06,5.52,1.11,5.9,5.06
	c0.72,7.41,0.92,7.39-6.38,7.39c-15.83,0-31.66,0.04-47.49-0.04c-2.82-0.02-4.52,0.08-4.5,3.83c0.02,3.64,1.51,3.93,4.44,3.91
	c16.5-0.1,33,0.14,49.49-0.17c4.55-0.09,5.16,1.35,4.48,5.31c-2.99,17.36-11.02,31.65-25.61,41.75c-4.37,3.03-4.64,5.21-1.86,9.77
	c11.25,18.45,21.96,37.21,32.88,55.86C878.06,289.35,878.6,290.32,879.47,291.84z"/>
<path class="st4" d="M639.15,199.98c0-27.65,0-55.3,0-82.96c0-8.03,1.22-9.08,9.24-9.06c28.32,0.07,56.64,0.02,84.95,0.04
	c6.49,0,6.49,0.05,6.49,6.48c0,8-0.2,16,0.09,23.98c0.13,3.53-1,4.56-4.41,4.54c-18.66-0.1-37.31-0.02-55.97,0
	c-7.14,0.01-8.27,1.39-8.04,8.55c0.28,8.82,0.48,17.65,0.21,26.46c-0.12,3.94,1.18,4.6,4.75,4.55c13.99-0.21,27.99,0.02,41.98-0.16
	c3.44-0.05,4.58,0.82,4.47,4.4c-0.26,8.82-0.28,17.66,0.01,26.48c0.12,3.7-1.22,4.35-4.56,4.31c-14.16-0.17-28.32,0.03-42.48-0.15
	c-3.26-0.04-4.22,0.83-4.14,4.12c0.23,9.16,0.29,18.33,0.02,27.48c-0.23,7.7,2.7,8.33,8.51,8.4c18.15,0.21,36.3,0.4,54.45,0.28
	c4.09-0.03,5.4,0.91,5.22,5.15c-0.36,8.48-0.2,16.99-0.06,25.48c0.04,2.62-0.44,3.95-3.45,3.9c-5.82-0.09-11.64,0.25-17.47,0.26
	c-23.49,0.04-46.97,0.02-70.46,0.01c-8.36,0-9.36-1.03-9.37-9.59C639.15,255.28,639.15,227.63,639.15,199.98z"/>
<path class="st3" d="M492.62,197.85c10.64-29.6,20.83-57.95,31.45-87.49c3.51,9.64,6.66,18.2,9.75,26.79
	c6.45,17.96,12.84,35.95,19.35,53.89c0.51,1.41,0.29,3.88,2.39,3.86c1.73-0.02,1.66-2.31,2.13-3.62
	c8.82-24.34,17.59-48.69,26.26-73.08c3.44-9.69,3.58-9.87,13.75-9.74c6.83,0.09,13.66,0.16,20.49-0.04c3.8-0.11,4.44,0.79,3.09,4.5
	c-14,38.53-27.82,77.13-41.7,115.7c-7.47,20.77-14.97,41.52-22.43,62.29c-0.33,0.93-0.39,1.99-1.71,2.58
	c-10.27-29.65-20.53-59.28-30.8-88.92c-0.5-0.05-1-0.1-1.5-0.16c-10.07,29.69-20.13,59.37-30.54,90.06
	c-6.37-17.69-12.41-34.43-18.4-51.18c-0.27-0.75-0.19-1.65-0.19-2.47c-0.01-30.82-0.01-61.63,0.73-92.67
	C480.54,164.29,486.35,180.43,492.62,197.85z"/>
<path class="st3" d="M-348.51,199.55c0-27.82-0.01-55.64,0-83.45c0-8.21,0.08-8.28,8.39-8.27c28.99,0.05,57.98,0.18,86.97,0.09
	c4.05-0.01,5.59,0.99,5.42,5.3c-0.34,8.32-0.33,16.67,0,24.99c0.16,3.98-1.46,4.7-4.89,4.69c-18.49-0.1-36.98-0.06-55.47-0.04
	c-7.11,0.01-7.89,0.98-7.79,8.2c0.12,9,0.19,18-0.02,26.99c-0.07,3.22,0.75,4.24,4.11,4.2c14.16-0.19,28.33,0.02,42.49-0.16
	c3.3-0.04,4.69,0.51,4.57,4.25c-0.29,8.82-0.26,17.66-0.01,26.49c0.1,3.41-0.68,4.5-4.3,4.44c-14.16-0.23-28.33,0.03-42.49-0.18
	c-3.59-0.05-4.49,1.04-4.37,4.49c0.32,9.82,0.44,19.65,0.34,29.47c-0.04,4.14,2.08,5.76,5.64,6.08c3.48,0.3,6.98,0.34,10.47,0.35
	c15.5,0.03,31,0.19,46.49-0.1c4.32-0.08,5.22,1.23,5.06,5.27c-0.32,8.49-0.24,17-0.02,25.49c0.08,3.1-0.95,4.08-3.93,4.08
	c-30.49-0.06-60.99-0.06-91.48,0c-3.37,0.01-4.94-1.52-5.09-4.7c-0.11-2.33-0.09-4.66-0.09-6.99
	C-348.52,253.53-348.51,226.54-348.51,199.55z"/>
<path class="st3" d="M124.16,199.85c0-28.83,0.06-57.66-0.08-86.49c-0.02-3.43,0.73-4.58,4.33-4.45c7.65,0.29,15.35,0.39,22.99-0.03
	c4.26-0.23,4.68,1.46,4.68,5.03c-0.11,44.16-0.07,88.32-0.07,132.48c0,10.65,1.2,11.93,11.74,11.41
	c17.48-0.86,34.97-0.47,52.45-0.72c3.57-0.05,4.49,1.04,4.4,4.48c-0.23,8.66-0.18,17.33-0.02,26c0.05,2.78-0.7,3.7-3.6,3.69
	c-31-0.1-62-0.13-92.99,0.03c-3.7,0.02-3.87-1.56-3.86-4.42C124.19,257.84,124.16,228.85,124.16,199.85z"/>
<path class="st3" d="M-111.84,199.69c0-28.66,0.07-57.32-0.09-85.98c-0.02-3.83,0.81-5.16,4.86-4.98
	c7.98,0.35,15.99,0.18,23.99,0.05c2.31-0.04,3.14,0.5,3.14,3c-0.06,30.66,0.02,61.31,0.03,91.97c0,15.5-0.11,30.99-0.05,46.49
	c0.02,5.82,2.23,7.65,8.07,7.6c18.65-0.15,37.31-0.18,55.96-0.4c2.87-0.03,4.12,0.42,4.02,3.74c-0.25,8.82-0.2,17.66-0.02,26.49
	c0.06,2.82-0.75,3.59-3.58,3.58c-30.99-0.1-61.99-0.13-92.98,0.03c-3.52,0.02-3.56-1.47-3.56-4.11c0.06-29.16,0.04-58.32,0.04-87.47
	C-111.95,199.69-111.9,199.69-111.84,199.69z"/>
<path class="st3" d="M-229.84,199.96c0-28.83,0.07-57.65-0.08-86.48c-0.02-3.62,0.69-4.93,4.59-4.75
	c7.48,0.34,15.01,0.42,22.48-0.02c4.49-0.27,4.96,1.44,4.95,5.3c-0.14,44.32-0.09,88.64-0.09,132.96c0,9.89,0.63,10.52,10.4,10.52
	c2.33,0,4.77,0.45,6.98-0.09c5.95-1.44,6.41,1.58,6.22,6.33c-0.32,7.99-0.19,15.99-0.03,23.99c0.05,2.65-0.79,3.36-3.39,3.34
	c-16.16-0.11-32.33-0.17-48.49,0.03c-3.51,0.04-3.58-1.5-3.58-4.16C-229.82,257.94-229.84,228.95-229.84,199.96z"/>
<path class="st2" d="M6,234.12c0-17.99,0.09-35.97-0.08-53.96c-0.03-3.34,0.96-4.17,4.17-4.08c8.15,0.22,16.32,0.03,24.48,0.12
	c1.24,0.01,3.21-0.99,3.44,1.53c0.44,4.8,3.82,5.15,7.58,5.11c12.98-0.15,25.97-0.11,38.94-0.44c3.65-0.09,4.88,0.73,4.74,4.61
	c-0.32,8.81-0.28,17.65-0.01,26.47c0.1,3.44-1.07,4.13-4.23,4.1c-14.15-0.15-28.31,0.07-42.46-0.16c-3.65-0.06-4.71,0.73-4.67,4.57
	c0.22,21.81,0.03,43.63,0.18,65.45c0.02,3.33-0.59,4.64-4.27,4.5c-7.82-0.3-15.66-0.28-23.48-0.01c-3.47,0.12-4.46-0.79-4.43-4.35
	C6.1,269.76,6,251.94,6,234.12z"/>
<path class="st2" d="M55.8,108.48c14.98,0,29.96,0.13,44.94-0.08c4.31-0.06,5.62,1.21,5.39,5.61c-0.42,7.97-0.39,15.99-0.01,23.97
	c0.21,4.38-1.37,5.15-5.34,5.11c-18.48-0.2-36.96-0.06-55.44-0.11c-3.56-0.01-6.84,0.1-7.31,4.71c-0.19,1.91-1.65,1.29-2.65,1.29
	c-8.83,0.05-17.65-0.03-26.48,0.07c-2.23,0.03-2.8-0.78-2.78-2.9c0.09-11.66,0.15-23.32-0.02-34.97c-0.05-3.58,2.12-3.02,4.24-3.02
	c15.15,0,30.31,0,45.46,0C55.8,108.27,55.8,108.37,55.8,108.48z"/>
<path class="st3" d="M466.56,221.96c-5.17-15.58-11.96-29.53-11.02-46.09c1.19-20.9,0.27-41.93,0.33-62.9
	c0-1.33-0.97-3.29,0.91-3.94c1.88-0.65,3.19,0.95,3.96,2.36c3.01,5.55,6.22,11.36,6.28,17.64c0.32,30.29,0.13,60.59,0.11,90.88
	C467.14,220.3,466.93,220.7,466.56,221.96z"/>
<path class="st4" d="M448.17,170.74c-7.39-20.52-14.77-41.04-22.4-62.25c7.41,0,14.3,0.03,21.2-0.02c1.95-0.02,2.05,1.11,2.05,2.58
	c-0.02,19.9-0.01,39.8-0.01,59.7C448.73,170.75,448.45,170.74,448.17,170.74z"/>
<path class="st4" d="M-129.99,274.45c0,4.65-0.1,9.3,0.04,13.94c0.07,2.15-0.57,2.9-2.78,2.83c-4.64-0.15-9.3-0.13-13.94-0.01
	c-2.14,0.06-2.9-0.67-2.88-2.84c0.09-9.46,0.07-18.92,0.01-28.39c-0.01-2.12,0.71-2.93,2.88-2.87c4.64,0.13,9.3,0.15,13.94-0.01
	c2.27-0.08,2.81,0.84,2.76,2.9C-130.07,264.82-129.99,269.64-129.99,274.45z"/>
<path class="st4" d="M22.42,169.01c-4.49,0-8.98-0.09-13.46,0.04c-2.14,0.06-2.75-0.64-2.87-2.82c-0.57-10.07-0.66-10.07,9.15-10.07
	c6.32,0,12.64,0.21,18.95-0.08c3.43-0.16,4.1,1.07,4.07,4.22c-0.09,8.71,0.05,8.71-8.85,8.71
	C27.08,169.01,24.75,169.01,22.42,169.01z"/>
<path class="st4" d="M-156.16,274.15c0,4.49-0.16,8.98,0.06,13.46c0.14,2.85-0.81,3.62-3.63,3.64c-8.12,0.05-8.12,0.19-8.12-8.05
	c0-7.31,0.16-14.63-0.07-21.93c-0.1-3.25,0.82-4.62,4.14-4.14c1.3,0.19,2.67,0.16,3.98,0c2.78-0.33,3.84,0.66,3.7,3.57
	C-156.32,265.17-156.16,269.67-156.16,274.15z"/>
<polygon points="282.66,238.34 282.77,238.61 282.46,238.55 "/>
</svg>
