<?xml version="1.0" encoding="utf-8"?>
<!-- Generator: Adobe Illustrator 23.0.6, SVG Export Plug-In . SVG Version: 6.00 Build 0)  -->
<svg version="1.1" id="Layer_1" xmlns="http://www.w3.org/2000/svg" xmlns:xlink="http://www.w3.org/1999/xlink" x="0px" y="0px"
	 viewBox="0 0 400 88.97" style="enable-background:new 0 0 400 88.97;" xml:space="preserve">
<style type="text/css">
	.st0{fill:#231F20;}
	.st1{fill:#F9992F;}
	.st2{fill:#FBFBFB;}
	.st3{fill:#FCFCFC;}
	.st4{fill:#FAFAFA;}
</style>
<g>
	<rect class="st0" width="400" height="88.97"/>
	<path class="st1" d="M251.18,55.79c-3.12-0.51-5.3-2.93-6-6.84c-0.51-2.87-0.23-5.7,0.71-8.46c0.71-2.06,1.37-4.12,0.75-6.35
		c-0.81-2.92-2.53-5.01-5.44-5.95c-0.79-0.26-1.1-0.55-1.07-1.41c0.07-1.94,0.05-3.88,0.01-5.82c-0.02-0.77,0.16-1.02,1-0.92
		c11.92,1.43,21.39,11.42,22.14,23.39c0.96,15.35-11.21,27.69-26.64,27c-12.97-0.58-23.43-11.18-23.82-24.64
		c-0.39-13.61,9.66-23.88,21.52-25.58c2.02-0.29,2.02-0.28,2.02,1.77c0,1.57-0.03,3.14,0.01,4.72c0.02,0.74-0.14,1.1-0.95,1.37
		c-4.7,1.56-6.98,5.9-5.47,10.66c0.96,3.03,1.64,6.06,1.35,9.24c-0.22,2.47-1.3,4.6-2.93,6.44c-0.83,0.94-1.97,1.26-3.25,1.35
		c3.09,2.94,6.6,2.58,9.12-0.86c0.73,0.46,1.1,1.22,1.58,1.88c1.24,1.68,3.43,1.69,4.65,0.02c0.05-0.07,0.11-0.15,0.16-0.22
		c0.41-0.55,0.68-1.44,1.31-1.54c0.67-0.11,0.74,0.9,1.18,1.34c0.89,0.9,1.86,1.46,3.18,1.39
		C247.93,57.65,249.99,56.87,251.18,55.79z M224.83,55.57l-0.05,0.06l0.08,0.02L224.83,55.57z"/>
	<path class="st2" d="M13.59,58.48c0-3.56,0.03-7.12-0.02-10.68c-0.01-0.86,0.24-1.1,1.1-1.09c4.07,0.04,8.14,0.01,12.21,0.02
		c0.74,0,1.29,0.06,1.29-1.04c0-1.07-0.49-1.05-1.25-1.05c-4.07,0.02-8.14-0.02-12.21,0.03c-0.94,0.01-1.15-0.28-1.14-1.16
		c0.03-2.34-0.01-2.34,2.32-2.34c3.51,0,7.03,0.02,10.54-0.02c0.67-0.01,1.69,0.55,1.73-0.99c0.04-1.52-0.95-1.04-1.64-1.05
		c-3.93-0.03-7.86-0.04-11.79,0.01c-0.9,0.01-1.17-0.21-1.16-1.14c0.04-5.73,0.04-11.47,0-17.2c-0.01-0.91,0.29-1.16,1.18-1.18
		c3.88-0.09,7.76-0.11,11.64,0.01c7.2,0.22,12.56,5.59,12.75,12.83c0.06,2.11-0.29,4.13-1.01,6.11c-0.65,1.79-0.5,2.22,0.97,3.28
		c5.29,3.81,6.71,9.21,5.93,15.29c-0.75,5.81-3.89,10.06-9.31,12.5c-2.14,0.96-4.43,0.81-6.69,0.82c-4.76,0.02-9.52-0.04-14.28-0.01
		c-0.9,0.01-1.19-0.22-1.17-1.14C13.62,65.69,13.59,62.09,13.59,58.48z"/>
	<path class="st3" d="M390.46,70.42c-3.48,0-6.71-0.03-9.95,0.02c-1.01,0.02-1.35-0.67-1.75-1.33c-3.74-6.25-7.48-12.51-11.21-18.77
		c-0.42-0.7-0.83-1.4-1.7-2.08c-0.03,0.7-0.08,1.18-0.08,1.66c0,6.34-0.03,12.67,0.03,19.01c0.01,1.18-0.34,1.48-1.47,1.43
		c-1.98-0.09-3.98-0.1-5.96,0c-1.23,0.06-1.62-0.25-1.61-1.56c0.05-15.31,0.03-30.62,0.03-45.93c0-0.79,0.03-1.57-0.01-2.36
		c-0.03-0.6,0.2-0.8,0.8-0.8c5.91,0.04,11.84-0.5,17.73,0.28c5.84,0.77,9.66,4.22,11.89,9.58c0.34,0.8,0.12,1-0.73,1
		c-4.35-0.04-8.69,0-13.04-0.03c-0.8-0.01-1.23,0.06-1.24,1.08c0,1.03,0.46,1.07,1.25,1.07c4.44-0.02,8.88,0.03,13.32-0.04
		c1.11-0.02,1.53,0.31,1.64,1.4c0.2,2.06,0.25,2.05-1.77,2.05c-4.39,0-8.79,0.01-13.18-0.01c-0.78,0-1.25,0.02-1.25,1.06
		c0,1.01,0.42,1.09,1.23,1.09c4.58-0.03,9.16,0.04,13.74-0.05c1.26-0.02,1.43,0.38,1.24,1.47c-0.83,4.82-3.06,8.78-7.11,11.59
		c-1.21,0.84-1.29,1.45-0.52,2.71c3.12,5.12,6.1,10.33,9.12,15.5C390.07,69.73,390.22,70,390.46,70.42z"/>
	<path class="st4" d="M323.77,44.92c0-7.67,0-15.35,0-23.02c0-2.23,0.34-2.52,2.57-2.52c7.86,0.02,15.72,0.01,23.58,0.01
		c1.8,0,1.8,0.01,1.8,1.8c0,2.22-0.05,4.44,0.03,6.66c0.04,0.98-0.28,1.27-1.22,1.26c-5.18-0.03-10.36-0.01-15.53,0
		c-1.98,0-2.29,0.39-2.23,2.37c0.08,2.45,0.13,4.9,0.06,7.34c-0.03,1.09,0.33,1.28,1.32,1.26c3.88-0.06,7.77,0.01,11.65-0.04
		c0.95-0.01,1.27,0.23,1.24,1.22c-0.07,2.45-0.08,4.9,0,7.35c0.03,1.03-0.34,1.21-1.26,1.2c-3.93-0.05-7.86,0.01-11.79-0.04
		c-0.9-0.01-1.17,0.23-1.15,1.14c0.06,2.54,0.08,5.09,0,7.63c-0.06,2.14,0.75,2.31,2.36,2.33c5.04,0.06,10.07,0.11,15.11,0.08
		c1.14-0.01,1.5,0.25,1.45,1.43c-0.1,2.35-0.05,4.71-0.02,7.07c0.01,0.73-0.12,1.09-0.96,1.08c-1.62-0.02-3.23,0.07-4.85,0.07
		c-6.52,0.01-13.04,0.01-19.56,0c-2.32,0-2.6-0.29-2.6-2.66C323.77,60.27,323.77,52.6,323.77,44.92z"/>
	<path class="st3" d="M283.1,44.34c2.95-8.22,5.78-16.08,8.73-24.28c0.97,2.67,1.85,5.05,2.71,7.44c1.79,4.98,3.56,9.98,5.37,14.96
		c0.14,0.39,0.08,1.08,0.66,1.07c0.48,0,0.46-0.64,0.59-1c2.45-6.75,4.88-13.51,7.29-20.28c0.96-2.69,0.99-2.74,3.81-2.7
		c1.9,0.02,3.79,0.04,5.69-0.01c1.05-0.03,1.23,0.22,0.86,1.25c-3.89,10.69-7.72,21.4-11.57,32.11c-2.07,5.76-4.15,11.52-6.23,17.29
		c-0.09,0.26-0.11,0.55-0.47,0.71c-2.85-8.23-5.7-16.45-8.55-24.68c-0.14-0.01-0.28-0.03-0.42-0.04
		c-2.79,8.24-5.59,16.48-8.48,24.99c-1.77-4.91-3.44-9.55-5.11-14.2c-0.07-0.21-0.05-0.46-0.05-0.69c0-8.55,0-17.1,0.2-25.72
		C279.75,35.02,281.36,39.5,283.1,44.34z"/>
	<path class="st3" d="M49.67,44.81c0-7.72,0-15.44,0-23.16c0-2.28,0.02-2.3,2.33-2.29c8.05,0.01,16.09,0.05,24.14,0.02
		c1.12,0,1.55,0.27,1.5,1.47c-0.09,2.31-0.09,4.63,0,6.93c0.04,1.1-0.4,1.31-1.36,1.3c-5.13-0.03-10.26-0.02-15.4-0.01
		c-1.97,0-2.19,0.27-2.16,2.28c0.03,2.5,0.05,4.99,0,7.49c-0.02,0.89,0.21,1.18,1.14,1.16c3.93-0.05,7.86,0,11.79-0.04
		c0.92-0.01,1.3,0.14,1.27,1.18c-0.08,2.45-0.07,4.9,0,7.35c0.03,0.95-0.19,1.25-1.19,1.23c-3.93-0.06-7.86,0.01-11.79-0.05
		c-1-0.01-1.25,0.29-1.21,1.25c0.09,2.72,0.12,5.45,0.09,8.18c-0.01,1.15,0.58,1.6,1.56,1.69c0.96,0.08,1.94,0.1,2.91,0.1
		c4.3,0.01,8.6,0.05,12.9-0.03c1.2-0.02,1.45,0.34,1.41,1.46c-0.09,2.35-0.07,4.72-0.01,7.07c0.02,0.86-0.26,1.13-1.09,1.13
		c-8.46-0.02-16.93-0.02-25.39,0c-0.94,0-1.37-0.42-1.41-1.3c-0.03-0.65-0.02-1.29-0.03-1.94C49.66,59.79,49.67,52.3,49.67,44.81z"
		/>
	<path class="st3" d="M180.85,44.89c0-8,0.02-16-0.02-24c0-0.95,0.2-1.27,1.2-1.23c2.12,0.08,4.26,0.11,6.38-0.01
		c1.18-0.06,1.3,0.41,1.3,1.4c-0.03,12.26-0.02,24.51-0.02,36.77c0,2.96,0.33,3.31,3.26,3.17c4.85-0.24,9.71-0.13,14.56-0.2
		c0.99-0.01,1.25,0.29,1.22,1.24c-0.06,2.4-0.05,4.81-0.01,7.21c0.01,0.77-0.19,1.03-1,1.02c-8.6-0.03-17.21-0.04-25.81,0.01
		c-1.03,0.01-1.07-0.43-1.07-1.23C180.85,60.98,180.85,52.94,180.85,44.89z"/>
	<path class="st3" d="M115.35,44.84c0-7.95,0.02-15.91-0.02-23.86c-0.01-1.06,0.22-1.43,1.35-1.38c2.22,0.1,4.44,0.05,6.66,0.01
		c0.64-0.01,0.87,0.14,0.87,0.83c-0.02,8.51,0,17.02,0.01,25.52c0,4.3-0.03,8.6-0.01,12.9c0.01,1.61,0.62,2.12,2.24,2.11
		c5.18-0.04,10.35-0.05,15.53-0.11c0.8-0.01,1.14,0.12,1.12,1.04c-0.07,2.45-0.06,4.9-0.01,7.35c0.02,0.78-0.21,1-0.99,0.99
		c-8.6-0.03-17.2-0.04-25.8,0.01c-0.98,0.01-0.99-0.41-0.99-1.14c0.02-8.09,0.01-16.18,0.01-24.28
		C115.32,44.84,115.33,44.84,115.35,44.84z"/>
	<path class="st3" d="M82.6,44.92c0-8,0.02-16-0.02-24c-0.01-1.01,0.19-1.37,1.27-1.32c2.08,0.1,4.17,0.12,6.24-0.01
		c1.25-0.07,1.38,0.4,1.37,1.47c-0.04,12.3-0.02,24.6-0.02,36.9c0,2.74,0.17,2.92,2.89,2.92c0.65,0,1.32,0.12,1.94-0.02
		c1.65-0.4,1.78,0.44,1.73,1.76c-0.09,2.22-0.05,4.44-0.01,6.66c0.01,0.74-0.22,0.93-0.94,0.93c-4.49-0.03-8.97-0.05-13.46,0.01
		c-0.97,0.01-0.99-0.42-0.99-1.15C82.61,61.01,82.6,52.97,82.6,44.92z"/>
	<path class="st2" d="M148.05,54.4c0-4.99,0.03-9.98-0.02-14.97c-0.01-0.93,0.27-1.16,1.16-1.13c2.26,0.06,4.53,0.01,6.79,0.03
		c0.34,0,0.89-0.27,0.95,0.42c0.12,1.33,1.06,1.43,2.1,1.42c3.6-0.04,7.21-0.03,10.81-0.12c1.01-0.03,1.36,0.2,1.32,1.28
		c-0.09,2.45-0.08,4.9,0,7.35c0.03,0.95-0.3,1.15-1.17,1.14c-3.93-0.04-7.86,0.02-11.79-0.04c-1.01-0.02-1.31,0.2-1.3,1.27
		c0.06,6.05,0.01,12.11,0.05,18.16c0.01,0.92-0.16,1.29-1.19,1.25c-2.17-0.08-4.35-0.08-6.52,0c-0.96,0.03-1.24-0.22-1.23-1.21
		C148.08,64.29,148.05,59.35,148.05,54.4z"/>
	<path class="st2" d="M161.87,19.53c4.16,0,8.31,0.04,12.47-0.02c1.2-0.02,1.56,0.34,1.5,1.56c-0.12,2.21-0.11,4.44,0,6.65
		c0.06,1.21-0.38,1.43-1.48,1.42c-5.13-0.05-10.26-0.02-15.39-0.03c-0.99,0-1.9,0.03-2.03,1.31c-0.05,0.53-0.46,0.36-0.73,0.36
		c-2.45,0.01-4.9-0.01-7.35,0.02c-0.62,0.01-0.78-0.22-0.77-0.81c0.02-3.24,0.04-6.47-0.01-9.71c-0.01-0.99,0.59-0.84,1.18-0.84
		c4.21,0,8.41,0,12.62,0C161.87,19.47,161.87,19.5,161.87,19.53z"/>
	<path class="st3" d="M275.87,51.03c-1.44-4.32-3.32-8.2-3.06-12.79c0.33-5.8,0.07-11.64,0.09-17.46c0-0.37-0.27-0.91,0.25-1.09
		c0.52-0.18,0.89,0.26,1.1,0.65c0.84,1.54,1.73,3.15,1.74,4.9c0.09,8.41,0.04,16.81,0.03,25.22
		C276.03,50.57,275.97,50.68,275.87,51.03z"/>
	<path class="st4" d="M270.77,36.81c-2.05-5.7-4.1-11.39-6.22-17.28c2.06,0,3.97,0.01,5.88-0.01c0.54,0,0.57,0.31,0.57,0.72
		c0,5.52,0,11.05,0,16.57C270.92,36.81,270.84,36.81,270.77,36.81z"/>
	<path class="st4" d="M110.31,65.59c0,1.29-0.03,2.58,0.01,3.87c0.02,0.6-0.16,0.8-0.77,0.78c-1.29-0.04-2.58-0.04-3.87,0
		c-0.59,0.02-0.81-0.19-0.8-0.79c0.02-2.63,0.02-5.25,0-7.88c0-0.59,0.2-0.81,0.8-0.8c1.29,0.04,2.58,0.04,3.87,0
		c0.63-0.02,0.78,0.23,0.77,0.81C110.29,62.92,110.31,64.26,110.31,65.59z"/>
	<path class="st4" d="M152.61,36.33c-1.25,0-2.49-0.02-3.74,0.01c-0.59,0.02-0.76-0.18-0.8-0.78c-0.16-2.8-0.18-2.79,2.54-2.79
		c1.75,0,3.51,0.06,5.26-0.02c0.95-0.04,1.14,0.3,1.13,1.17c-0.03,2.42,0.01,2.42-2.46,2.42C153.9,36.33,153.26,36.33,152.61,36.33z
		"/>
	<path class="st4" d="M103.05,65.51c0,1.25-0.05,2.49,0.02,3.73c0.04,0.79-0.22,1.01-1.01,1.01c-2.25,0.01-2.25,0.05-2.25-2.24
		c0-2.03,0.04-4.06-0.02-6.09c-0.03-0.9,0.23-1.28,1.15-1.15c0.36,0.05,0.74,0.04,1.1,0c0.77-0.09,1.07,0.18,1.03,0.99
		C103,63.02,103.05,64.27,103.05,65.51z"/>
	<polygon points="224.83,55.57 224.86,55.65 224.78,55.63 	"/>
</g>
</svg>
